<mxfile host="app.diagrams.net" agent="Mozilla/5.0 (Windows NT 10.0; Win64; x64) AppleWebKit/537.36 (KHTML, like Gecko) Chrome/131.0.0.0 Safari/537.36" version="25.0.1">
  <diagram name="페이지-1" id="T88jB-Vsq2wtU2N281KM">
    <mxGraphModel dx="1434" dy="746" grid="1" gridSize="10" guides="1" tooltips="1" connect="1" arrows="1" fold="1" page="1" pageScale="1" pageWidth="827" pageHeight="1169" math="0" shadow="0">
      <root>
        <mxCell id="0" />
        <mxCell id="1" parent="0" />
        <mxCell id="xIgc0pnBAUEfbklbajIn-1" value="" style="shape=image;verticalLabelPosition=bottom;labelBackgroundColor=default;verticalAlign=top;aspect=fixed;imageAspect=0;image=data:image/png,iVBORw0KGgoAAAANSUhEUgAAAu8AAAFQCAIAAACAlQc7AAAgAElEQVR4Aex9zaodO3P2vqh35Gs5430f7x14aoxjjA/GMcYhEHYgEAIfvBACGeXMzty3cT5K6pLqVy316u6tbteaSCqVSvU8VarWWl5e++ln8/W///u/zfmYDAaCgbkYuOuZDVxz5dmaNxGvNYbmmr9BvJ7ajP7P//xPWyFmg4FgYCoG7npmA9dUabbqTMRrlaKpFG4QL+M283//93+F5f/+7/8u/egEA8HA/Azc9cwGrvlzj3oY8aJszN+/Qbzkbeb//u///u3f/q1Q/49//KP0o3MjBv7x9789Pf3t7xHdG8V0gXLCmU3Z81Re5+TRCbgwGX7/rWA7/pQcjUsE6+np6bffEeiR7dG4su8S3fG5eA4uloJPx2fhz5/n4Pr5UyDbMxnZbSZfZeht5v/9v/93ZMKH7Vdi4B9//9vf/va3uM68Ev2HbnvCmYVHSKlC6XlSRsdBOwHXz58/Exr2SPzH33879NZ/NC4WLAhPepwwiIcE7Whc2WmF7hAs1Og5uH7/7ezqfAIufbjgvO1XO+ptplxl6G3mv/7rv2ggo38PBuAy8/d/nH9g7sHe5ChOOLPiEXJOIp2AKz3o9yuufYlyNC4RrORUeqwcDPRoXJldC10f71u1zsF1zpmiHByOC27Rx+bccpuhVxl6m/nP//xPCjj6t2AATwq2twAVIBYGTjiz4hFyTh4dj0vAOimjjsZlozr+0XI0rhweG92RoTsH1zlnivJ0MK4zAgW3GXGVobeZ//iP/6CAo38HBupBOb6k3YGvi2E44cyyynRWEh2OC1Ad/w8wKpuOxsWCVXevVaDKdu0djSs766DbFQk3dg6uw8PDQf38+fNYXKccrid9laG3mX//939XqENwbQboOTnrSXRtxq7l/QlnFkoTeR378TGyfziu8x+MCdrRuBxYtAwgxbu2R+PKzopUPPifMmDPc3BBZSavE27Zx+KSWUjith+2p3+zXiWr6c2mCKNzYQYgi0j6xHXmwrG0XT/hzPLSlArT8Teaw3FxVDa5B0iPxmXDAimpAxfElV220R0Ap5g8Ol55o8MvmwUPdo7F5cVpV5wrt5l//dd/RbDR3oEBSCr1Oraq3YG2K2E44czK0iTHh9B1PK7XudofjcsOzq5PETPeR+PKm9roTId2Ep6D6/j4SDoOxuUcrl1xrtxm/uVf/kWCjvGFGYCzL+4uhujCAMP1nyecWfkIkeNDonASLnE8DoHCjB6NywqO82hhfj06OBpX9s9C96jn7fXn4Nr1Kd8GtMwejQsipQ/XrjhXbjPfv3/vYiKULsGAefTtLLsEnnDSYOCEM8vzCEYnfF/hBFzLz81wML//pmuwQftm0dG4eLCsX9TZ7Hpz4dG48uYSXdOlXSbPwbXrU74L9wm44BLNDxeEb7/jtXKb+ed//ucuJkLpCgx478g8+RUwhY+SgRPObLq/1H+w3K8cSSx0fAKuZbtUdAu8o78RdDQuESzxOKEM79s/Glf2VqE7PBnPwXX+beYcXPKngHcN18pt5suXL/umeFgLBoKBQxm465kNXIemze7GI167U3qowRvEa+U28/vvp/xJj0OjFMaDgV+Jgbue2cB1rSyOeEW8Tmag/mUDc+NPnz6Z8hAGA8HAnAzc9cwGrjnzzfMq4uUxM6f8BvFauc380z/905zUh1fBQDBgMnDXMxu4zHBPK4x4TRsa07EbxGvlNvP+/XsTeQiDgWBgTgbuemYD15z55nkV8fKYmVN+g3g9/fjx4/v379++ffv69euXL18+f/786dOnjx8/fvjw4f379+/iFQwEA8FAMBAMBAPBwNwMrHw28+7du7/iFQwEA9dh4I8//riOswOeBq4BsiZQjXhNEIQBF24Qr7jNDMQ7VIOB+Rm4QVUySQ5cJi3TCiNe04bGdOwG8YrbjBnZEAYDV2XgBlXJpD5wmbRMK4x4TRsa07EbxOt1bjN/vn3z5u2fJqdbhX++ffP0/PLXX9j22DnAjZ5tQycYOJCBgar08vy09zk8DtgAriEnXpuEflzXqlf9uIbC9erKB+F69eAehOuvl+f0YD4jbqO3mZfn8ovfsgN3ifqyFZfauRa5JgGG5eeXcosRtxlD+ekJS/iaGxVN9IKBqzBgVyXzmW0I4fw4L37AgQ77dKXlWvlR/kxc2l3zemY4WvSGSCirHkVT13NcLU+vVa84rtFsEXUc6TKChVNntQoX3bj55LLOS0moVw+uwKVPFi0Lxe0MvpW1bUooeQ/3N9xmBuuUlZYrkYMlgi4DKGcJt8FWLrDkK25IEzEOBi7AgKhKi8fmY8AUmhCt42MqJiE/mr7e0IzGBTVU1glwVL8XlEBF9TWMSNGQq0PKGhddTj2/Vr1q4yIYzWxxEo7SQUyc2fVxpdyrb5bXnaJoXj24Pq4xIKAtztfglWF9P0djxttMTorVcsIPAWY/thKvJX/1BJJOxjgYeJgBuyrRwlm2MIVllnas40PneZ8fTT63eaRwOd5brkpVOqb9xblTC4PCxRii3p3qFvNiy6CNi1g0swWiaL9WHwzE9BFdE1d+fGfXFtfXH+EsnmxwhN9rNj1clG/rbIFdmqVybIZ3zZlt8xtuM3aOqTdJ6A/EWQa2FbllrqWSTXOWkGdscXtsR93AddEGA9diwKxK6d2SPIaqCPlAvWNlrhhSNi1YQo0rPUIEKNhb1RsFlFZf2l/2XS8+loMbZRoXNUS9O9Ut6sSmfhtXNWlniy1VgaxmTusxXCndzI9j/Bn0lEN89eAyXLaP5fscOI0tzVKQ0TF/TuOKQ9oNtxlRPlbcykEVa9zIsQBTSvQuoEqujbgSW7EAxKrKuW6IxTEMBq7DgFuV6HHJcNonjEIeOirOGaT2NvR9XOz9FakJdRMJNL+VLuvkmlwtyjTtiEpWt9jc47iEZ7B18W4oCJv92Wshx+VbtbPFlrLHpG/y0JleXGtOiJx89eAKXEYi+udAYIEw0df+h8Ym9+jbDCTlmzf5vxtVD8zIpRIicKfl5v9+Str1oKdbIxIojPyV/6dTpxvVy+gFAxdkQFSlhACqzfOz+o+ErAiJCoSHSbb6cCmOzOOttEYFFq5eGwyofu9Y7guGvcPfWnJc0lPq0TG80h327HNcvmUbVa7vMvlg3AqWv8t+M7242jsCPnaUbBraRnadfQSXUTtKmA4/QJWFDbcZK8OSjAUnb7GcTXlEZeQSGQV++qCqGst5XcfJcqKImsHswLZCrMVrzQ22JgbBwCUZ0FUJz4SqK/JACLyNaaN8WXVBnFphf2xIcA3vbiwo5YahNBRPxFVLlUkNrXemwlTCR+I1FRDhzB64IM3E2Xj14O6BS1CVhqrqWEr7yEZvM3TXVTdJnSDd/FFJKSbUIvbXLJfIV0Ws2NiiKV4gxtwgNqIbDFyEAVKVksf0RNTzkqb4cVD4VqaZPt2FTew2kLj2MjyCcq89qR2Oq+VNKXt0+bR9jou72cqWV7hQcudWRi1c8E8s4pairQFA/fh79eA+jEsjTZIeSpylo+LjbjMyZvQ6uha5NgHswOMAzwe2SMQjbqCNaIOB6zDAqxI9doCBjfHwEHD0/BjTRJN36To+s9eI4/LfE7nFxYHji8WnMvoJtAs0jsvxJu3kItvFj72NcFzc+li2tDjhds8YtXCt3mYAuH3fefXgKlzJV3EG8tA9CXqJq3pEqI66zZgJWIRrkWvdZooRpCML8Hxgm2eVMoiLcM0N3CHaYOA6DJCqxA8DQij5X08CTvHf0q6Kdd7r2Vt52lvkBFde7hxfR0zOPd/dQAlg9DNHvjHiZjaPOC7YxHilh4KLbPPeRy7kuPhO69lCo0L73M5rjCSulCxGyEDEP6dh7ySk668eXIkLvopq3UUccX6jpBYcdGgke3ncf5txjpkMI4+fvangaRfLeD6wdXZmYjcuTCsGwcCVGFBVyXfeeEzQ82NMu7boOlfpoQmFC7a0X6qmpo274bhYWu+yNmNTuFxL16pXLVwuwwU7DRbtF4VX67RwUafWMVJt8UxkU+cMFC4n3Ryx9dYoOX5i9PpvM3tS6hHywB6YO9j2mDrAjZ5tQycYOJABVZX8vYxCM3J+qOGt66iNdl/hco6vI3Y/mzF2BTDifXX+1Mr4voOxfEykcLnLXWTuitecaOFazxYjNV8TDNm7hYuopf9l2/XePi969eAqXI5Hjvhan83QQD3adwnZbhjPB7Y9lg5wo2fb0AkGDmRAVSV/L+ORkR7k9ice6vlODY+cO7quv69w+a66n804wKxLirZuW+0H4GgqXI5euk8d5IO75QMTLVzr2dL6wH7gjvCA/97SFi66Zh0j1Z7zsxnnvLhZeNqhYdSVwet8NlO2j04wEAzsy0Bvtd131+OtBa7jOd5zh4jXnmweb+sG8YrbzPFpEjsEAycycIOqZLIVuExaphVGvKYNjenYDeIVtxkzsiEMBq7KwA2qkkl94DJpmVYY8Zo2NKZjN4hX3GbMyIYwGLgqAzeoSib1gcukZVphxGva0JiO3SBeTz9+/Pj+/fu3b9++fv365cuXz58/f/r06ePHjx8+fHj//v27d+/+iFcwEAwEA8FAMBAMBAMTMxCfzZj31BAGA1dl4AbvsUzqA5dJy7TCiNe0oTEdu0G84jZjRjaEwcBVGbhBVTKpD1wmLdMKI17ThsZ07AbxituMGdkQBgNXZeAGVcmkPnCZtEwrjHhNGxrTsRvE6/HbDP5IELYmUw8Jjd/40vbE9mXYtTiZO+Rny7WjB0r6sV7tl7gOJO12pjuqEp4ObPfnYCQVO3e3cAkAZdi//eufegtXJyVTq02Bqz8RVv9gJJK9Ny50EVvc5+y2iWv7MSlncj88yBS2xfLAbQbcEi/4TUD0FttiuvVrjuoPci2rlH8gN4Vlm6Ujti9DvRim8EV/1NAMGFXGRbmlS6UzB47l7xcXoJooOwCL39LOgS6H6VMZoFXJSN+JzuwYLRQXrqTZn/+qdv7B4iudegsX4rtya+LSCWnWUbt0lQLMfwxY26x/lkImgjZc9u+t/wKXtljchA53NcVT+IRDbF8r5hyXRSoFVmhbjh2dW/oZujii+TFlaBfRA4wN3GaQZeEeDrFFNd5CzCkBfLaMzIiawmWJnUvPL8UbsZj7AVrFKy+bi0LxsqcDpllUcVH1mBv25LhuaeUtpADVt5mykuqgUNpBebRXZ4BXpYxGZAAOsbUh87Ni63hZJ46du3hgguCqZwXPGLQTnPoBOEWV4CqyO3Q0LiuhIAWtRz5hwFpGpvXfBCCVvJ2HLP/JKmpd9TWuqgIGeVmvc6UnfMIhtkXv5E4LV68rxlOFcazt7MrYObeZFKiXt29W0tb5GGZLmAuHbHGRFlaJxMxmIzxlbaMDB3C5Y8IO2E8fZC3Z3iXXW0iHCAD3QyyqgxalHZRHe3UGrKokMgCH2FqQzz+zlhdEZuEi09AteF7n1AtvOocduDotzaWmcLGgVF9L0KqI9tbzUJUyUsmdPfMGfJKsqvuDc+KlcElt48OFqqKv/+gFtkz3xIGFy4DfvK2R5x563g5v3mAvxjbcZoTH6C22iGJpQbs8zOF5S0ZCdfkQSkFbDXOmJCUdXoyLN2yxynt6f/KyGU1qbz1J2Twr1GHtwUwd1R6XGxuAauNlOisilqwaVBi7heh6DFhVSWQA5hu2AiQ/pXwkVDefWW1nTSJxkZOAWV/wvMapX/Pfm5e4PL2ryTUuyCQMFaJJUVQlP8/yzOMjXJ/rKLdKKjlLBLLGyNtkH0orNWaUSY0L7abNVt+0vzy/eUPf15d9+c5o9LRW4QLHKBfZk0bAYOrNmzd8TTmTFpCdGRu/zSQ04HDq5AcrZKPwGmNkJKo/VWwz5I2MBD0wh7uAgURm8YYtLtJin0jQLRZBmHdeuGexVTpsz+xhjjDZ7YHbDMsWalLuuziUMQh3jWNa/I/OlRlQVSmfzZTWJJ0hH2jyLCcJkl2kCpCBh0NPJZMsJRd9JXuQVI5rvlO/FR7HtdXKfOtMXCQBl7JqpImfbGYeqlK2fptJbohcJqsqmcr2X3+ZuOjbYvZEqqZyL+9CzWLVxlauOGuscNEjVp2wqEuzqA4KhFoxrIaAJgw+riWzpTvA2PBtJoGhBQ+9xbZ4Md4BeM/P4m7H8sSwKZJwyZPFzXRikDJYDLTVMWiVkTCkt1pVwCWSihorsiHp5sfK4giTo8Xa0nMAUroXSY+6IGnwdwPLuoKcKEf38gyoqpQygF1SMGmwfQDzpjO7aT+GS5zFGU79JlB/uU/HreamWcfiJb0S8ZPTQ2PIYvnCx6lREqEa16pfdzJdMmxrXEkJd8wGk0gV2PogyFX57Z/kva7hanXuhJ7GtbwNEtwqVPhmp07QpywwwblZnlpCugdjo7eZ7BslHr3FdjPvaEBlFd1NWxfqpK4lDvVi2AdfNQDpokNZT0mPen5LlxTn0hY4kw3hCB8t6kAVt6hPxWLpFDXiEtrWWOthkXPyVlQ2iM7FGVBVCVLm+YUmQJbwq/Am1GhIHMK1dyCb9mK4xIZTnPpNqOI2s5G2Dcty7cRqKQ2IlJLTZSzzkFVyZoTvh2elGFoEeDCxLfMndxiuob3JJa2sKzIJOz0OyTNuT8bGbjPgWXKEuIhdbBOe/AQnD1y7SxKLLmcAVytj4W2583EH+3NE7Frisq1TGUj/1SKHD0CWQJIB6bLPaQa3NrASEelmpoong9uE+tQMiKpUcgs6y4HDLrYJT81Y+7Au0l3O7BYCOa45T/3juLZYmHMNiddQag0pF+j+qo1lzjVIcJXdS2ffh0gxe0aH4HKx88pASoHvIKsxhtqejI3cZsCvkhoAOKFBb7E1HAZR2+libVnNxvwxbNmv7KN/xRu9uEwJS66H1ToGE3cRFrwhWpa+oCee3LPnyaUdcJy6SlmNz2Y8Fq8uJ1VJXI1L/DHxsHUgY97a08XaMs3GMhVtE0NShgtWwob5hUle8Ojty5TY08VYrctdhIVHhwrXowYnWb8fLjdG60h1Itj/fJJjbD+eRals4up0FbJRvOy91xHuptHE1bOLjd07eGjRXoWzpe1irP82o7xaBCjHtuzPOw2n7ZU1D2uPm2yNik29uEyJ9aaHoIzvaKs+VDqsoFXq9Op+0hec8eSOQfdfCLgdPlpsFaE4ou5WMXE1BkhVwgQrEBYByrEt87xjnoisYq8s2UW/4cdtbh8RXJ6R4lV1BFXLFAqW1sQIyg+eerFNY9iBq7F63imFSwel03kzRmKtvnzibUEVaqf0ubsIfYWLeuIaqUqnJlfddrVn4TJZ9e5dHdgNJzpWdTPWf5sxHEkiLBPYOnodTjsrN1XG4o0+QmXK24/IXd0VOC9v0xe8ljeQ5TyxWxDYXkqmJyeesK7rFtNqDsQRberG5JUYsKqS8B/zB1sxjcOVJEc1q9XHztIakg3gMkrGClTmiav7ACFsAzbowMX0rzJQuDbnRA/tPToLc07pcy0IfYLLfNjjLaq27PHfSq7yoHiNGBNcaXtw1HLIk8OhY0gtEMcyFrcZi/Mqg9CpGCWhFei6rkZNBLhOcLuevJokPXBA2CWzXV1xRLvWhNIVGJBVyfAZ8wdbQwVEPeXJX9o+IM66hngA14O3mfxNfXnAOk59w3t/qgOXv3jiGYXrfreZTeynPJLJBRlr3h02bbFpkYwX+GmdYU/+SLloO9zN2C96m6n3Zt6zolf/F1LRNdXaEdl1NoW3eMM76pzYO8dtxubl+lJZlQxEkD+QJ9gaKiC6222GH5Q6Mo+zPmOmmkPdgLgjXgPW5lFVuOgbtkp+6rWp7cnDAeM6suiNXTtFqVS4NlCuXWgzsGGL4SUWLpNVmyX6PTbks7Tekn4nuxh7/DbT71BoBgPBwOEMWFXp8E1P2CBwnUDyjltEvHYk8wRTN4hX3GZOyJPYIhg4j4EbVCWTrMBl0jKtMOI1bWhMx24Qr7jNmJENYTBwVQZuUJVM6gOXScu0wojXtKExHbtBvOI2Y0Y2hMHAVRm4QVUyqQ9cJi3TCiNe04bGdOwG8Xr68ePH9+/fv3379vXr1y9fvnz+/PnTp08fP3788OHD+/fv371790e8goFgIBgIBoKBYCAYmJiB+GzGvKeGMBi4KgM3eI9lUh+4TFqmFUa8pg2N6dgN4hW3GTOyIQwGrsrADaqSSX3gMmmZVhjxmjY0pmM3iFfcZszIhjAYuCoDN6hKJvWBy6RlWmHEa9rQmI7dIF6P32bgZ206fonLJLBPuPk3JPvM/4paI5SKH4/6Fem6FOaOqnTJM9uB61JxQmcDFzJxQDtQ6Hp+ow883Dte6CK2B7DQZXIHXFhX6H4HPD6QKWzLdgO3Gf1rfOmHjxEBtsW0+TuC5dcB7V/mV/6BNVNYtikd6Z/364pSr7pkrBhSLq5M0ZFpRAMkKLVDtdAh7UwBLpxwGaBVyUhfiCqmArbFlp0I5YSYP+kpcinbMoVlm00diqsakAiNM5yUpV7BZP16+5By9WVbz8a1zdZMq0xcmlkzYEN5qG3WPxoj81AbLvubtxnDtsClLdbUeqqOkMgIn3CILdE8tStwtf7WuP3wtn9bXD8+jmNs4DaD1EKASVnDIbaoxltAUPKGT9GRGVFTSFctxHP7KQ+5KK/R9HJbbDSkjCuNcBVHkls53wmJuDL/PHRRrmLVWydFuk4D5K2mOriltIPyaOdkQFWlv1SZwTBjawM5+Mzam/pSjQvcF1XFEGWLQ1k8pOx73DejcfWtm11L47ISKgXMrIQFn7WsTObk5hWT3Eu8QpfXs/wnq6h11de4qgoY5L7UudITPuEQ26J3cqeFi7rCSIOJFEJ2hUuDhYeVs7QrY+fcZlKgXvgtiBJU+mZETWFZstBp5ZDN1Aq91HCKlGWZK62MiP9wMJejm3JAHuOcGO0ds86TrOPKCYkT1uF+xCW2jurghLSD8mjnZMCqSiKuOMTWApJS5Lgza23Zlklc4Lx1Umz5UBYPKbe9Xp+VuNZXXEND4XKKTisJ8ZP5Zh6qaJF7ibNnZpBPklWVYHBOvBQuqY1Ftsp5j29b/ulBiPmaE0YNXGx3RXedtULZUC83ob0Y23CbIU9kwIEIsK3YUg+0y0MUIkdGQjWnblXG6dUwuwqmT216cdOlHVIWa/OQ+EC6MCeGi+D52azRaBsXuZhR0bsy49m0HgQpPjK1HqeguBSdExiwqtJ8Z3acCInLPQF4RNgWQ1k8pMy22TCQuDaYmHKJxgVZKMsOBEuX/AyIPy34iEBW0SL3EjdJ8qfgtNYl+1AdqYvKdut7M2mz5sULvH55fvOmvq/MfixFme5MAJ7T1fGy9zUoQUWgkFIK8oZ6wv7m7X6Mjd9mUvoB7amTwwAIRA3B3JDglisLrNNTxTbSk9pGRmY9WGYlgi1PmyzpIxrHI6G1DLUy83oZUOdpH6b5ePGWCy2TSbauJtMI7KPPzupMDSote0s7rksxMQUDRlVKcZ3rzI5TJXEt50UZsuU5tc2TLPK9vGPsVFYODAokrsHl06qbuHQYjMI9+OxQBWr9NpPcEHEnqyqnyrZ7myEl1Xqoo8m8CzWLC7FFzbNbM16GE9R3Pp3jlmnFGMIhMkIMCwngnRgbvs0s6VgzAQQwwpYDHBoBvOfnNxI8Qe2ZS17xdYbIW90pN9O9vZaTwkf5Vo5EwlwC0IEW9lxXk1lHd7dXJx/Y+wbYSdppI47Z12ZAVyWIK3v3gKmA7QMuQyZtO7Ojmzq4Jjz1Y8g0rrH1s2o3cW2opS7OJb3Z5RPLqlHo0nOWZ00ybbpk2Na4khLumN1MIrUJeWiDQp5HF7F1cR48QXDRqwijlQ8Y5AVQxbW4az4+Ej1sef5w5EHGRm8z4MbzCyU+S3a4zaAhlVV0t0ZEE0OEbsVM+ncUouB1M8tbIiq9Q0goTy5iEPMGeUQUO9Guq0k+AC7Z26QHhNKymY6IKNrpGCBVKfuWk4uGFdMN280Y0MDWMzuyscKVFoMH9GWmNVXw+vud+hFQB/yP38HtD1O347VspxLmMDeI4ZwrWAPJROr2usRwpSJOco4Z4fvhWSn7LgI8mNiW+ZM7DJfcm+GSk/kmUh4uCXbhRD4+jmRs7DYDfiY3SWSwi22COn4VoMsFdWNhFosV8ycKKCbctjLz/IKBZgDpoCrXi8hiiKqh7f7WWE1EpBufzfSTOommqEqQhLOf2S7mBC6+ZqJTzx1bHzVxrS+fVoPgonXMu02W91pDygW9v6o8V4tuV8c1SHBpQ3fNwxYuYEqSDLLyRl1OMtpalplix2DkNlPqItgt7uIjG1tn07bTxdqymo35w9WxX8TtjYh9fqwajIMz/NVQLn50fFqVXQXijJf3FqIi6POCOFS7klKASM1R/vHOVVdHb2YGWLW9xpntopPhkivmOfXSs9VxE9fq6nkV9sPVFVybCFnoQMspuOU6JS2JAtjE1emq4cJKvZdO7T82cWlH6WOCOQGqBgjBHlsCgz0Z67/NKGcXAcqxVe5mQcNpe2XNw9pzbDNxY6OsB9tp2uXzfLE5pMz8SIfGiG5RsmGrf+gp+rzTSUrXJqatIlxLR+5XjF6bAVKVVPQXAcqxdVxuHCV7ZcmZ3ix2NjbFBJeeb7ialcHhM069dm1N0sS1tnjieYWrZseg16vBXd5dG+8Jre+gOgXN3UXoK1wUjWukKg1lYl12eE/hSo7Ky4spTL7BjPG8E+wpGHsy1n+bUW4sAgSBraPX4bSzslkZ9ecmZkoTll0/LQ+HlLn/5tKXt2//zGrO7ann673JQGdpML3gjq6N1tJxbX3Mn8uAqkp6e8wKbLVGklgnwlGV4s70lMtaY4Jr3lPfAuDMEVyOxjXFCtfmnOjJwx6dhUenoLkWhD7BNZ6HjU/sN9OzU3oQXNmiR4gjXykmxab5gBZC8rweYezqt5kNkQTW1SUyCeU9FD+VZNyi0FBmztjJWZJ0hO4AACAASURBVPNfGsXF9jqcLW2nWleKFaNmRxxmUyeE8zCgqpJ2DbMCW62RJE7ZcrSZuDM92ZqVQQeuhoV0wOWZS0LjIA8pNzbtmnoMV9cWr6KkcG3OiZ487NFZaHAKmmtB6Ctcg+yayQVv2dm/9Q8a3UFd4TJPhylMu8OMPGA7uIXPW2XaYOwXvM0Aw/VSgZdCo6ZhKFIAUS+1DWVcNEmrfa9AVH7YPovDbCuFdBoGVFXSnmHhwVZrJIlb3x19It785CI2RLcDl1ghh3Oe+sdxSZxzjBUuTX+pRe2C2pOHA8b9mmhXRFEAFa4NdGsX2gxs2GJ4iYlrwFGtWsK7wy1HWzcYe/w2M8xaLAgGgoHjGDCr0nHbnWY5cJ1G9S4bRbx2ofE0IzeIV9xmTsuW2CgYOIOBG1Qlk6bAZdIyrTDiNW1oTMduEK+4zZiRDWEwcFUGblCVTOoDl0nLtMKI17ShMR27QbziNmNGNoTBwFUZuEFVMqkPXCYt0wojXtOGxnTsBvF6+vHjx/fv3799+/b169cvX758/vz506dPHz9+/PDhw/v379+9e/dHvIKBYCAYCAaCgWAgGJiYgfhsxrynhjAYuCoDN3iPZVIfuExaphVGvKYNjenYDeIVtxkzsiEMBq7KwA2qkkl94DJpmVYY8Zo2NKZjN4hX3GbMyIYwGLgqAzeoSib1gcukZVphxGva0JiO3SBej99m4Gdt4FeHsDWZekh4wC9xPeTPtItHiBI/CTUtpnBslIGOqoRnFdvRLdb1R1Jx3VrS6MDVaWkutcB1YDwG8rDnN/rA073jhS5ieyAbTdM74LLqyQEPGmQK2wJr4DYDrooX/BwfIsC2mG78OiOYMX93UfkH1kxh2aZ0pH/GbwUmXalXMRkrhpSLKwd2ZHJQ2gVRdgAWkNLOgS6H6VMZoFXJSN+pzuwIMRRXXScRGmc4KUu9eU69jasivGrPxKXDYAbMLl0lZvzZoW3Wp4soia0fgTdvM4ZtgWvI1RRL4RMOsX2teAtcrb81bj+87U809IPmOMYGbjPIMgSYpBMOsUU13gICM2+VmtbqCHNKOr7SEOW9NL3cBzYaUsaVRriKb8mtfCwJiexvLTA52sRWOkRp94iiOp4dlEd7dQZUVVr+0glJK0wIbG3IB59Ze1NfqnGB+6KqGKJsUZ4bf59MVzmwTcU9JjWuPay+vg2Ny0qoFDCSmobf1jKqpkJL7iVeSczrWf6TVdS66mtcVQUMrmaO8AmH2FZr5/ZauKgnjDSYSCEsN83SWXhQ0aG28uLdGDvnNpMC9cJvQRzUMjIjagrpci+HbPkKvdRwInuVa75Cj4j/cDCXo5tyAI/xn2/fviwLV86u9B7MoBWyEfOC6uCEtIPyaK/OgFWVRAbgEFsLckqm486stWVbJnGB89bZtOVD+T6k3PZ6fVbiWl9xDQ2FyylPrSTET+abeaiiRe4lzp6ZQT5JVlWCwTnxUrikNpbjKuc9vm35pwch5mtOGDVwsd0V3XXWCmVDvdyE9mJsw22GPJEBByLAtmJLPdAuj9v8QV/Dd2E721oNs6tg+tSmV7g/pCzW5iHxgXRhTgxxtSNepmG28bLKe2Jdkv44MPQ32rkYsKqSOFeYYtgKAGecWbFlx1DimvrUd+BBFYkL5VdvNS7IK1mgUj2TxWmB3pmHqpSRe4mbJPnTcLpx2g1KK3VR2W59byZt1rx4AbCX5zdv6jtQ9qk83fn08Ot42S4YlKAiUEgpBXlDPWF/83Y/xsZvMyn9gPbUyQ9WQCAqI+aGBEf+gLWeKraRntQ2MjLrwTIrEWx52sS+EDge9Sozr5cBdZ72YVqOCxoLzGJPJgegQbdte0ugUMmxs4ijuTwDRlVKKT/XmR2nWeKyT3cuRPoAnXvqR9BJXCNrZ9Y1cekw6FDl97z0TXCFaT1WZEmE9VjtWiURdRbrZFXdT9l2bzNkJ+uhjibzLtQsLsQWNc9uzXgZTlDf+XQOTqYVAyWvh2QFAbwTY8O3mSUdayaAAEbYEndHuwDv+fmNzG+C2rOYvOLrDJG3ulNupnt7LSeFj/KtvBKZLYEOB8J3kLlEbdpEJYvs3QBYlHb4LjG6LgO6KkEGsIcDJg22D4DdfmZHN3Vw8cOSoHLR6D5Cf8OpFxZWhhrXyoKLTDdx7cnqkt7sPSeWVaMkpueskSKmS4ZtjSsp4Y45OnYekoc2KGQn0EVsXyu8BBe9ijBa+YBBXgBVXAsO80GT6GHL83tuFZYxxkZvM+DG8wslPkt2uM2gIZVVdLdGqBNDhG7FTLnzEyWrm1neElHpHUJCeXIRg5g34CP2zMFVrJUoAQCxYYIGoSTRTDK2UwyuyQCpShlAzkKaAJiX2G4Giga2ntmRjRWutBg8oC/zAFAFr7/fqR8BdcD/+B3c/jB1O17LdiphDnODGM65gtWSTKRur0sMVyriJOeYEb4fnpWy7yLAg4ltmT+5w3DJvRkuOSk+/U+wCyfyQXMkY2O3GfAzuUkig11sE9TxqwBdLqgbC7NYrJg/UUAx4baVmecXGehKnXfi0IrdGkQREenGZzM2gbeQiqoESTj7me3iXeDiayY69dyx9VET1/ryaTUIrlr0vLtkkj9yofS3KM/VMaZcgwSXtnjXPGzhAqYkySDL4TQfcoS4lmWi1tUduc2UugiWi7v4yMbW2bbtdLG2rGZj/hh27BdxeyNinx8sGY5iL0PtVibrVhhJhq1ry+o6sgfrSqKARYqLsrqWZMxwDC7EAKu2kEslBUr8McOwddC1j1KxtqxmY5mKzg4jYoZLLmy7SjzsPsgAh78Kj3Lzx8ZNXI+ZftXV++HqCq6N1cpDyHr7ZVVj9Y/yTVydrhou2HvbqA6Rmri0o+4pcIrJ2oNmT8b6bzPK2UWAcmwdphtO2ytrHtaeY5uJGxtlPdiu/ONMWQrFywjUkHIxljo2rKrjzrsTZa2jwYnio2VtEa4lWdkrOhdjgFQllSeLAOXYOggbR8leWbJL/cOms8OImODSyxquZmVw+IxTr11bkzRxrS2eeF7hqtkx6PVqcMl/LdHXFFXVndLn7iL0FS6KxjVSlYYysS47vKdwJUcle6Yw+QYzxpVMsKdg7MlY/21GubEIEAS2jl6H087KZmXU76B0OpNvlvj/L9r+pMQFtQ7HXPry9u2fGSa7Pb081zSAdVZWUHZM21Rhvb+WZOsWQmNOBlRV0m5i/mCrNZJkPcmdhekwyTro6nZOEFzznvpOLFSN4KLiy/cVrqNvM7WGtrlzSp+b7UKf4BrPw8b3SzfT00bbPUtw5TUeIY58pZgUm+YDWghZKF3DirGr32a6Y1UVgRx1XUhCo/4OKdc93P9+XfNfBQwDanjBDLduZFLRH4sj6ivGzMUYUFVJ+4/1AVutkSRO2XK0mVgVGja7adCBq2F36CAPKTc27Zp6DFfXFq+ipHBtzomePOzRWWhwSp9rQegrXIPsmsmVvrnRUfkH9xpRV7iSo9InU5i2gRn2UBvZvKnbzdgveJsB4uqlouMOkchEvdTKEDdjccCk9qi615lQ4oge4GSYfB0GVFXSbmDhwVZrJIlb3x19It785CI2RLcDl1ghh3Oe+sdxSZxzjBUuTX+pWu2C2pOHA8b96mnXTlEqFa4NdGsX2gxs2GJ4iYlrwFGtWsK7wy1HWzcYe/w2M8xaLAgGgoHjGDCr0nHbnWY5cJ1G9S4bRbx2ofE0IzeIV9xmTsuW2CgYOIOBG1Qlk6bAZdIyrTDiNW1oTMduEK+4zZiRDWEwcFUGblCVTOoDl0nLtMKI17ShMR27QbziNmNGNoTBwFUZuEFVMqkPXCYt0wojXtOGxnTsBvF6+vHjx/fv3799+/b169cvX758/vz506dPHz9+/PDhw/v379+9e/dHvIKBYCAYCAaCgWAgGJiYgfhsxrynhjAYuCoDN3iPZVIfuExaphVGvKYNjenYDeIVtxkzsiEMBq7KwA2qkkl94DJpmVYY8Zo2NKZjN4hX3GbMyIYwGLgqAzeoSib1gcukZVphxGva0JiO3SBej99m4Gdt4FeHsDWZekh4wC9xPeTPtItHiBI/CTUtpnBslIGOqoRnFdvRLdb1R1Jx3VrS6MDVaWkutcB1YDwG8rDnN/rA073jhS5ieyAbTdM74LLqyQEPGmQK2wJr4DYDrooX/BwfIsC2mG78OiOYMX93UfkH1kxh2aZ0pH/GbwUmXalXMRkrhpSLKwd2ZHJQ2gVRdgAWkNLOgS6H6VMZoFXJSN+pzuwIMRRXXScRGmc4KUu9eU69jasivGrPxKXDYAbMLl0lZvzZoW3Wp4soia0fgTdvM4ZtgWvI1RRL4RMOsX2teAtc+fOJQjnv8AAUj4EtOaUfNMcxNnCbQZ+FyzjEFtV4CwjMvFVqWqsjzLC5sG+I8l6aXu4DGw0p40ojXBVVnawyWJj8TTnD5Wh0aaVDlHaPKKqD5qQdlEd7dQZUVdJ/2AsTAlsb8sFn1t7Ul2pc4P48p973vD2jcbX1rzKrcVkJlWIon4AcorWMaqhSRu4lXknM61n+k1XUuuprXFUFDDbLN6gKn3CIbbV2bq+Fi3rCSIOJFEJ+24HRwoOKDrWVF+/G2Dm3mRSoF+PixpGpQOfp1TB7OWTLV+jlLg0p86VlRPwnHqUcwGNM5OntA8qLjdKRDsFK1CYbFX3oUB2ckHZQHu3VGbCqksgAHGJrQT74zFpbtmUSFzhv1UFbPpTvQ8ptr9dnJa71FdfQULic8tRKQnz2N58dKlrkXuLsmRnkk2RVJRicEy+FS2pjOa5y3uPblsuNEPM1J4wauNjuiu46a4WyoV5uQnsxtuE2A1dlsj0iwLZiSz3Qrup8JFSXvwZJbGeF1TC7CqZPbXqFT0PKYm0eUh9on14yOKVcSxiFycbLKu/m/ehxYMKxGE7CgFWVeIKV662TafyU8pEGKWxnBfdI6vW9EonL3cJENZTvQ8q9/nt6EpendzW5xgWZIgtUqmeq5GesPPP4iLChokXuJW6S5L88TDdO9qG0UheV7db3ZtJmzYsXeP3y/OZNfQea/VgqOt2ZADynq+Nl72tQgopAIaUU5A315dOL/Rgbv82k9APaUyeHARCIGoK5IcEtVxZYp6eKbaQntY2MzHqwzEoEW542WdJHNI5HQmsZamXm9TJgzsPWdVkZlc6yRo6pXZkcVJftVReBimJb2qnq0bs2A0ZVShkw15kd51jiAlCznvoRdBLXyNqZdU1cuRbRgmqEcPDZoUrZ+m0muVErcaKRrKq0KtvubYYUX+uhjibzLtQsLsQWNc9uzXgZTlDf+XSOW6YVYwihNkIMCwngnRgbvs0s6VgzAQQwwpYDHBoBvOfnNxI8Qe2ZS17xdYbIW90pN9O9vVaSAuPFTdKVAOUquofMJaor7eR1aSP2bgDk0g7dI/pXZkBXJcgAdp/FpMH2Abjbz+zopg6uCU/9GDKNa2z9rNpNXBtqqYtzSW96RSrvGY2SmJ6zPGuSadMlw7bGlZTqExGsJZHahDy0QSHPo4vYujgPniC46FWE0coHDPICqOJa3DUfNIketnwXxkZvM+DG8wslPkt2uM2gIZVVdLdGRBNDhG6VS+lfXIiC180sb4mo9A4hUXlxs/onAYJKnaWLl2MiPMe0kHbSykUo58wk41vF6JIMkKqU/c9ZSBMA8xLbzTjRwNYzO7KxwpUWgwf0pc/N0EEeUh7x3te1cfn6V5lp4lIJcwaqnCtYLeWOvS4xXClfSM4xI3w/PCtl30WABxPbMn9yh+GSezNccjLfRMoNMsEunMgHzZGMjd1mwM/kJokMdrFNUMeLAl0uqBsLs1ismD9RQDGlbUFAwyxu5+iaWocTK61BFBGRbnw2s8LkladFVSo5R7IKu9gmuK94ZrvoFrj4molOPXdsfdTEtb58Wg2Cayi1hpQLen9VKbhFt6vjGiS4tKG75mELFzAlSQZZvjbK24zkrGVZ6q6NR24zpS6C0eIuVkRsnR3bThdry2o25o9hx34Rtzci9uk7Oh2OYo99TWtZI2NHlElXMSKBoAK2uFaOUb7WSvvAInWVsrqWZGt7xfysDLBqC6lUUqDEHxMMWwdK+ygVa8tqNpap6OwwIma45MK2q8TDw0+99Gx13MS1unpehf1wdQXXJsLKQ8h6+2V/bCNKZRNXp6uGC/beNqpDpCYu7WipJtIJp5gI9uQquEj0QNeOGMv6bzPK2UWAcmyVu1nQcNpeWfOw9hzbTNzYKOvBdpoJqMVGoIaUmR/p4zceJwmkAOcTRcztkZGjwc3w0bK6CNeSjOwW3UsxQKqSypNFgHJsHXyNo2SvLNlFv+HnGB8WE1x6bcPVrAwOn3HqtWtrkiautcUTzytcNTsGvV4NLvmvJfqaoqq6U/rcXYS+wkXRuEaq0lAm1mWH9xSu5KhkzxQm32CGP+9QLG0wKHsy1n+bYS6QAYLAlkzRbofTVJ32W6cALiEdL8Ky66fl4ZAy9dn+HhG7MoFtDD/0MeYtuMsWrlvchdZIHNGWasxdigFVlbT3mD/Yao0ksU6EoyrFHUksl6yNCa55T/0aCGOe4DJmrytSuDbnRE8e9ugsXDqlz7Ug9Amu8Ty0nwvJsc307JQiBFe26BHiyFeKSbHZ8bjGx2Je4xpWjF39NrMhkkAOp8v9DvrypVtyF0r7JQt4+fA8UFRnRXoAmN06wcSmeTe+prYpFEfU1AnhFRlQVUmDwPzBVmskiVO2HG0mdrKf6QwOOnA1LKYzK09WEhoHeUi5sWnX1GO4urZ4FSWFa3NO9ORhj85Cg1P6XAtCX+EaZNdMrvTNDSMTB20/oq5wmafDFKZtYUYesEf8qWu7GfsFbzPAUr064E2xkUmJTNRLbUO5xuDAnvaouteZUOKIHuhsmD6XAVWV9PZYeLDVGkni1ndHn4g3P7mIDdHtwCVWyOGcp/5xXBLnHGOFS9Nfqla7oPbk4YBxv3ratVOUSoVrA93ahTYDG7YYXmLiGnBUq5bw7nDL0dYNxh6/zQyzFguCgWDgOAbMqnTcdqdZDlynUb3LRhGvXWg8zcgN4hW3mdOyJTYKBs5g4AZVyaQpcJm0TCuMeE0bGtOxG8QrbjNmZEMYDFyVgRtUJZP6wGXSMq0w4jVtaEzHbhCvuM2YkQ1hMHBVBm5QlUzqA5dJy7TCiNe0oTEdu0G8nn78+PH9+/dv3759/fr1y5cvnz9//vTp08ePHz98+PD+/ft37979Ea9gIBgIBoKBYCAYCAYmZiA+mzHvqSEMBq7KwA3eY5nUBy6TlmmFEa9pQ2M6doN4xW3GjGwIg4GrMnCDqmRSH7hMWqYVRrymDY3p2A3iFbcZM7IhDAauysANqpJJfeAyaZlWGPGaNjSmYzeI1+O3GfhZG/jVIWxNph4SHvBLXA/5M+3iEaLET0JNiykcG2WgoyrhWcV2dIt1/ZFUXLeWNDpwdVqaSy1wHRiPgTzs+Y0+8HTveKGL2B7IRtP0DrisenLAgwaZwrbAGrjNgKviBT/HhwiwLaYbv84IZszfXVT+gTVTWLYpHemf8VuBSVfqVUzGiiHl4sqBHZkclHZBlB2ABaS0c6DLYfpUBmhVMtJ3qjM7QgzFVddJhMYZTspSb55Tb+OqCK/aM3HpMJgBs0tXiRl/dmib9ekiSmLrR+DN24xhW+AacjXFUviEQ2xfK94C1/JXfQrnrMMDUDwGtuSUftAcx9jAbQZ9Fi7jEFtU4y0gMPNWqWmtjjDD5sK+Icp7aXq5D2w0pIwrjXAlVJ4c1iV3c8bIfECzqZUOUdo9oqgOGpN2UB7t1RlQVWnJLpJWmBDY2pAPPrP2pr5U4wL35zn1vuftGY2rrX+VWY3LSqgUQ5KaBjprGVVTpYzcS7ySmNez/CerqHXV17iqChjUD7A6n3rCJxxiK7RPG7ZwUScYaTCRQsguO2mw8KCiQ23lxbsxds5tJgXqxbi4cWTOxzCrYfZyyJav0MtdGlLmS8vI85/I4cAuRzrlhn+8pUOgjtrEYNkcOlQHJ6QdlEd7dQasqiQyAIfYWpBTMh13Zq0t2zKJC5y36qAtH8r3IeW21+uzEtf6imtoKFxOeWolIX4y38xDFS1yL3H2zAzySbKqEgzOiZfCJbWxHFc57/Ftyz89CDFfc8KogYvtruius1YoG+rlJrQXYxtuM+TJCzgQAbYVW+qBdnnc5g/6Gr4L29nWaphdBdOnNr3C/SFlsTYPTR8Ib7wLa7wVyR5MNl5WeU+sS9IfB2aiDeGrM2BVJXGuMMOwFT6fcWbFlh1DiWvqU9+BB1UkLpRfvdW4IK9kgUr1TBanBXpnHqpSRu4lbpLkvzxMN067QWmlLirbre/NpM2aFy8A9vL85k19B5r9WCo63fn08Ot42S4YlKAiUEgpBXlDffn0Yj/Gxm8zKf2A9tTJYQAEojJibkhw5A9Y66liG+lJbSMjsx4ssxLBlqdN7AuB41GvMvN6GXjOUzntwzI5pnZlcgAadNtZlwGj0mJM2qF7RP/KDBhVKWXAXGd2nGGJC0DNeupH0ElcI2tn1jVx5VpEC6oRwsFnhypl67eZ5IaoiGRVpVXZdm8zpPhaD3U0mXehZnEhtqh5dmvGy3CC+s6nc9wyrRhDCLURYlhIAO/E2PBtZknHmgkggBG2HODQCOA9P7+R4Alqz1zyiq8zRN7qTrmZ7u21Hilczkf5tl4J5jvIXKJrbaJAg78bAIvSDt8lRtdlQFclyAD6CWk5qzR5NgLefmZHN3RwTXjqx5BpXGPrZ9Vu4tpQS12cS3rTK1LrDV56zvKsSaZNlwzbGldS4gU7idQm5KENCnkeqza2Ls6DJwguehVhtPIBg7wAqrgWd80HTaKHLU81Sd97xhgbvc2AG88vlPgs2eE2g4ZUVtHdGhFNDBG6VS7lf+ciGk43s7wlotI7hLQmT65jcPPGOLKWSr9R1yRqEco5M8nkZjG+IAOkKmXvcxbSBMC8xHYzSjSw9cyObKxwpcXgAX1NcOpHQB3wP34Htz9M3Y7Xsp1KmMPcIIZzrmC1JBOp2+sSw5WKNck5ZoTvh2el7LsI8GBiW+ZP7jBccm+GS07mm0i5QSbYhRP5oDmSsbHbDPiZ3CSRwS62Cer4VYAuF9SNhVksVsyfKKCY6LaWvDL2/CITgK5t9Q2iiIh047OZFo0XnxNVCZJt9jPbxbjAxddMdOq5Y+ujJq715dNqEFy1uNGLp+rne8aQckHvryrP1aLb1XENElza0F3zsIULmJIkgyyHc+1h1rKs+W1LRm4zpS6CyeIuPpqxdfZrO12sLavZmD+GHftF3N6I2OeHSYaj2MtQu5XJOo8RT16WdkEo2rUjiQIWKS7K6lqSVavRuxYDrNpCrpUUKPHHDMTWAdjOw2JtWc3GMhWdHUbEDJdc2HaVeNh9kAEOfxUe5eaPjZu4HjP9qqv3w9UVXBurlYeQ9fbL/thGlMomrk5XDRfsvW1Uh0hNXNpR9xQ4xUSwp1zfk7H+24xydhGgHFvlbhY0nLZX1jysPcc2Ezc2ynqwXflUrCyF4mUEaki5GEsdG9b6P8l564h1R4UTxUfL6iJcSzKyW3QvxQCpSipPFgHKsXXwNY6SvbJkF/2Gn2N8WExw6bUNV7MyOHzGqdeurUmauNYWTzyvcNXsGPR6Nbjkv5boa4qq6k7pc3cR+goXReMaqUpDmViXHd5TuJKjkj1TmHyDGeNKJthTMPZkrP82o9xYBAgCW0evw2lnZbMy6ndQOp3ZFyDLNyDVbpaHLihLmVv0lpryl7dv/8zLnVtVn22u1RytJVlzcUxOzICqStpXzEFstUaSrCe5s5D9fwVXZ3CC4Jr31A9iAnWCa8PqeZcoXEffZoxHqcmOU/rcbBf6BNd4HjbezG6mxwQ5LiS48mKPEEe+UkyKTfMBLYQslK5hxdjVbzPjQctfWWJ0Lb/x0v3ZDNBrKTNnFNXLrC2v50J6xowuAze+lrItE0fUVgrpBRlQVUljwPzBVmskiVO2HG0mtrOcqYwOOnA1TKYzK89WEsp3n1gNepUbm3ZNPYara4tXUVK4NudETx726Cw0OKXPtSD0Fa5Bds1MTN/cMDJx0PYj6gqXeTpMYdoWZuSZecSfurabsV/wNgMs1csDXgobmZTIRL3UNpRrDA7saY+qe50JJY7ogc6G6XMZUFVJb4+FB1utkSRufXf0iXjzk4vYEN0OXGKFHM556h/HJXHOMVa4NP2larULak8eDhj3q6ddO0WpVLg20K1daDOwYYvhJSauAUe1agnvDrccbd1g7PHbzDBrsSAYCAaOY8CsSsdtd5rlwHUa1btsFPHahcbTjNwgXnGbOS1bYqNg4AwGblCVTJoCl0nLtMKI17ShMR27QbziNmNGNoTBwFUZuEFVMqkPXCYt0wojXtOGxnTsBvGK24wZ2RAGA1dl4AZVyaQ+cJm0TCuMeE0bGtOxG8Tr6cePH9+/f//27dvXr1+/fPny+fPnT58+ffz48cOHD+/fv3/37t0f8QoGgoFgIBgIBoKBYGBiBuKzGfOeGsJg4KoM3OA9lkl94DJpmVYY8Zo2NKZjN4hX3GbMyIYwGLgqAzeoSib1gcukZVphxGva0JiO3SBecZsxIxvCYOCqDNygKpnUBy6TlmmFEa9pQ2M6doN4PX6bgZ+1gV8dwtZk6iHhAb/E9ZA/N1g8Qqn48agboL83hI6qhGcV2/0JGUmwzt07cHVamkstcB0Yj4E87PmNPvB073ihi9geyEbT9A64rHpywOMDmcK2wBq4zYCr4gU/x4cIsC2mG7/OCGbM311U/oE1U1i2KR3pn/FbgUlX6lVMxooh5eLKFB2ZRjRAglI7VAsd0s4U4MIJlwFalYz0nerMuiCMCYqrTkuExhlOylJvnlNv46oIr9ozcekwmAGzC1KJGX92aJv16SIKXetH4M3bjGFbXFmDIwAAIABJREFU4BpyNcVS+IRDbF8r3gJX/nyiUM47PADFY2BLTunHx3GMDdxm0GfhMg6xRTXeAgIzb5Wa1uoIM2wu7BuivJeml/vARkPKuNIIl0JlEJI8TlkjMwINk3adFOk6DZC3murgZtIOyqOdkwFVlZY/PESSCsOMrQ3ESFFL0cwlU2it7pdpXOD+PKe+HwnX1Lj4/FVHGpeVUCmGJDUNtNYyqqYKFLmXtPOQ5T9ZRa2rvsZVVcCgKvV1OveETzjEVqqfNW7hoj4w0mAihZDfdmC08KCiQ23lxbsxds5tJgXqxbi4cWTOxzCrYfZyyJav0MtdGlLmS8vI8D8nAI0i87X+Se1ipHby2poudYb3pOuwDsuG4VJaTHXQmrSD8mjnZMCqSiKuOMTWAnLwmbW2bMskLnCeniBcbcuHsnhIGffd2kpcW+3Mtk7hcopOKwnxk/nms0NFi9xLnD0zV3ySrKpUgnPipXBJbSyyVc57fNvyTw9CzNecMGrgYrsruuusFcqGerkJ7cXYhtsMXJXJ9ogA24ot9UC7qvORUF3+GiSxnRVWw+wqmD616RU+DSmLtXlo+JBEz8+kFhtKprH69SQXc1kHNhsv60GQPoiV/D9OQXEpOicwYFWl+c7sOBESl3sCzMM0lMVDyuNI+AqJi89ed6RxQRbKspOqlCw5C2j+tOAjwouKFrmXuEmS//Iw3TjZh4JJXVS2W9+bSZs1L17g9cvzmzf1fWX2Y6nTdGcC8Jyujpe9r0EJKgKFlFKQN9SXTy/2Y2z8NpPSD2gnT0tAIGoI5oYEt1xZIHx6qthGelLbyMisB8usRLDlaRP7Me941KvMvF4G2vnFKzoBIr23Za7I6PIiZB2ZRnQTZ3WmRngi7bBNYjAdA0ZVSnGd68yO0yZxAahZT/0IOolrZO3MuiauXGFoQTVCOPjsUAVq/TaT3BB1jqyqtCrb7m2GlFTroY4m8y7ULC7EFjXPbs14GU5Q3/l0jlumFWMIoTZCDAsJ4J0YG77NLOlYMwEEMMKWAxwaAbzn5zcSPEHtmUte8XWGyFvdKTfTvb1WkwKS5ChFlfpwRc0vDsTegS63NWTWUV/s1ck39r4BLEs79m4hnYUBXZUgruzdA6YCtg+4Dpm07cyOburg4oclQeWi0X2E/oZTLyysDDWulQUXmW7i2pPVJb2X4pkbfD4ZhS49Z40UMV0ybGtcSQl3zNGx85A8tEEhO4EuYvta4SW46FWE0coHDPICqOJacJiPj0QPW54/HFFhGWNs9DYDbjy/UOKzZIfbDBpSWUV3a4Q6MUToVswYX2gn6rWbWd4SUekdQipyIiCoQPrmzfPbP5NewsEjXdbXDllehayX7FRUqYdmzdWLUM6Z6ch2isFMDJCqlN3KSUfDmiUTnNkR3hSutFhm+QSnfgTUAf/jd3D7w9TteC3bqSJ/mBvEcM4VrIFkInV7XWK40lOC5BwzwvfDQ1f2XQR4MLEt8yd3GC65N8MlJ/NNpPzrQoJdOJGPjyMZG7vNgJ/JTRIZ7GKboI5fBehyQd1YmMVixfyJAooJtmVAyAD0SvSXr0alM0dpFIeQLN+AyFhNRKQbn81sYPd1l4iqVJKLZCN2sU0O02QTl2A6JHlIl4tjx1NoF0IELm5TbM8n5x41cc3tetM7gmsotYaUiwf+KlpZi/p6xzVIcGkrd83DFi5gSpIMslwp5G1GctayLHXXxiO3GShexeviLpY0bJ0d204Xa8tqNh6rjO2NiH1aonU4CAxwhr8KC0RLdwUjMDRezy/paktNgiYda9PiZmQpNGWSUoBId6T8r6Vjc6OYPJ0BVm1ZKpWoYmZi6/jYPkrF2rKajWWCOTuMiBkuubDtKvGQn0Ca88IkwOGvhrJYOzRs4hqyNJfyfri6gmuDt/IQst5+kZs6MScKYBNXp6uGC/bexI2juyYu7ah7CpxiIthTKPZkrP82o5xdBCjHVrmbBQ2n7ZU1D2vPsc3EjY2yHmxXPhUrS6F4GYEaUi7GUseGVXQoKqEqhmUJ7dDlVC76jim+mo8WC0W4lo5ixxi+MgOkKqnoLwKUY+t43DhK9sqSM/xjSMf8oJjg0isbrmZlcPiMU69dW5M0ca0tnnhe4arZMej1anDJfy3R1xRV1Z2C5u4i9BUuisY1UpWGMrEuO7yncCVHJXumMPkGM8aVTLCnYOzJWP9tRrmxCBAEto5eh9POymZl1O+gdDqzL0CmD0IM0tOnHUruglqH4y5dYLKzDcqYCtCXOaSpYcv1NErWvEC9RruWjo2lMfUKDKiqpH3ArMBWayTJepI7Cx/96NA0S3DNe+pNz9tCgquteLFZhauzZGmYPXnYo7NYdgqaa0HoE1zjedj4rtpmejRhmyQEV17vEeLIV4pJsWk+oIWQPYhdw4qxq99mNsQNyMGbQ1mehMYdYki5WIOOoprN6vm0Uwqq4YZY22F+WQFWWWpoS2sScZjX1GP+lRlQVUn7g1mBrdZIEqdsOdpMvJb9TLlv0IGrYSgdL3kSktA4bkPKjU27ph7D1bXFqygpXJtzoicPe3QWGpyC5loQ+grXILtmcsHjouM97OBWQ+oKl3k6TGHaB2bkARtywFXuZuwXvM0AafpSbdQ0ZDeRyS6PDWVcNEmrfa9AOlNPHOZJgIUbHgOqKmlFLDzYao0kceu7o0/Em59cxIboduASK+RwzlP/OC6Jc46xwqXpL7WoXVB78nDAuF8T7YooCqDCtYFu7UKbgQ1bDC8xcQ04qlVLeHe45WjrBmOP32aGWYsFwUAwcBwDZlU6brvTLAeu06jeZaOI1y40nmbkBvGK28xp2RIbBQNnMHCDqmTSFLhMWqYVRrymDY3p2A3iFbcZM7IhDAauysANqpJJfeAyaZlWGPGaNjSmYzeIV9xmzMiGMBi4KgM3qEom9YHLpGVaYcRr2tCYjt0gXk8/fvz4/v37t2/fvn79+uXLl8+fP3/69Onjx48fPnx4//79u3fv/ohXMBAMBAPBQDAQDAQDEzMQn82Y99QQBgNXZeAG77FM6gOXScu0wojXtKExHbtBvOI2Y0Y2hMHAVRm4QVUyqQ9cJi3TCiNe04bGdOwG8YrbjBnZEAYDV2XgBlXJpD5wmbRMK4x4TRsa07EbxOvx2wz8rA386hC2JlMPCQ/4Ja6H/LnB4hFKxY9H3QD9vSF0VCU8q9juT8hIgnXu3oGr09JcaoHrwHgM5GHPb/SBp3vHC13E9kA2mqZ3wGXVkwMeH8gUtgXWwG0GXBUv+Dk+RIBtMd34dUYwY/7uovIPrJnCsk3pSP+M3wpMulKvYjJWDCkXV6boyDSiARKU2qFa6JB2pgAXTrgM0KpkpO9UZ9YFYUxQXHVaIjTOcFKWevOcehtXRXjVnolLh8EMmF2QSsz4s0PbrE8XUehaPwJv3mYM2wLXkKsplsInHGL7WvEWuPLnE4Vy3uEBKB4DW3JKPz6OY2zgNoM+C5dxiC2q8RYQmHmr1LRWR5hhc2HfEOW9NL3cBzYaUsaVRrgUKoOQ5HHKGpkRaJi066RI12mAvNVUBzeTdlAe7ZwMqKr0l/rgFMOMrQ3ESFFL0cwlU2it7pdpXOD+PKe+HwnX1Lj4/FVHGpeVUCmG7XpnLaOkqAJF7iXtPGT5T1ZR66qvcVUVMKhKfZ3OPeETDrGV6meNW7ioD4w0mEgh5LcdGC08qOhQW3nxboydc5tJgXoxLm4cmfMxzGqYvRyy5Sv0cpeGlPnSMjL8zwlAo8h8fXn79s+yXHby2pouch7H0nVYh2XDcCktozqeHZRHOycDVlUSccUhthaQg8+stWVbJnGB8/QE4WpbLk8DapvtkLJpYUAocQ0snVpV4XKKTisJ8ZP55rNDRYvcS5w9M3F8kqyqvIJz4qVwSW0sslXOe3zb8k8PQszXnDBq4GK7K7rrrBXKhnq5Ce3F2IbbDFyVyfaIANuKLfVAu6rzkVBd/hoksZ0VVsPsKpg+tekVPg0pi7V5aPiQRM/PpBYbSqax+i7bxVzWgc3Gy3oQpA9iJf+PU1Bcis4JDFhVab4zO06ExOWeAPMwDWXxkPI4Er5C4uKz1x1pXJCFsuykKiVLzgKaPy34iPCiokXuJW6S5L88TDdO9qFgUheV7db3ZtJmzYsXeP3y/OZNfV+Z/VjqNN2ZADynq+Nl72tQgopAIaUU5A315dOL/Rgbv82k9APaydMSEIgagrkhwS1XFgifniq2kZ7UNjIy68EyKxFsedrEfsw7HvUqM6+XgXZ+8YpOgEjvbZkrMrq8CFlHphHdxFmdqRGeSDtskxhMx4BRlVJc5zqz47RJXABq1lM/gk7iGlk7s66JK1cYWlCNEA4+O1SBWr/NJDdEnSOrKq3KtnubISXVeqijybwLNYsLsUXNs1szXoYT1Hc+neOWacUYQqiNEMNCAngnxoZvM0s61kwAAYyw5QCHRgDv+fmNBE9Qe+aSV3ydIfJWd8rNdG+v1aSAJDlKUaU+XFHziwOxd6DLbQ2ZddQXe3Xyjb1vAMvSjr1bSGdhQFcliCt794CpgO0DrkMmbTuzo5s6uPhhSVC5aHQfob/h1AsLK0ONa2XBRaabuPZkdUnvpXjmBp9PRqFLz1kjRUyXDNsaV1LCHXN07DwkD21QyE6gi9i+VngJLnoVYbTyAYO8AKq4Fhzm4yPRw5bnD0dUWMYYG73NgBvPL5T4LNnhNoOGVFbR3RqhTgwRuhUzxhfaiXrtZpa3RFR6h5CKnAgIKpC+efO8fFcm4eCRLutrhyyvQtZLdiqq1EOz5upFKOfMdGQ7xWAmBkhVym7lpKNhzZIJzuwIbwpXWiyzfIJTPwLqgP/xO7j9Yep2vJbtVJE/zA1iOOcK1kAykbq9LjFc6SlBco4Z4fvhoSv7LgI8mNiW+ZM7DJfcm+GSk/kmUv51IcEunMjHx5GMjd1mwM/kJokMdrFNUMevAnS5oG4szGKxYv5EAcUE2zIgZAB6JfrLV6PSmaM0ikNIlm9AZKwmItKNz2Y2sPu6S0RVKslFshG72CaHabKJSzAdkjyky8Wx4ym0CyECF7cptueTc4+auOZ2vekdwTWUWkPKxQN/Fa2sRX294xokuLSVu+ZhCxcwJUkGWa4U8jYjOWtZlrpr45HbDBSv4nVxF0sats6ObaeLtWU1G49VxvZGxD4t0TocBAY4w1+FBaKlu4IRGBqv55d0taUmQZOOtWlxM7IUmjJJKUCkO1L+19KxuVFMns4Aq7YslUpUMTOxdXxsH6VibVnNxjLBnB1GxAyXXNh2lXjITyDNeWES4PBXQ1msHRo2cQ1Zmkt5P1xdwbXBW3kIWW+/yE2dmBMFsImr01XDBXtv4sbRXROXdtQ9BU4xEewpFHsy1n+bUc4uApRjq9zNgobT9sqah7Xn2GbixkZZD7Yrn4qVpVC8jEANKRdjqWPDKjoUlVAVw7KEduhyKhd9xxRfzUeLhSJcS0exYwxfmQFSlVT0FwHKsXU8bhwle2XJGf4xpGN+UExw6ZUNV7MyOHzGqdeurUmauNYWTzyvcNXsGPR6Nbjkv5boa4qq6k5Bc3cR+goXReMaqUpDmViXHd5TuJKjkj1TmHyDGeNKJthTMPZkrP82o9xYBAgCW0evw2lnZbMy6ndQOp3ZFyDTByEG6enTDiV3Qa3DcZcuMNnZBmVMBejLHNLUsOV6GiVrXqBeo11Lx8bSmHoFBlRV0j5gVmCrNZJkPcmdhY9+dGiaJbjmPfWm520hwdVWvNiswtVZsjTMnjzs0VksOwXNtSD0Ca7xPGx8V20zPZqwTRKCK6/3CHHkK8Wk2DQf0ELIHsSuYcXY1W8zG+IG5ODNoSxPQuMOMaRcrEFHUc1m9XzaKQXVcEOs7TC/rACrLDW0pTWJOMxr6jH/ygyoqqT9wazAVmskiVO2HG0mXst+ptw36MDVMJSOlzwJSWgctyHlxqZdU4/h6triVZQUrs050ZOHPToLDU5Bcy0IfYVrkF0zueBx0fEednCrIXWFyzwdpjDtAzPygA054Cp3M/YL3maANH2pNmoaspvIZJfHhjIumqTVvlcgnaknDvMkwMINjwFVlbQiFh5stUaSuPXd0SfizU8uYkN0O3CJFXI456l/HJfEOcdY4dL0l1rULqg9eThg3K+JdkUUBVDh2kC3dqHNwIYthpeYuAYc1aolvDvccrR1g7HHbzPDrMWCYCAYOI4Bsyodt91plgPXaVTvslHEaxcaTzNyg3jFbea0bImNgoEzGLhBVTJpClwmLdMKI17ThsZ07AbxituMGdkQBgNXZeAGVcmkPnCZtEwrjHhNGxrTsRvEK24zZmRDGAxclYEbVCWT+sBl0jKtMOI1bWhMx24Qr6cfP358//7927dvX79+/fLly+fPnz99+vTx48cPHz68f//+3bt3f8QrGAgGgoFgIBgIBoKBiRmIz2bMe2oIg4GrMnCD91gm9YHLpGVaYcRr2tCYjt0gXnGbMSMbwmDgqgzcoCqZ1Acuk5ZphRGvaUNjOnaDeMVtxoxsCIOBqzJwg6pkUh+4TFqmFUa8pg2N6dgN4vX4bQZ+1gZ+dQhbk6mHhAf8EtdD/ky7eIQo8ZNQ02IKx0YZ6KhKeFaxHd1iXX8kFdetJY0OXJ2W5lILXAfGYyAPe36jDzzdO17oIrYHstE0vQMuq54c8KBBprAtsAZuM+CqeMHP8SECbIvpxq8zghnzdxeVf2DNFJZtSkf6Z/xWYNKVehWTsWJIubhyYEcmB6VdEGUHYAEp7Rzocpg+lQFalYz0nerMjhBDcdV1EqFxhpOy1Jvn1Nu4KsKr9kxcOgxmwOzSVWLGnx3aZn26iJLY+hF48zZj2Ba4hlxNsRQ+4RDb14q3wJU/nyiU8w4PQPEY2JJT+kFzHGMDtxn0WbiMQ2xRjbeAwMxbpaa1OsIMmwv7hijvpenlPrDRkDKuNMKlUHmEeHK0LR2itHtEUR3PDsqjvToDqir9pT44xYTA1oa8lorLKjPrTKG9Ta9U4wL35zn1vTiknsYlNa451rishEoxlE9ADthaRjVkSYQrC1ps5yHLf7KKWld9jauqgEFV6ut07gmfcIitVD9r3MJFfWCkwUQKIb/twGjhQUWH2sqLd2PsnNtMCtSLcXHjyJyPYVbD7OWQLV+hl7s0pMyXlpHhf04AHUVPXmxB6rBlsGLt6FIdtCTtoDzaqzNgVSWRATjE1oJ88Jm1tmzLJC5wnh2FZbktH8r3IeW21+uzEtf6imtoKFxGHQQkrSTET+abzw4VLXIvcfbMDPJJsqoSDM6Jl8IltbEcVznv8W3LPz0IMV9zwqiBi+2u6K6zVigb6uUmtBdjG24zcFUm2yMCbCu21APtqs5HQnX5a5DEdlZYDbOrYPrUplf4NKQs1uah4UMSPT+rWuzJqV3Qabys8p4+XpWsPg6MehX9eRiwqtJ8Z3acL4lr6lM/AE/iGlg6tarGBVkoC1SqZ7I4Lbj404KPCHRVysi9xE2S/JeH6cbJPpRW6qKy3freTNqsefECr1+e37yp70CzH0tFpzsTgOd0dbzsfQ1KUBEopJSCvKG+fHqxH2Pjt5mUfkA7ea4CAhgSJJgbREQxQ/j0VLGNqqltZGTWg2VWItjytIl9IXA86lVmXi8D7fzilZrw5NyqTA5YhW4rk5Uexba0w3eJ0XUZMKpSSvm5zuw4vxLXcl6UIVueKOg9yEPKyoFBgcQ1uHxadROXZtYo3IPPDlXK1m8zyQ0smwuDZFXlVNl2bzOk+FoPdTSZd6FmcSG2qHl2a8bLcIL6zqdz3DKtGEM4ckaIYSEBvBNjw7eZJR1rJoAARthygEMjgPf8zP8lhaP2zCWvOGmGyFvdKTfTvb1WkwKS5CiJJdjw5NK+zCW6gzC5LE2W2buBZT/Ol9woxhdlQFclyAD27gGTBtsHkG4/s6ObOrh4FieoXDS6j9DfcOqFhZWhxrWy4CLTTVx7srqkN7uq4vPJKInpOWukiOmSYVvjSkq4Y46OnYfkoQ0K2Ql0EdvXCi/BRa8ijFY+YJAXQBXXgkM+sJI40cOW5w9HVFjGGBu9zYAbzy+U+CzZ4TaDhlRW0d0aoU4MEboVM+lfXIiC180sb4mo9A4hFTkRMFSevCwsHYkSQGBaMJO4YhHKOTPJcE20F2aAVKWMIicXTQBMN2w3o0UDW8/syMYKV1oMHtDXBKd+BNQB/+N3cPvD1O14LduphDnMDWI45wpWSzKRur0uMVzpKUFyjhnh++FZKfsuAjyY2Jb5kzsMl9yb4ZKT+SZSHkMJduFEPmiOZGzsNgN+JjdJZLCLbYI6fhWgywV1Y2EWixXzJwooJtiWASED0hVKY84yO3kpEZHu2j9njm0b2lMxIKoSJOHsZ7aLP4GLr5no1HPH1kdNXOvLp9UguIYeB0PKBb2/qjxXi25XxzVIcGlDd83DFi5gSpIMsnxtlLcZyVnLstRdG4/cZkpdBKPFXXxkY+vs2Ha6WFtWszF/DDv2i7i9EbFP39HpcBR7GWq3MlknGIGh8Xp+68hfiKm+riQKWKRpRlldS7K+HUNrPgZYtYWkKylQ4o+Zia0Don2UirVlNRvLVHR2GBEzXHJh21XiIT+BhRppb/up15ZWJE1cK2tnnt4PV1dwbSqsPHQKMfmQm9sSpbKJq9NVwwXvIyPuy4EjE5d21D0yTjER7CkAezLWf5tRzi4ClGOr3M2ChtP2ypqHtefYZuLGRlkPtiufipWlUIuNQA0pF2OpY8MqOh4qT14WLl+yMbKfL+WjZXkRriUZ3S76V2KAVCWVgosA5dg68BpHyV5Zsot/DOmYHxQTXHplw9WsDA6fceq1a2uSJq61xRPPK1w1Owa9Xg3u8u6a31RxpKq6U/rcXYS+wkXRuEaq0lAm1mWH9xSu5KhkzxQm32DGeCgJ9hSMPRnrv80oNxYBgsDW0etw2lnZrIxwCel4EZZdPy0Ph5S5/+7SRc07256cWl+zTXWd/lqSOctCPD0DqippjzF/sNUaSWKdCEdVinuyWK5ZGRNc8576FQzWNMFlTV9WpnBtzomePOzRWah0Sp9rQegTXON52Ph+6WZ6dsoQgitb9Ahx5CvFpNjseFzzW5FrWDF29dvMhkgCOZyu5dOO7s9mkgV5aZWeKKqFgjfvyelyN75Uqd0XR7StHLMXYkBVJe075g+2WiNJnLLlaDNxTxazBeuDDlwNI+nMkjc1STUJjYM8pNzYtGvqMVxdW7yKksK1OSd68rBHZ6HBKX2uBaGvcA2yayZX+uaGkYmDth9RV7jM02EK07YwIw/YI/7Utd2M/YK3GWBJX6obmZTIZDfKhnKNwYE97VF1rzOhxBE90NkwfS4Dqirp7bHwYKs1ksSt744+EW9+chEbotuBS6yQwzlP/eO4JM45xgqXpr9UrXZB7cnDAeN+9bRrpyiVCtcGurULbQY2bDG8xMQ14KhWLeHd4ZajrRuMPX6bGWYtFgQDwcBxDJhV6bjtTrMcuE6jepeNIl670HiakRvEK24zp2VLbBQMnMHADaqSSVPgMmmZVhjxmjY0pmM3iFfcZszIhjAYuCoDN6hKJvWBy6RlWmHEa9rQmI7dIF5xmzEjG8Jg4KoM3KAqmdQHLpOWaYURr2lDYzp2g3g9/fjx4/v379++ffv69euXL18+f/786dOnjx8/fvjw4f379+/evfsjXsFAMBAMBAPBQDAQDEzMQHw2Y95TQxgMXJWBG7zHMqkPXCYt0wojXtOGxnTsBvGK24wZ2RAGA1dl4AZVyaQ+cJm0TCuMeE0bGtOxG8QrbjNmZEMYDFyVgRtUJZP6wGXSMq0w4jVtaEzHbhCvx28z8LM28KtD2JpMPSQ84Je4HvLnBotHKBU/HnUD9PeG0FGV8Kxiuz8hIwnWuXsHrk5Lc6n98rh6fhyvhGxIuazas9MdryFXh5T3hFNsdeDCeoFtWbtP52GzA7cZ2Eu84Of40AVsC7DGrzOCGfN3F80iaArLNqUj/TN+KzDpSr2KyVgxpFxcmaIjbyE0QIJSO1QLHdLOFODCCZcBWpWM9J3qzLogjAmKq05LhMYZTspSb55Tb+OqCK/aY7gs+vEJoB/kuh6VsGpl/Ls0NaKkV9btx+IvgWuhC8KGYSJ/7ViIQVmHrESBGHBitUTJMDsWtrTl3/7+j5/26927d8qe2BOH2Cr9JACwHZklnrLZlink28Dmwr4hymuGns5DyuiTEdmCncx5US66aI+3rgWuBtdMZokGyKOU6qA5aQfl0c7JAKu2i4sirjjE1gZy8Jm1N/WlGhe4P8+p9z1vz2hcbf2rzDJcsojQzDMvKAQl1YWnJq+bRFF25aZyftv4l8C1UMOor//+IsSgPBIXzntdaZjlqmsj+Gzm99+enn773bzO7HSbSQ/PF37PMz0zn7KmkC4HFtiDe5m05UM5PqRMfSJ94v+fb9++LDPsWUE9hQn/wHoWyH5LV7pOc4W4xBZSHZyQdlAe7ZwMsGq7uCjiikNsLSApRY47s9aWbZnEBc5PfOrbYMisxEWmLt1luGQRoZlXH2cmXl6rTGWwZr+sBDF36Rf+ErgWOmiYVj+b8R9aLXJJeMVurVX2XPqXpn/8/W/Odca6zYinLbqArdgHtOvDmY+E6vJ5lSKF4NUrQOIqmD7Jg2XbXKRDyqYl0wfQJBOcUjJhWizCtiLMNl7mOeeO5I0ep6A4HJ0TGGDVdtlPxBUTB1vhFT+lfCRUN59ZbWdNInFNferXwJB5iYtMXbrLcMkiQjPPvKAgdJG59V80aP2S1nHxIe0vgWthjoaJPLKEGJRTlTAfNzRQOiA0dIZZvaAlyd+bca8zxm0GtkzviVIn+w8XEOEKolN3kwpcTxXbzGW3bKEWLLM4s+VpE5P3eutCywmVrWsol1Wk4ztf4wgeUTLkmJhj3WqBiZeBnKVWHa8yNdSVnMIWudaWIZs95/9gAAAgAElEQVSAAVZtsz8prhDEHOCU0BBlmhKkIokEABv+cS62GXQnwZjO4EDigo2txLTlyU37JGu4Q8qDMJS6xKUULipguFaKUQ6MjGYKg4iOefWR1g9l7JfAtTAIx369boCyGRcjDlhI6lGsUYd4i3AbFhqi4dvMctDrpugCto3N1qagBD4/8297ZKIqYttG8oorGSJ7bbe0N2DEoE8KzKDDsvT7q4jp9ChCC1SOfXnEqVW5Y16TfHojM0raQfvRzskAq7bJRYgr/YS03GJoSmwEs/3Mjm7o4OJHIEHlotF9hP6GUy8srAw1rpUFF5lmuGQRoZlnMpyeekYgTeUlwesTsvYMEw/y90vgyhzlq0fXs96MyxrTNAuWj36WyG0LW73NmF8FVp/N5P3pwxA9wnYNgTuPBhQvdDd3dX6jWbNYfj0QFup7IdUv/Ry9IWXHLYREpovZmiPgF4seLGMCsp6gIBaYwjIAK/KFS+SOackilHOyEFl7hWweBli1BbdyFtKwYl5iu9l5NLD1zI5srHClxeABfelzU04cVdP9/U79CKi//vrLxjVoZEJ1hkuGCfgnxQi7ACOrUgkFpzKNTp7S/yVwYSCeXzrrRuuUObGEJWwKq8nmMNbbjPk9YHGbge1SuSD7Yhfb5EoLGykkBAtdLjKW8rkOVCxeX3CcBsWkdkkUZQIkwLKO0ki4WmwRC8r6ikDuyD8B47Nxm1khc7JpVm3zw2H2M9vFoMDF10x06rlj66MmrvXl02p043okdrRCkgeL7OriuZ22XwUXPgXK0wjfF9XWIbEjoGCUX2XK2y7HaI945DYDHpS3PpBGKUcQLLbOrm2Exdqymo2RVseyELc3IvZ5xhdgwpz5kU5DmSxfYaR83l87y+K1hWWPbsWyYulISoFvCoryH7cZyd7cY1ZtIUNKYEtUMW+wdQC1j1KxVnOq1ieZYM4OI2KGSy5su0o8PPzUS89Wx01cq6vnVdC4nEpixw5y037ZVxNhfCW1H6Dtl8AF9B1UN5Z/IjGi+HDM0m3G/RLwT/LZjNpqEaAcWydP7JRNyvbKWg9rz7HNxI2Nsh5sV8surpXP80U+pIy26j5GyKpSxc0RVnnVtXvrmo4G35CPlq2KUJQJ25OQTsMAqbYq+osA5dg6vjeOkr2y5Iz6x1NnhxExwaWXNVzNyuDwGadeu7YmaeJaWzzxvMblVBI7dkPK+Y19efzu8T7fZfYXwKVO9yJAObYOR3ZAszIs1eewzjWfmM5+RQy3md9/ezK/NPPzJ73NlCWig8iwFdM4bCFEHaetNVIrwCWk40U4cv20PBxS5t5ZS1+eqyMwX8IKAzyLLbh/uRb45mVkeVEm+zpOWelbHFqnM6CrrXIBswJbpZAF1olwVKW4mcRSuW9McM176vugMC2Ci8mvPtC4hiqJo+zmpNBfSe0HyP11cCmSkFRsk8L4YVR2FwEz6ym15OkmYH5lJv2aHvlsxrOCLmDr6LlZ6OgT8c6VERwt1wjcJgnxPoFC/EpavYLkGU+ZrEtf1tX20srl9iVma1LI7ZjZhgWmtwxAvWnPWsRlokzwyRhNx4CutspFzApslUIWzHNmwZ8OXA4OEKdzI09CEopzOKzc2LRr6jFcXVu8ipLGNVRJHGU3J4X+Smo/wMivg0uRhKRiqxQeEzxsNn9vxvwdYBDe8TYDjNerA36wY9Q0DA2QzF8NZVw0Sat9r0hkbXdcFmXC0QrxLAzoaqs8w7KBrVLIAvfJ4egT8c7vQMByBy7igNWd89Q/jsvC+voyjatRjHQt8pW1LoAVZWoltR+g59fBpUhCUrFVCo8JHjb7+G3mMQCxOhgIBnZlQFfbXc2/mrHA9WrUb9o44rWJtldbdIN4xW3m1bInNg4GjmDgBlXJpCVwmbRMK4x4TRsa07EbxCtuM2ZkQxgMXJWBG1Qlk/rAZdIyrTDiNW1oTMduEK+4zZiRDWEwcFUGblCVTOoDl0nLtMKI17ShMR27Qbyefvz48f3792/fvn39+vXLly+fP3/+9OnTx48fP3z48P79+3fv3v0Rr2AgGAgGgoFgIBgIBiZmID6bMe+pIQwGrsrADd5jmdQHLpOWaYURr2lDYzp2g3jFbcaMbAiDgasycIOqZFIfuExaphVGvKYNjenYDeIVtxkzsiEMBq7KwA2qkkl94DJpmVYY8Zo2NKZjN4jX47cZ/MkbbE2mHhIe8EtcD/lzg8UjlIqfpboB+ntD6KhKeFax3Z+QkQTr3L0DV6eludQC14HxGMjD3t+K3Dte6CK2B7LRNL0DLqueHPD4QKawLbAGbjPgqnjBb+IiAmyLaf3Lm2y1+YuOyj+wZgrLNqUj/fN+sFfqVa+MFUPKxZUpOjKNaIAEpXaoFjqknSnAhRMuA7QqGek71Zl1QRgTFFedlgiNM5yUpd48p97GVRFetWfi0mEwA2YXpBIz/uzQNutfrhGFrvUj8OZtxrAtcA25mmIpfMIhtq8Vb4Fr+WMghXPW4QEoHgNbcko/Po5j7Mn/i5PeXzYQLuMQ2wKNdQCBmbdMy764dIQZNhf2DVHeS9PLfWCjIWVcaYQLsdMpGndPjiZJS1SpBaKRu9J1GiCPUqqDBqUdlEc7JwOqKum/KIxhxtYGAomGeWtrJKmZS6awYaRjSuMC94WHhiibHsriIeUO15sqGldT/TKTGpeVUClgzTqWbiCtPFTRIveSdh6y/CermhxrXFUdDLZcTZrCJxxiW62d22vhop4w0mAihZBddtJg4UFFh9rKi3dj7OnJ/fvZO95mUqBejIsbR+Z8DLMaZi+HbPkKvdylIWW+tIyq/3++fVMOLnXOkxcTtfPn27cvy8gqDlVR/uGS8iEaqFSXyAL91EuTe1DAd4nRkQxYVQmSrWReLiEwFGLm1cFnlu3VNZC46AGiBmz5UBYPKdO9t/Qlri02ZlyjcDlFp5WEWKqazw4VLXIvcfbMfPFJsqrSCc6Jl8IltclBq1Okx7cttViIyYJzug1czAFFd521QtlQLzehvRjb8NkMPETJ9ogA24ot9UC7qvORUF3+GiSxnRVWw+wqmD616RU+DSmLtXlo+pCmPLc9uTLvmwZVmG28zAuxiG3a8XEKlOMhOJABqyqJuGLiYCu84aeUj4Tq5jOr7axJJC73mJiohrJ4SHnN77V5iWtN/yrzGhdkkiw7qUqpkp8x8szjI8KCiha5l7hJkv/yMN042YeCSV1Utlt//TRt1rx4gdcvz2/e0PcWZV++MwF4TlfHy97XoAQVAQqlFOQN9eVd9X6Mjd9mUvpBwFMnPy4BgaghGCMJbil/sE5PFdtIT2obGZn1YBlNQVxty9Mm9mPe8ahXGfelbcN5b8qTU7Op30wUlUaAGwE6W2RqUGnZr72LcioEr8yAUZVSXOc6s+MkSVwAatZTP4JO4hpZO7OuiStXGFpQjRAOPjtUgVq/zSQ3RJ0jqyqtyrZ7myEl1Xqoo8m8CzWLC7FFzbNbM16GE9R3Pp3jlmnFGEKojRDDQgJ4J8aGbzNLOtZMAAGMsOUAh0YA7/n5jQRPUHvmkld8nSHyVnfKzXRvr22R4kXQk8udwDaHzDVk1lFfbEqTRfa+ASxKO3yXGM3GgK5KEFf27gFTAdsHIGw/s6ObOrj4EUhQuWh0H6G/4dQLCytDjWtlwUWmm7j2ZHVJb3pFar1tS89ZI0VMlwzbGldSqk9EiI+dh6S0g0J2Amsxtq8VXoIrUcT4NAcM8gKo4lpwmI+PRA9bvgtjo7cZcOP5hRKfJTvcZtCQyiq6WyPUiSHCuk7YoSANKTtuISQ9nZzl4UxKnpxYKI4Zy4laTg/CB3RxiUnpIpRzZjrSjaI/FQOkKmW/chbSsGJeYrvZfzSw9cyObKxwpcXgAX1NcOpHQP3lvtcftDKfuh2vxU+VMGf4n3MFa6DcsdclhisVY5JzzAjfD89K2XcR4MHEtsyf3GG45N4Ml5xcHjVIbIJdOJGPjyMZG7vNgJ/JTRIZ7GKboJYnLi00uo/4l8ssDgV1Y2EWixXzJwoYJWTfxA6CbckpjVrfM0Msel2DUiIi3fhsxqNwWrmoSpCEs5/ZLi4FLr5molPPHVsfNXGtL59Wg+CidUw/BYokl7gh5YLeX1Weq0W3q+MaJLi0obvmYQsXMCVJBlkOp7zNSM5alqXu2njkNlPqIhgt7uIjG1tnx7bTxdqymo35w9WxX8TtjYj9cohSR4aj2MtQu5XJOpMREJaPSISyJScqumvuoNW0RFIKfFMGKP9r6aith+Q1GWDVFjKkBLZEFfMGW8fd9lEq1pbVbCwTzNlhRMxwyYVtV4mH3QcZ4PBX4VFu/ti4iesx06+6ej9cXcG1sVp5CFlvv/Q7RrAqCmATV6erhgv23jaqQ6QmLu2oewqcYiLYU67vyVj/bUY5uwhQjq1yNwsaTtsrax7WnmObiRsbZT3YTt8boHgZgRpSZn6kj99kirKKT9Q9OVGxujZzVNPR4JTy0bK8CNfSkW4X/ddngFQlFf1FgHJsHacbR8leWXKGfsPPMT4sJrj02oarWRkcPuPUa9fWJE1ca4snnle4anYMer0aXPJfS/Q1RVV1p6C5uwh9hYuicY1UpaFMrMsO7ylcyVHJnilMvsGMfN7pu6CCsSdj/bcZ5cYiQBDYOnodTjsrm5VRv4PS6Uy+LyL+SYvtaHnogrKUmTXrMgPWZHbAIk/ODabRy3NNGFhm5Q9d5gKgSu2+OMxt5Zh9dQZUVdIeYVZgqzWSZD3JnYXs/yu4OoMTBNe8p34QE6gTXBtWz7tE4Tr6NlMrY5sUp6C52S70Ca7xPGx8v3QzPW203bMEV17jEeLIV4pJsWk+oIWQhdI1rBi7+m2mO1ZVEchRl4AkNG4aQ8p1D/7/z1CejPG4pS09Oa6jLdU1/KWq0Ad1lhpSYX0sDvP6gtB4VQZUVdLeYFZgqzWSxClbjjYTq0LDZjcNOnA17KZzI09CEhqnaEi5sWnX1GO4urZ4FSWFa3NO9ORhj85Cg1PQXAtCX+EaZNdMrvTNDSMTB20/oq5wmafDFKZtYUYesEf8qWu7GRv4O03VOushCGzZZB24uVJVvN7mU+AZHPwqTCKTXUJeN+18WHpG+16BdKaeOMx6j5BMxYCqSto7PKvYao0kmevMduBycKBYv5VuHGR9chrKuMOW9nFcW3Y9fo3CpekvtahNbU8eDhjXkUU/7IooCqDCtYFK7UKbgQ1bDC8xcQ04qlWRVv3hwbBz6W15tQc9g7HHbzPjjsWKYCAYOIwBsyodttt5hgPXeVzvsVPEaw8Wz7Nxg3jFbea8dImdgoETGLhBVTJZClwmLdMKI17ThsZ07AbxituMGdkQBgNXZeAGVcmkPnCZtEwrjHhNGxrTsRvEK24zZmRDGAxclYEbVCWT+sBl0jKtMOI1bWhMx24Qr6cfP358//7927dvX79+/fLly+fPnz99+vTx48cPHz68f//+3bt3f8QrGAgGgoFgIBgIBoKBiRmIz2bMe2oIg4GrMnCD91gm9YHLpGVaYcRr2tCYjt0gXnGbMSMbwmDgqgzcoCqZ1Acuk5ZphRGvaUNjOnaDeMVtxoxsCIOBqzJwg6pkUh+4TFqmFUa8pg2N6dgN4vX4bQZ+NAd+dQhbk6mHhAf8et5D/txg8Qil4sejboD+3hA6qhKeVWz3J2QkwTp378DVaWkutcB1YDwG8rDnN/rA073jhS5ieyAbTdM74LLqyQGPD2QK2wJr4DYDrooX/BwfIsC2mG78OiOYMX93UfkH1kxh2aZ0pH/GbwUmXalXMRkrhpSLK1N0ZBrRAAlK7VAtdEg7U4ALJ1wGaFUy0neqM+uCMCYorjotERpnOClLvXlOvY2rIrxqz8Slw2AGzC5IJWb82aFt1qeLKHTpDwgUM6lT9jdvM4ZtgWvI1RRL4RMOsX2teAtc+fMJzlUZ8QAUj4EtOaUfH8cxlvz77fefzuvdu3fFVewIl3GILarxFhCUvOFTdGRG1BTSVQvx3D74Y26p6eW22GhIGVca4ULf6JSMe//FrUtTuk4D5FFKdRCNtIPyaOdkQFUl/ee6MMzY2kAOPrP2pr5U4wL3xRE3RNniUBYPKfse981oXH3rZtfSuKyESgEzKiFBZy0j0/B+GstrFpN7iVfosiLLf7KKWld9jauqgEHuS50rPeETDrEteid3WrioK4w0mEghLBed0ll4UNGhtvLi3Rh7+vnzH3//29Pf/v4P8z6z020mBerFuLhxZM7HMKth9nLIlq/Qy10aUuZLy6j6/+fbN+XgCudKSqyGtldTug7rcPfqUvEydagOzkg7KI92TgasqiTiikNsLSAHn1lry7ZM4gLnrcNiy4eyeEi57fX6rMS1vuIaGgqXU3RaSYhv25rPDhUtci9x9swM8kmyqhIMzomXwiW1schWOe/xbcs/PQgxX3PCqIGL7a7orrNWKBvq5Sa0F2PpX5p+/827zli3Gbgqk+0RAbYVW+qBdlXnI6GaU7cq4/RqmF0F06c2vbjp0g4pi7V5aPqQpojbqEREprF8lwX2+zTFQaRD60GQPoglsU0+PE6BAyXEhzBgVaX5zuw4dInLPQF4mNgWQ1k8pMy22TCQuDaYmHKJxgVZKMsOBEuX/AyIPy34iEBW0SL3EjdJ8l8eprUu2YcKSV1Utlvfm0mbNS9e4PXL85s39X1l9mMpzHRnAvCcro6Xva9BCSoChZRSkDfUl6fYfoyN32ZS+gHtqZPDAAhEDcHckOCWKwus01PFNtKT2kZGZj1YZiWCLU+bLOkjGscjobUMtTLzehk0nDemDJFlFN+y/OlMJrFMI8CNPjv7ZGpQaTEu7bT2jLnXZ8CoSimuc53ZcZ4kLgA166kfQSdxjaydWdfElSsMLahGCAefHapArd9mkhuizpFVlVZl273NkJJqPdTRZN6FmsWF2KLm2a0ZL8MJ6jufznHLtGIMIdRGiGEhAbwTY3Cb+f23pyfnqzP6s5klHWsmgABG2HKAQyOA9/ws/hGUofbMJa84aYbIW90pN9O9vbZFihVBEuC2YZoKjqbMOuqLvQ9o8PcNYFracbYL8SQM6KqUjgJ994CpgO0Dnm8/s6ObOrgmPPVjyDSusfWzajdxbailLs4lvekVqfW2LT1nedYk06ZLhm2NKynVJyJYSyK1CSn5oJDnsRZj6+I8eILgShQxPs0Bg7wAqrgWd83HR6KHLd+FsSf41ox3l/n5U91mwI3nF0p8luxwm0FDKqvobo2IJoYI6yqX0r+jEAWvm1neElHpHUKS8iXbeThBqRNql6bkA+DijuY+i1DOmemoEYVkEgZIVcoe5SykYcW8xHaz52hg65kd2VjhSovBA/qa4NSPgDrgf/wObn+Yuh2vZTuVMIe5QQznXMEaSCZSt9clhktejZgRvh+elbLvIsCDiW2ZP7nDcMm9GS45mW8i5eGSYJdzKB8fRzL21LjK/FS3GfAzuUkig11sE9TxqwBdLqgbC7NYrJg/UUAx0W0TO+ahElApjUJfaFLzHX1jNRGRbnw208HmXCqiKkESzn5muwgUuPiaiU49d2x91MS1vnxaDYKL1jF69RT9XOKGlAt6f1V5rhbdro5rkODShu6ahy1cwJQkGWQ5nPI2IzlrWZa6a+OB35tJN7DidXEXH9nYOju2nS7WltVszB+ujv0ibm9E7POjVIAVQ6UDzvBXQ7mscj6tAprKLZYo524/1H5NtYnxyQ5ApKAo/2vpaNkP2esxwKptucuAPyWqeFaxdZxtH6VibVnNxo+lp+kPwyU12q4SD7sPMsDhL3pA5P4PjJu4HrD72kv3w9UVXBuulYepBPPQLiPxjnExKQpgE1enq4YL9t42qkOkJi7tqHsKnGIi2FOu78lY/21GObsIUI6tcjcLGk7bK2se1p5jm4kbG2U92E7fJ6B4GYEaUmZ+pMufTFFW8bl6GvVD7dS0uRX/omXaKsK1dDRghOgVGSBVSUV/EaAcW8fbxlGyV5acEQnm2B8TE1x6YcPVrAwOn3HqtWtrkiautcUTzytcNTsGvV4N7nJTN28ouqo7Bc3dRegrXBSNa6QqDWViXXZ4T+FKjspnoilMvsGMfN51fLS/J2P9txmPTQSBraPX4bSzslkZ9TsoM6UJy66flodDytx/YymIZHbwRf0HvlPT8ILvuD4Sh3l9QWi8KgOqKmlvMCuw1RpJYp0IR1WKO9NTLmuNCa55T30LgDNHcDka1xQrXJtzoicPe3QWHp2C5loQ+gTXeB46n9iDZ5vp2Sk9CK5s0SPEka8Uk2LTfEALIXlejzBWrNi/n6e+BayZQxDYao0kcShwtJl45zCDo+oSmYTGTWNIec3rZKwwnjpiy36onZqwJUsN5mPXQBzmrjWh9HoMqKqkXcGswFZrJMk8Zxbc6cDl4ABxOnvyJCShOILDyo1Nu6Yew9W1xasoKVydJUs725OHPTqLZaeguRaEvsKlHW5KzEyEu8zKO92m0R0mFS7zdJjCtDvMyAO2g1ve2bUYu/pnMxvp0pdqo6ah7RRAdglpKOOiSVrtewXSmXriME8CLNzwGFBVSSti4cFWaySJW98dfSLe/OQiNkS3A5dYIYdznvrHcUmcc4wVLk1/qUXtgtqThwPG/ZpoV0RRABWuDXRrF9oMbNhieImJa8BRrVrCu8MtR1s3GHv8NjPMWiwIBoKB4xgwq9Jx251mOXCdRvUuG0W8dqHxNCM3iFfcZk7LltgoGDiDgRtUJZOmwGXSMq0w4jVtaEzHbhCvuM2YkQ1hMHBVBm5QlUzqA5dJy7TCiNe0oTEdu0G84jZjRjaEwcBVGbhBVTKpD1wmLdMKI17ThsZ07Abxevrx48f379+/ffv29evXL1++fP78+dOnTx8/fvzw4cP79+/fvXv3R7yCgWAgGAgGgoFgIBiYmIH4bMa8p4YwGLgqAzd4j2VSH7hMWqYVRrymDY3p2A3iFbcZM7IhDAauysANqpJJfeAyaZlWGPGaNjSmYzeIV9xmzMiGMBi4KgM3qEom9YHLpGVaYcRr2tCYjt0gXo/fZuBnbeBXh7A1mXpIeMAvcT3kzw0Wj1AqfjzqBujvDaGjKuFZxXZ/QkYSrHP3DlydluZSC1xzxWPNm4jXGkOvNj9wm4HSJ17wc3xYEbEtUBq/zghmzN9dNIugKSzblI70z/itwKQr9SomY8WQcnFlio68hdAACUrtUC10SDtTgAsnXAZotTXSd6oz64IwJiiuOi0RGmc4KUu9eU69jasivGovcF0rcjeIVzrUv/3+03lZf6eJPhWXP6Kw/tkMPC+9QkOCLp6yecYUkkX4lxy4/VS+uCivGXo6DymjT8blAB2hU/w+V8st6qI5s10nRbpO4+atpjq4rbSD8mjnZMCqSiKuOMTWBnLwmbU39aUaF7gvqoohyhaHsnhI2fe4b0bj6ls3u1bgmj1C3L8bxOvp58/ff3t6sv/m5M+fO91m0sPzpeOvUplPWVNIIwElzLoC2PKhUjWkTH0i/er/n2/flCsMc44O4CFStIgZ7IJuelmQUSnf8JgGrEO71SWygFxNqXQPCqi96B/LgFWVaOxJmIWY+ZVS5Lgzy/bqGkhc4DxL8MWKLR/K4iHlLucbShJXQ/VSU4HrUuF68K+6ToEV/qXpH3//25Pz8Yx1mxFPW6yI2ApY6cMIfIimv3tZHqlCE4bCdtbwHr1lvatg+jRUqoaUi0O0Y/qQFKrbHLa/gjyI6mK6Ge2DmcbLehCY/D9OAfUq+kczYD1FeIL5/zqcfTvjzI6zIHG5J8A8P0NZPKQ8joSvkLj47HVHgetasbtBvJbbzMBnM+khCY9C8rSE24qoIaki2l+P8aeKbZYHbtlCLVhmPZxtedrEfsyXWxdapiDlEq1cVpFOw/kyBR5Ra3JMzJVuWVwksiNLMrXqrM7UUFeMz3jkPjGeiwGjKqW4znVmxzmTuADUrKd+BJ3ENbJ2Zt3ANXN0tG83iNdT+mTGu8wY/9KUH3jk4QsCeP5hq2nqlsAz9vn5jSxRzqOXmk1e8XWGiK7Y0O/5w/TCbIuU+n5ZAmytwg3kGpTXdvw2A/u+ecNvVimwnNm6RfQmZEBXpXQU6D9fYoJh+wCK7Wd2dFMHF8/NBJWLRvcR+htOvbCwMtS4VhZcZDpwXSRQi5s3iNfTk/ePTOl7wepfmnL9o49SrIjYbg4hGlDlg+7WsA7r6UvXNPxQiGoZ/fzZxJCy4xZC0tPJWfwQRAKESe09NyLX8FkYST4AqbdjWr2YlJblrUjvFJKZGFBVKWchDWuW7PAOBA1tPbMjvClcabHMcn1uhg7ykPKI976ujcvXv8pM4LpKpLKfN4jX8i1g70ojbjNQOlK5wCpGvshBRPn7L8Y9QYrw4UrMALOiNtI6vJ4gYvH6guM0GCVkm1QyCXYJsKyjtZXogym5hpjv6BqriYh041+aOticS0VUJUim2c9sF4ECF18z0annjq2PmrjWl0+rEbimDY3p2A3ilX5vxv8aMLvNlLoIZMCDNj1g8dGLrcmUuqEIrWJtkbMxf7iKlWrYVdfoNSFfsfR7umJ5SLmsct75Ak3lI5JFWVInx8Rm6Y6RUpYtHbkaIFIGKP/x2Yxkb+4xq0qQSiWwJaqYYNg6gNpHqVirOVUTWyaYs8OImOGSC9uuEg/5G6pCjbSXC1y3sl7eL2ni6jcznWbgmi4kTYduEK/+24yqfIsA5f+/vavJlWLnoXdRb3TXwph9sAOmVwghBEIIIYbsgB282Zuzjk9OlRP/HKeT/rvp+tyTVFy243PsuNJ9oZvHgLFOu8GWrR+2q8C3EncW2vRoudZ22dY+z3f5lDL7auuYD1TaGVCraoSYD20x+tlM4EsvqGf7QlWYpxlD/eJT0ZVc9ncBy3kMEHW2ErasNTNansHCUCxw+fudUDdlCvgeu96HdkrSxXXKeD2Xo84AAA+7SURBVOH7iWvh5IDQDpCvp+0/aA/+pQlwUP/1L+5v1eJku6ma7qL1SHerHA/0Oyg4E6eKME4U4ZSyjg6Ykgi/G5R3enDbEmNaNTvNcPoqTzPTlL2qwUBX4trkMYgX7YhA1YoHy9Oa9eYCF731GHi9wq7vAQjuCVyBxmOKE9dj5e0A+aKeEP6PJvzteSZH3BF5NLd5uk5npEDdu7QiBCeNKWXGWkbQz4sz3YXbkq1DiyasPKoJcK/u7xNacsgfMt5keZqJuVnxzkBX4qrgMYCxzp6lAAdwBThIXPae3QlF2LZgNZ9SrlZnXlyG68xF72CWuO5A8hWXOEC+yl+agp81+HvM0wwVQDs68OEC9DSulNLbWK+MHWU2WmT0sTcgtrcHIedpJiBmUfFAV6KqoOzzGCA50mmGIK656wfyFeRnbXHiWjs/NroD5Ovy04wlJefJQDLwigwcoCtB9hIXpGVZYeZr2dTAwA6QrzzNwMymMBl4VAYO0JUg9YkL0rKsMPO1bGpgYAfIV55mYGZTmAw8KgMH6EqQ+sQFaVlWmPlaNjUwsAPkK08zMLMpTAYelYEDdCVIfeKCtCwrzHwtmxoY2AHy9fTr16+fP3/++PHj+/fv3759+/Lly+fPnz99+vTx48cPHz68vLz8m69kIBlIBpKBZCAZSAYWZiA/m4Hn1BQmA4/KwAHeY0HqExekZVlh5mvZ1MDADpCvPM3AzKYwGXhUBg7QlSD1iQvSsqww87VsamBgB8hXnmZgZlOYDDwqAwfoSpD6xAVpWVaY+Vo2NTCwA+Tr8tMMfwMXj5Cpi4SDX3t70Rr/Z8YzlOa35z1WcQx0Jd6rPF4f4EyBDa4+gGvQ01pqieuG+Ziow9Hvirx2vjhEHm/IRtf1FXChfnKDxwczxWOFNXGaoVDNi74TlxHwWF37b95U1vCbaF185A0K6zL1wsYXfWGv1WtRAYsp5RrKEhe2jGSCDKU4VTsd1s8S4DKIkAHZlUD5LrVnQxDghsTVbluEYA8XZau3zq7HuBrCR72CuHwaYMJwQ6o5088O77P9co1pdL2vg4anGeDb4JoKteTSxMRTHl8r3wbX/mMglXN1oRNQIya27C3/+LgdY09/v77p/FLTy8tLDZUvTMg85ZHV9EgIYN06Na81kGZa3PgHom0tT6+OQc2mlNkSpItRyVs67yXeUjKsy+7geJoUG7pMUGQtdXhZ64flOa7JgOtK+68UiXLjNPOIgdx4z+JFY6nHReGvs+vjyPt3PK6+/qPc9bhQQZUcitIE6JCZVHMNSpxLoka32av6F1bSu7v2uJoKOTzZvk1MPOWxebvvVQ+XjESRRjdKCtVhRz7GXHakr834aow9vfun97uTVzrNlET9Bgc3jSz4GOZkmqMawvIT9OqQppS1aZ21+P97/1w3rgpOTmjzVq3qpF2QriyXdkdf2dDJjv22kJxN1eE71g/Lc1yTAdSVZO7F4caIFZ4b71m11tDE4qLgUR/E8qkqnlIeCr6jZHF1VB/qlsMVNJ1eEfIn891nh8uWOJcEa25E6pvCqvFMwZmXw2W1uck2ub7Sy9Y/PRixtrnDrINLre7obndRKjvq9SR0Lcaent68eRP/ijY6zZinLSPgsWErV6TdHpB6ZlT334Vz0E6mOVSAMfXpNTFNKRvbbQpjKLda2JrS2EI8iJoxXLUWitmKbYoeBOWDWMv/5RREEab8FgygrqQLLP7r8BaP3qV65iM2vqsLWGDefFhicYU7AO6fqSqeUh4GEChaXIHaw4k9LqoUWxWUrPZ80CB15emZ0HTZEueSsEi23yCVva74p/4oQ3S+e7/lXhbrHrwo6t9vn5/b+8otjr0ty5UFwPtc+nzhdQElrEgUSkpJ3lHfP724HmNP7/58nTvNlPIj2svFlgZCYHoI14YFtx9ZyM7fqr6ZnjJ2KnLTIzNUCFheFtnLxwxBREZrn3plFfU+6QRfb1FE0pudT/rd1W0ZSa91ae16o0aGcqoctX3OFmAAdKWS17X27DxRFheBWnXXz6CzuGZsV9aFuLYOIxsqSOHks8M2OnpPxj2s1+hYZydRWDVane/wNCNWQg91drmtIt2yIY+see8R5gsEIWPXt7e8bbRyDinVIMVkKABfibGnv/QPZ/559+cvfPnPZvZybJVAAprxqAFOzQje27fPFrxAHbkrUWk7IIqsB+Ww3Pu2PVJaBi3AnhWvZ21Y3kZbddIrtiYN/b6BvFk/bYW8WpEB35Uor+rdA5cCjxfAoEo6b8/OLhrgWnDXzyHzuObsV9Xu4jqjl4Y49/KWR6TeaaY8Z3XVFNcwJODb4ypK7YlI3orILdJaflHY7nMv5jHEeeMbAlehSPEJJwoyIX5+/98+tFjh4+NGjM2eZiiMt78l8ZvkCqcZduSqSq7WWHJXhSHBuqul8ncUoRBdbkk6J6M2JoZk5Xu1czVYgGTmo9dOrI2+SzPLB8GNVizWu0vrGZajXy4lizAgutIW0VaFMq1clzyeHTk7OHfPzizscBVjikC+/L6Z2shTyjPRx7oYV6z/KHe6uFzB3APVVivcA+2KoyEpXKVeRM0pJ3o93it13V3AG5PHev/OFwqXXVvhsjf3Rw0TW2BXTuzj45aMzZ1mKM4SpsgMX/JYoM43BWluqJtLszF2zN9RIDHJZQs7nHv9kVtRq3aSRqFPSnOkyNUDa+FQXOZnM5a65eemK1Exrb5nhzg1uLTNQrteB3Z61sV12nxZDYFL9jF59DTXW4ubUq7oY6v6XK26QxehQ4HLOzpqHfZwEVOWZJJt6bSnGctZz7PVPTUX9fTmq/9jk/pLU+2L5LSGy49eHoMV+0FXb7u1muuHa+C/ivsLCf8Cevy3PdKnYPTL5q4uri4gIySsH5Hs6lbRzpXXfTJHivVgrQmiBCX5P1WO1nfOX5cB1W2plGpia1a5wHgMAu5vpeptt1ZzW2DBCjNihcsa9kMVEQ5vZIKjX5VHu/hl8y6uy1y/qvX1cA0lF2NFdUhVj1/mHePu0jTALq7BUEEIeG2M6iZSiMsHGu6CoJkY9lzo12Rs/LMZF+wuYDmPLtxN0AkaW7Y6bFeBbyXuLLTp0XL2PLEdWUCippRVHOXjN1uiquM3dY0Q89G0y5U2MTfbNPClrfVsN67CU+XYFsurFRgQXcllfxewnMcg7M5Wwpa1Zi786BDGI3D5+51QN2UK+B673od2StLFdcp44fsOV6uOyahPJhe+5eQDi+vqQUMLVzH6DpdEEzppSlOV2MxufuVwlUAte1BYYqM79nk38NH+NRkbP81EbDIIHgO9gaADy25n9O+guIjVKFgO40QRTinr+IEpiWx1bEbyztimH9OCRyod58mZ2cwn9VPhdRlwXcmHw7XJo9coErQjAlUrHixPa9abC1zr7voegOCewBVoPKbY4Tq7JkbqcERn5zFoaKEHoy9wzddh59+Xnk3PlcpD4No8RoQE8hPNpPpUD+ZgIp7XM4w9+mnmjEwS6+4QWYTgpDGlrIIBxVmc6fy1JdvOUKlUPsUEuBd36yUtOeSvWrgLs5nd/RSsxYDrSj48rgoevUaRBG0r0FbiwfJUNicmA7g6HsreszuhCNsWrOZTytXqzIvLcJ256B3MHK6za2KkDkd0dtBBQws9GH2Ha5JLWFzlnzOASpz0fYm6wwV3BxSWZemO3WCXxNNshxmb+J2m5l1dMQge1c02CWulqURXZ++CyOHkP4UpZKpDyOuWXQzL3/GxNyCDpWc2s18jJUsx4LqSj473Ko9eo0jW2rMDuAIcLG5vGHgTdDay3zkdZV7hnPFyXOesensbh8vTz2kIPrHmGEfqcMK5zyzHgTuiaYAOF4c5MfoQblRcEzFBXBOBelWm1X94MBHWruq9A8YuP83MB5YWyUAycDMGYFe62Wr3c5y47sf1NVbKfF2Dxfv5OEC+8jRzv3LJlZKBOzBwgK4EWUpckJZlhZmvZVMDAztAvvI0AzObwmTgURk4QFeC1CcuSMuywszXsqmBgR0gX3magZlNYTLwqAwcoCtB6hMXpGVZYeZr2dTAwA6Qr6dfv379/Pnzx48f379///bt25cvXz5//vzp06ePHz9++PDh5eXl33wlA8lAMpAMJAPJQDKwMAP52Qw8p6YwGXhUBg7wHgtSn7ggLcsKM1/LpgYGdoB85WkGZjaFycCjMnCArgSpT1yQlmWFma9lUwMDO0C+8jQDM5vCZOBRGThAV4LUJy5Iy7LCzNeyqYGBHSBfl59m6Gtt6FuHeIRMXSS8wbfnXRTPAYxnKDVfHnUA9MeGMNCVeK/yeH1CZgpscPUBXIOe1lJLXDfMx0QdjnxHH0V67XxxiDzekI2u6yvgQv3kBo8PZorHCmviNEOhmhd9HR8j4LG67nw7I7mB37vo4iNvUFiXqRc2PvBdgUXX6jVMwGJKuYayxIUtI5kgQylO1U6H9bMEuAwiZEB2JVC+S+3ZEAS4IXG12xYh2MNF2eqts+sxrobwUa8gLp8GmDDckGrO9LPD+2xPF9Poyg8IVDfloq4PTzPAt8E1FWrJpYmJpzy+Vr4Nru3zCc1VnekE1IiJLXvLPz5ux9ge3z/v/vxFr5eXlxoqX5iQecojq+mRENS60bfkDGYUCqXVTrz2T/HAJT292peaTSmzJUhXi63EpffR9kujtVRw2Mi5rRzWKaMNXSYoolTqsDPrh+U5rsmA60p7eYli4TTziIHceM/iRWOpx0Xhmy0ORJvHqSqeUo4jHrvjcY3Zra7lcaGCKgkTpQlQITOp5rIlziVRo9vsVf0LK+ndXXtcTYUctlbf5OrKxMRTHpXuHSc9XDIMRRrdKCkUT6/9cufBZUf62oyvxtjEZzMchUHDUx5ZTY4lUb/BwU0q0TXMKBRKS1oaMYLlJ+iVjgvZyLNWOjET8cuIaJPWbSx0ut7+e/9cbaQzYGRxkjrbRstJHXZp/bA8xzUZQF3J5JWnPCIgpURut2fRkn2ZxUXBo72J5VNVPKXcj/r0XYvrtMVjaDhcQdPpFSE/Erp16LIlziXBmhuD+qawagRTcOblcFltbrJNrq/0svWZZ8Ta5g6zDi61uqO73UWp7KjXk9C1GDvjNKOewtvhiqJBSLZi1A9tMWs08JXxvYlPpjlUgDH16eVI9nFK2dhuUxmDhmfunEop8B4CJ11y33mhB0H5INbGcTkFIPIU3YwB1JV04dW9KitQxEPa9eC7fThvi8Jou9vdyhTGE5cWV7gERDVVxVPKExCgqsUFlR5Q6HFRXdm2U7qUK58N7mAdumyJc0lYJNsvD8uFy2rUMGWIznfv382UxboHL8L1++3zc3tfucWx92m58t0z7vOFQwCUsCJRKCkleUd9//Tieoz9D6AvZXiU4t6YAAAAAElFTkSuQmCC;" vertex="1" parent="1">
          <mxGeometry x="112" y="60" width="603.48" height="270" as="geometry" />
        </mxCell>
        <mxCell id="xIgc0pnBAUEfbklbajIn-2" value="" style="shape=image;verticalLabelPosition=bottom;labelBackgroundColor=default;verticalAlign=top;aspect=fixed;imageAspect=0;image=data:image/png,iVBORw0KGgoAAAANSUhEUgAAAsUAAAFDCAIAAABdqOQXAAAgAElEQVR4Ae19wa4cvY1uv8es5h28ydnMbh7hrjzAXZ31YOYBBt7M4q68PddwDMOG4RiO48SxDQQIchHAQBAgG8+/8/68hi+oKkokRaqk6u4qqQ4bP35JFEnxIyWKp7rdfbqvfv3jH/+o5nVG94B7YH8P/OMf//jur7098PXr1/23whUsOOqN4LhWb5ZTveTf//73embndA+4B3b3wN///ve9L1Nf//uXL1923wnXMOCoN4LjWr1bFuqJ//mf/4mq//a3v8W+d9wD7oH+PfC3v/3N7/PdPfD58+f+t8oKC496IziuFZthEinVE//zP//zxz/+Mar+9u1b7HvnQB749uTR6fToiUf3QDGdoXz79m3323SdAV//7//6p3/7VfzvX/7vn9bp6UFqw3ri9eNTel37TF/7RgiJKcE5nU6PX29xRq+Na8Ig0V07Wvf3G+Ay64mpmKD1xF//+tctgulrbOyBb08ePXr0yAuKjd2+yXJ//etfe7hQV9gA9cR/v5oF/9//+Zd/+9X//u0KNV2I0Cx6vbDnfxZ8e/L4qn8lXPtGAESsggjV0vXv3WvjmvZAhu56W2PWvAEuvZ6IxQQ9CX/5y1+ujtgX2NwDUE48+fb6sRcUm7v++gv+5S9/6eJGbTeC1RPfvz/771+N+4ji06dPVw81XLXs7r36ivf3174RtBs3VE1XBnptXFNoNHTXDdoGuJR6ghYTtJ7485//fF24rn0HD2Ahge0OJviSV/PAn//85/arvAsJrydaNsX2dxNYd+0bQUd1/crp2rimyOroWqLeyrsBLllPiGKC1hN/+tOfWgE4f+8eSGXE9Y9p7744oH1/+tOoHztg9cRv//2f/u3fn3VR56wx4g9/+MN19xZcTdd/GyDDcO0bwbhxU87KLLoM4dq4JisNdJeBoGrZABerJ/JigtYTR/1X1KrrHwiRHk0vKI4X9K9fv665ADuQgXqCfB5z3A9PfP/+/fe///11t9b2V1PAc+0bwYBFk9ZV/HptXJPRgI6+rvwmzv39/Qa4Uj2hFhO0nqD9q4TRlW7sAdjR5M8aLyg29v/1l/vjH//YQW2wxgT2fOL7n/7rP36VPp65Rt+eMketJ659I+j1hMhaVzhE18Y1mayjuwKcqHIDXHM9YRUT1IKrn4qI2zubeAA2dPYi9cUmRvgi1/TA73//+z0v0jPW5vXE9+/wTzxGfcvj48eP1wzy/f39Pn8KXPtG0G/cqz+euL82rmkz6OiuuVE2wAX1RKGYoPXE7373u2uCdd0bewD2s6geFNLGRvlyF/XA7373uzPu9D1FvZ5o2gi7nNxr3wjajbtF5XRtXFNkNXRNMW9m3gDXqVxM0Hri/fv3zQhcoFsPqNt5l7TUrYvGN+z9+/d7FgVnrM3ribHf79ggj9/fw9EV/2T09WPx98KFN/S1bwSZogLE60IKHro2rikMEt2Fg6Oo2wDX6Y9Lr2jXb37zm9j3zugesOp8iz463odp/29+85sz7vQ9RaGeIJ/HHPfLJ75///7hw4eNth+c3vS69if8rn0jTCVSwrPVF2xcG9e0GTJ0V6+UNsDVUE+8efNmo1Phy7gH3AOX8MCbN2/2LAp87eCB7eqJS+yZeh1HvREcV/0eEJwN9cTr15t8ebow0IfuAffAWg+8fv3a7/TdPfDb3/52bQC7ljvqjeC4Vm+79O9FF1W8fPlykccZ3APugX488PLly91vUzdgg/etd9lyR70RHNfq7dRQT/z6179evYwLugfcA9t74Ne//rVf57t74Kj1xFFvBMe1OlM11BPPnj1bvYwLugfcA9t74J//81/9vx48sH3oN1jxqDeC41q9eU5fv379/Pnzp0+fPn78+OHDh/fv37979+7t27dv3rx59erVy5cvX7x48fz582fPnt35yz3gHhjKAz1cpW7DP//nvw61a9xY98BKDzQ8n7i7u/vpL/eAe2AcD/zyyy/jGHtYS48aBcc11pbdIF5eT4y1Jdxa90CDBzbIIA3WPFTWo0bBcY21ozeIl9cTY20Jt9Y90OCBDTJIgzUPlfWoUXBcY+3oDeK1fz3x4+nNzdMfFw3Mj6c3p9svP39iW6P8CmbULOs87oErekDPIF9uT/mRU4m6aV9uw/HSJ8+hthzYc9YB2Qa85y6lR0HVuqFV6vpNxAZcTXr3dkI9rrFujXpcTeGizOfUE19uyVeh8i7c5umlM84pbSkkxeSlaL79EusIkZ4U5tMJM+uSGQmN99wDo3hAzyBqvuZEODr5az6yypHUz1bUwPPB7D2+IhDFgV32smIJFZKHmurPV6eSF+2vjkKwQg9FcG3u1kIccuZzQaq4cnPz2nUq5+LumDuRTwlNrhWlo9S5aJI8x6W4NK4pN1jS0WOP49KDgG7Ndws9PAQdD9bpsfyNSfOfimSfx1w4zGRN7GomLYQERGL4UE/WclNwGWwlu0ZfMEOq8LF7YAAPkAwCm159zaeL54WITTsr/LRF1tgBmeUzqzwh0BaLWvPOnOnz1Ies8lBT/QZeFL1kS6JA1KoGqEQilLoUS6JavaWQWXJFeo4LIiIjD4bmz7MkUHFrK0okqWjaWZM5LqqOWi43GOXrr1/GRexVd4ux4ag7fv48nfquJ8JmzLYogT51uQMQObaSXaOPtTMkIh+7BzQPVGcQ8/m/dkPw05atO51Z+5ZHAZ6JgKodTOTmLVkj3ET6ZSMPNdWfr85XuOBIj4JqgEpUTaFYVAZGXAgZ460eZLgM6zVTJSsd0/5sjIxktY1rGDNcTAm1blOzmBVrBmVcRKO6W6Yjp/1JQg7fmc8nNO3pPQRi4dSFoy/zTCkk81yJJSomenH/YivtaDVDyvvYPTCGB7IMwpLClAfCfRwOMskLCG+aFBNRQtAnoZBvv8wfYUI9WpsfQ+vARulovlxZn4hUPU9JJXGZC3eyKAT9OfymT3Us+oqCaGKmgsV+jivsDJKJQTwEQdDy8pXe0rQ/G7B8BRQtbZvMcVF5at2mZlEjVvXLuJJKfbfoVPGU8cx6ItsmySilF3aWLCjMkDD7aRBzzcBKkgNKYisEgJzVNaYZQtiH7oFxPMAziHJM0qnRTthMk1Pqny+TUwirel8S14W7J60PM8aBJUJtXXmoqX5iaZvSdm4ehVk+ZCEOv7WeyKRN0yhwk6l5wsbF6jfVTOn+sBuSmJQJ3krTtNd2B9WA5LiEZbB0tE5usBrt+/FwXLYd+m7RqTvWE2DQzc30Ty8SGDUkYfuIjRLE1X8JErhTkKeKeN5yQsmctCrNSFZ6zz0woAdYBoFjwo8DTeq0D0jZEeRnT68nmMDkq0CKyZf7D5Q8Ff+2K/BPB5cbykWrRzK3gH5ULPFWK21nZFGYxWH529vsn7Yxq5SbjF6k2EdEBcOkIwqsDVMarlpxBlQUUnJO6NS3n2A6Z8hxlay5jl/Psb0ky3HZnDoqcjhx580tOeFnPp8QitNQ2eNzXGR4pPHyzxa2eyZMQnngoGowbWDLPFdpBpPxgXtgSA/wDALngZz9eZhurTQnOAN24JtOHjuSMLfqzIbVeDZQD2xyfLI0JRqll9ID6JMvnOUrp0Wu0ONRgAUQqObJFIXclILRzc7JtbdSCK7m1RWBCJyhVBhlSGGMYW3FoPETXKLSkdz01pFz/Y0Jrmt59Zx6gjosOxh0Evpkj5DudLTiRpJCs2Bxr8SQJhPwtGJL1JK1SbfCDKLDu+6BQTxAMshkMbth2bnjx6GIL500g22Jga5F+8qBNVaYyUsLFaTpugW2S0zJKFCYAsGCVQvTzFi6Cpu42EDiupTiFpSXWpPq4bhK1sTLh4p32+e4uJml3dJQfGxTT4BBNHnBGIuEpZCIA8e9QMuUVLOgb7BFmXPMQB3eugfG8UApgwgUVtrMkwmeXKGADItnVp7C8HRjyg7ywBKVqUuZigslEa1n4dV4z6TxKNDkB4rZWLFK4KV5tGgXlSsyrp7kuOw/yswUr6CdPaKhzHeixrUaTRLkuAwjA7uJLCnrqMdxccPadovpky3qCXXxSFwKSSllRCXom4mAvsF2ms2YgRyJS2bgCt66B8bxgJJB4o4XKDR6dvWDjErkygpnlt2eUWoW4Ac2zvIOZSosFIUofySSk09oV+qSKOjGJN+nXrSFiijTkU92qJycu8yY4JoUGknUIJsxUFACmPgnaLS+YitG3oYOxwWLKK9Qy5jIGlbbjpXj4usu7xYaFdpnetbVE4aLpdeX/5DJatqLaEbfYMsQG4OxdoYBwsnuAeYBJYOYqYAJhoHFKugXObNhwaoDW8VEwLTyE9ELdZUoWJqFa4GN2q9MW5qYnMl01kSGC0zVX/qThGo41AfM5JqCkgnUDDJcptBYt0YJl+nhiJ0Gi/YjA3TW1RNMxZmDK4QEfYNtjYVXMKNmWedxD1zRA0oGMVOBYkaoFORfBUDUrwdFQxup6sBWMZF1W/mJ6IW6ShQszUp01tq/Vs4yLadnuIwkapDN5xP5SvxfG+E8ILzGVsxw4YJZayLLOHsglHAt7xZla+agzvn9jlzbGsoVQoK+wbbGrCuYUbOs87gHrugBJYOUniZoZULOLwuMy9lfdWCByXhp9k9XkSFwPSjUKUoU6DTtK0m7gDd/B4DoqnIm4W/vZrhsU9XIhLfOjMgoArl2hakdRS6R4cpZZspYt0YJ1/JuyRNBCl08R/vXE2asfMI94B44zwOlDHKeZpeu98BRo+C46vdAD5wbxMvriR4C7Ta4B67igQ0yyFXsPpbSo0bBcY21TzeIl9cTY20Jt9Y90OCBDTJIgzUPlfWoUXBcY+3oDeLl9cRYW8KtdQ80eGCDDNJgzUNlPWoUHNdYO3qDeJ2+fv36+fPnT58+ffz48cOHD+/fv3/37t3bt2/fvHnz6tWrly9fvnjx4vnz58+ePbu7u/vFX+4B94B7wD3gHnAPuAcyD/jzibFKTLfWPdDggQ3+Immw5qGyHjUKjmusHb1BvLyeGGtLuLXugQYPbJBBGqx5qKxHjYLjGmtHbxAvryfG2hJurXugwQMbZJAGax4q61Gj4LjG2tEbxOuy9QR+KQa2l3e38n0v+SJi+TisEg7qrvI1rrmhV6TUYw3f6Hulb4a5IkBXXeGBDTJIhRUPnaUiCpijsL28y1oSQuXqGi4BIA7rl98/92q4Kl3SNdsGuFbWE7BNxAtuJNw92Ebvlr5by/rxenUHqsS4zNwRy8dhLgxT+KJXqrqnKTMKTS0VlcZccSy/nS0CpT90Nq2vB2C2W+q5osmuelMPbJBBNsUz5mI0CkoS6ShztvmX4kJJmoPoj4+MlHs1XIhv5FbFlW9I9TbTL5B4DeIXZAbC49f3Fa+7u7vMmcbuEWQhBqapNnO+fAfm1yST0CHffonWCI3cDuCKVln1RGRgCy8NQPX8Qr9PIslirtiii4VkHRCBFhxFeVCd1IN0b0f3gJpBRgc1nP1aFMQ5xCG2OkaesXQe6+yL5GcKN0wQXCljYaaDtoPc2wAnshJckXaETo5L21CwBYtf5F76ieHT/f23J49Oj558W6woLlRPhH395enNgsnGj8WsORXxjDLhSI07hVAuWU9AzOYygoUKBnMZUUWPdsaOrAMIgPRD7JF76lAenJJ6kO7t6B7IM8joiEa0X4uCOIc4xFaDuX3m1KwgNA0XmYZuxLNP7hXWVA4rcFVq6ostw8WCkmyNQUsk2ivtw/B+x+vHNQWFVk+QuxJWREOwpVZMdXO8WqciBy9awRiGQvfEYnggycPS8wv/5o/WMGHlEk3zl6sn4uKTiWmYejCTRqnH6Qli7AFr4YX4Iz90NK8qrmAyPhjVA1kGGRXI0HZrURDnEE89tgIvcKdcyUeC1Tjj5h8YuXg1ReIi+QhzT8STcuuU7ZABF0vzl8u9qLu1lbha5Xvlz3HBTpKRCFHkz9EjIL7z+CgwnVdPhKXBHrKTwJK4iyZDwrr0QET74i/M5fZH3YnZepSXOGAlVAUKgq+iNWnPshscxSPfXOvAVU2dHSzS729cE1Wllq1JAZDVmDUWPamMPVkHUFG57iw0YRDmSj1xAe8M7oE8gwwOaEjzlSiEc9hT5lzjWI6rv9y7BhPIcFxrtfQnp+KabgR6rdE7bwZRfYNDPfH68elU8RGK/PnEbEq6nYAAI2zPcCnch7e3NxKbcU0m2MmYYIY4sqw+ACcl/WBzHKk1MkWzyIDM0hXp1JEFSXdy3mwIo6PG1Mo6gK6lOyoovJHvNUk9aQXvje0BNYOMDWlA6/MowDlkf2Dh0cX2DJSrMueq9RgukRHnnDIDDddVzK7zI5Q0Bq44EopyyxYZcpE2CsPVJto1dxHXZbx6gk9P1FQT9/dZPTHtfXpx4WnAdrV3UUEGkq6WaxfsZE+HMiMXhnXwFTf0tN1pYYLlGbIaLRWJxoUlcGZShKP0WIeuPT+tCGsIelQ6daj1aBLqzrGmhyNyzusJ4djDDIsZ5DAoeweSRWFKb/QYTpQL/CWGikQqND6Odp7nGC6xYBe5dyU8hmuljh7FirhE/Fbaf6osJu6zegI2brjucAeTp/aERN47wCtPb/EiJGoAk4BJz6ACOf31T/7Oj9YsCBN9YlUys6abypHwgeepSIj+A41kQLqM3riwgpWQSHdavVy4NK7t7L14oJhBejHy8HaIKMQTDp057WEX2+CTlDf0lDlTL5I51wSB4+oz956Pa42GPmVIvJq2VgPzyu+foBfgVDGETY2nAVvDreXbmu5LUMDG/CLU9CfweEdGa3LhOCU0mRYm7XjEcRWhwRqiZmkLWmLRLX0WXeoBw6mp1Kv+fMLy4uh0kkFGhzKw/SwKcNDjQYynEI8/tgZazB76dNQ2T7OxTAi6iiYqwwWSsOD0QoQRT758nBJrmhiTdrmK0HDuMMN1rsJO5C+Hy4zRunoi2wozAenYGn40rbGe96XNmHqGboUcrcmF45QQUy0EZvx7IvHDLsfTk6hGL60nbcEZi24otDwGR5tYxUezrkj0esL07uATl8sggztiV/NJFPCYR3tmAtKxjfO8o+aliUWXjGdcJASuduWI4LI0RKuSIcgap5AwtypGYD4z94plCsMKXAXpfqcyXHlQKo1XYwSy6+oJa1XcItgafKY1Bj8hr/FAtCYXjlNkCatr8i7A+fL06Y9JJys92AB0z8fFojebZQnkdK8ncp8cg5JlkGPAGgxFRRQwuWBrIFxINYZUIOfJr8RdNdeASylnFqAyC0zeMxzCFmCDClyMf5RBhmv1njDdjk+OKr6AIvs8Zu5GDDu2OUegmNYY/IS8xgPRmlw4TpElzC4wZzVyIJInAYo0VAjTi7zTCXxpguu16Ipu8/mEymsQvZ4wHDM8OcsgwyMaEUBFFDARYWvA3DhzGlYguQHXmfXE9Ml1kT4nYjn3oqlNbQWuJn29MGe48gux0lRzH/rzCbzrs1bdqKF8YKwqW2VYLsGWW5TMkwfQWM/rCcMxw5OzDDI8ohEBVEQB6whsDZhmHjf4CXn13UF0iG4DLqOeSKmK99Skmmc6lU0YuWJYgWuF1v1FMlz0D1ceAPpmuWK4uQ8vW08oKzvJPeAe2MsDWQbZy5AHve5Ro+C4xtrWG8TL64mxtoRb6x5o8MAGGaTBmofKetQoOK6xdvQG8fJ6Yqwt4da6Bxo8sEEGabDmobIeNQqOa6wdvUG8vJ4Ya0u4te6BBg9skEEarHmorEeNguMaa0dvEK/T169fP3/+/OnTp48fP3748OH9+/fv3r17+/btmzdvXr169fLlyxcvXjx//vzZs2d3d3e/+Ms94B5wD7gH3APuAfdA5gF/PjFWienWugcaPLDBXyQN1jxU1qNGwXGNtaM3iJfXE2NtCbfWPdDggQ0ySIM1D5X1qFFwXGPt6A3i5fXEWFvCrXUPNHhggwzSYM1DZT1qFBzXWDt6g3hdtp7Ab2PB9vLuvsK3slzeyLE0trjUv/lqrNhukEHGcsgu1lZEATMmtpe3s+WYV65egatSU19sjmt1PFbWE7DtxQu+qwxPA7bRrMIXcYEa9Xsc1QOgEuMysSPts75ITfIlTIpEE3M0pYuOrANogIRL9VDN7pB6ugDnRpgeOGpmNAF3OUGjoCSRrjJniwMpriQnESqZNDBLvn5yr44rIRy1p+LKw6AGTL8WYszwBg+Ex6/vK17a73eAMajqZ/otCUEW/gfTVJs5n7jnpkmVyOWCg7h+hTTJNN2PTcxokxKHaFswawoJcSJKTr/vEZkTOestO0WaTgNkSVMeXFLqQbq3fXpAzSB9mnpgq7QoiNOFQ2x1b1w5c+qL2tQcF5gvcrtCmjQ25ZImZtviupkcV51c71w5Lm1DhYCp91HEp4lNk6f7+9ePTxW/BnZ/f6F6IlxfX3gdEg2lHfWeU4lUCryh3cE6vWmbNjFTm0if2A9BmcOmhjAQVSxJ38Rzkmc4Mcw9aTrI4ZYhJjE5yoMTUg/Sve3TA3kG6dPOY1ulRUGcLhxiqzkkHNTrZU5tyTJN4gLjO869ZTBkVuIiU0N3M1xG6i9twulnLG+eGvsQ3u/49uTRqeIRhVZPkDsRPI2GYCu8D9zxGpt+XRMvNcEJQ6F74jA8kMRNBtWmpvuxiTlZRHrEBtIFBjGcCbe36vlEjShkYkbG6Zf44sOprKMlAdX/57sgmuSdDTyQZZAN1vQlpAe0KIjshkcZW6Fii8wplqwYSlxmHlJRNeWSJuYK04ssEleReaDJHBfsK5n8IVjplubwFvfhXE88evJt8R0PpZ4IS4M9oZOe3Iv9E6ygpUQy0p6KuhMz1kY/GIkPQEx6CDh0elgku14DIa90mpi5VdOInjfah1k+nq3lRE1loC2zyeMI+hGgIT2hRaZ5banHNMknuvBAnkG6MOuBGaFEIZyuvjJne1AkrjlrZYp0+pRg1OQrss6cvlVW8+rLrKgnSFz1kn1zqrjyMCjXp31NT48F4uV+Ck8nasoJ5f2O2ZQUfSDACNsz3Au33O3tjcRmXH50oWAVl1NIVGJF3/zBVlsXdwof8acxMBcAVKCF9ZbZZB1AV9elgw03qeqYcEk9Nlqf6cEDagbpwbAHZUMeBThdMQeDL/BAYnuGf+A8r8ucrYsauDrMvW3Iclxt8r1yF3GtuNEUnKdTzVsd4dlF9nxi2vv0OsLTgK2yYB0JFWQg6WoFVSBPX3yLgyBWXJRL6U+1UhOzYRZCwulgIpZi0wLTiDBWol1mk/4ApGRt1T1AlJq9nsDwjdEWM8gYEA5gZRaF6YjTw4WHHtvVqFHB2szZsnCGKwiDBfSlJhfKYPUvl3tbQP38+VPH1aikQ/YirmzDrAIwfx6zpqgQ9QRsm7BVcAdbVXb7ZUw0wo2GFx8ApGdwGbAQXha4HgfFhKskz9x+wZuaAaSDxJxKgVkRZUPd9a0iTUikOwU4Tw/1Sznnxh4oZpCNbXm4y4kojJA5q4IlcHGZjnIvN2x5VMS1LN4tB8FFbxOrnot/czYwh++fqPtAJqsn4pkA58F64dLHSxNbw7PlrRa1zdJszK83Q38klxci+rlLC1dm7toCc7QjPc8kJN6dTAXHKS9aUXGxMGpzilQgpQEiBUX9j1WP1OHjPj1AMkifBj4Iq1gUxsicVXFhuKREP7lXWrY4LuJalO6X4XK4zOCuqyeyemEmIB1bw7WmNda9m6681DN0M3JhoYkPDGXPPwJZ3qizziZmZkd8e5RT08hwWCXaSraqRVRdkej1RIrZCL3LZZAR0PZqI4lCdgZnAtKxNaAUEpouGU9u45NdY31OJrj4BIwKpk7MYPAWuTc3bYlSxLUk3PF8hivtjkarzeCepn8uuuL9Ds0C3NPYajw1W82QW3i/I392oPypz7awaafmryZmjkAV/fL06fwPVYz6pfrdncptoVrBDV0aeT2x5KG+5rMM0pd5D8Saiijg2cTW8IyWlwxWSa5MElKsNCa4+s29JQDGHMFlcIxJznCt3hPmPoQbt+pfd+jfZyX8iqcBWzGNQ9MaZLDb1R7QVYKhWY0ciPSJ/yzbxMzW061OZ9B6P0OXY6phUMm2EJVMrULwekJxSsekLIN0bOtxTauIAp5NbA1n9JM5wcAKXAYOIDel0ybmwqJVU+fhqlpiF6YMV+XFkRtr7sPwfsfiV0/o/74jXwZPA7Y5R6CY1hj8hLzaA0SH6KZrHR9nKLUEyoR9jXyhLTCjUCdtbnsCYlU0wnSvJ4RDOh9mGaRze49pXkUUMGNiaziir8xZgcvAgeQ+c+/5uBBfX22GK3d/vBHK15q5Dy9bT/TlPrfGPfDAPZBlkAfuj33gHzUKjmuf/bR21Q3i5fXE2uC4nHugew9skEG698H+Bh41Co5r/73VYsEG8fJ6oiUgzuseGMoDG2SQofyxj7FHjYLj2mc/rV11g3h5PbE2OC7nHujeAxtkkO59sL+BR42C49p/b7VYsEG8Tl+/fv38+fOnT58+fvz44cOH9+/fv3v37u3bt2/evHn16tXLly9fvHjx/PnzZ8+e3d3d/eIv94B7wD3gHnAPuAfcA5kH/PlES4HnvO6BoTywwV8kQ/ljH2OPGgXHtc9+WrvqBvHyemJtcFzOPdC9BzbIIN37YH8DjxoFx7X/3mqxYIN4eT3REhDndQ8M5YENMshQ/tjH2KNGwXHts5/WrrpBvC5bT+C3sWC7Frgtd4Xvs7IXG3mmxVH+LVUjR7pk+wYZpLS8zwUPVEQBMya2l/dcS0KoXL0CV6Wmvtgc1+p4rKwnYNuLF3yhFp4GbKNZhS/iAjXqtzOqB0AlxmViR9pnfduX5EuYFIkm5mjKFTuyDqBuF47SAzCDlHquaLKr3tQDR82Mmzrx7MVoFJQk0lXmbAFLcSU5iVDJpIFZ8vWTe3VcCeGoPRVXHgY1YPoFEmOGN/jp/vXjyl/wYL9XPrsUjEFV81eyw1CQhf/BNNVmziduxGlSJWk7yqgAACAASURBVHK54CCuXyFNMk03aRMz2qTEIdoWzJpCQpw4/f77HClGR53YSoOo2y1HUR5LD9K9Hd0DagYZHdRw9mtREOcQh9jqGK+cOfVFbWqOC8wXuV0hTRpl9rLXmW6WmDaLjJeYzHFdQuv+OnJc2oYKASveO/CDUSLKCO705FHtL4JdqJ4IF90XXoegNaxVb0SVSMXAG9rO0+mb72liPwRlDhsL4Y+nT7/MiOy4BQZpPajBjUAWou5RSz2phwn4YGAP5BlkYDDDmq5FgZ7Vyr/EwpG+XuZsd6/EpefY6c/LPCc3ZZ0m5nYkXELi4rPjjjJcxiUh9qYEXNqHp9Pjx4/rfmFUqyfInQiroiHYCkuAO154ochJI8E6/WpmPm14IEmbDKpNTdu0iTlZRHrEBtIFBjFEGYM8T8Ns4ZUfYcOr5wNDe73tywNZBunLvAdijRaF/jJnezAkrq5zbwM8iatBtGvWHJf2B2u4VfDPUoFn8QY/Pfn2en09EZaGa4vcbGAJDIlFwQpaSiQr7amoOzHX/DQ3iGkXqU4Pi+hXMrF/tqCJmVk9D+h5o32YluNJpHzTy1kwEM3W9c2BQqbZLqlnJnszvAfyDDI8pAEBKFEIuaSvzNnuWIkLQPWae1vQSVwtsj3zqrjyW00JoX1NT48F4uV+uocPUDx68m35N8vz5xOzKel2AgKMsD3DuXAf3t7eSGzGNUkXClZxOYVEJVb0zR9stXVxp/DR9JmJ5MhJC/BwIFy7rAOoTt1RQeNNqjriOqVl+KI+GsgDagYZyP5jmJpHAc5hzMEAEo8utmcAX585Wxc1cPFcEqByUus6gn9F7hUaFoY5rgWBQaaLuC7j1XPqiWnv04sLTwO2q/2MCjKQdLWCdpCnr3w/Y8VFuZT+dMU3MRtmISScDiZiBTEtwEcs36AUayVKsJ/oUEEDUTpR1iVsER8M7IFiBhkY11imZ1GYcgE9hpgdsF0NEBWszZwtC2e4gjBYQF9qGqIMVv9yubcF1M+fP3VcjUo6ZC/iyjbMKgDr6wnYNmGr4A62quz2y5hohLsPr0gASM/gMmAhvCxwPQ6KCVdJnrn9ot7pgYHCR8nlVnEUIZHuFLb80C8v4Rzde6CYQbq3/igGiiiMkDmrXC9wcZmOci83bHlUxLUs3i0HwZWuHquaC/Tmko5oe/y6/J4He78jnglwHhgXVsZLE1vDs+WtFrXN0mzML0JDfySXFyL6iRtO1j+FCex5HOpu4gWPBB9qhcOiXMQqOtJRYDg1lXpVrWWEPh+O6AGSQUY0/yA2syjAiY4HMZ5CPOfYGsjLCS1qm6XZWCYEY4UWMsMlBcumEguvnnulZYvjIq5F6X4ZLofLDO665xPZrp8JSMfWcK1pTXofkUums5B6nEMfFRaaBMBQ9vwjkOEcxiOfNDcxJzHoLTjEnl8SNFVzR/HRbFskej3Bo3Wc0eUyyHF8sj0SEoXsPM8EpGNrGFlIaLpkPOONT3aN9TmZ4OITMCqYOjGDwVvk3ty0JUoR15Jwx/MZrrQ7Gq02g7uunrBWxz2NrcFnWmPwE3LJA1AGVLzIYwDTTs3CJmZislVOfHn69MfExuqXL7fJQFgyP3IVujnL0sjriSUPjTqfZZBRgQxtd0UUMLlga+DV8pLBKsmlzCl5K8cEV7+5txILZSO4KHn4foZr9Z4w9+GR6okV8VYv7ECsfT5hMTNj9LilM5gqiLn4wLJIsYIptmoVyVQeez1R9s+4s1kGGRfKwJZXRAHrCGwNtGYeN/gJWc9BhKG9W4GroDRkTpb5MPkpWa+JubBo1dR5uKqW2IUpw7V6T5j7cOXvdxjuwNOArcFmWmPwE/JqDxAdopuu9YpbPOxr5AutsvnFAtcd5hYl8+RpNSzxesJwzPDkLIMMj2hEABVRwIyJrQGzr8xZgcvAgeQ+c+/5uBBfX22GK3d/vDvK15q5Dy9bT/TlPrfGPfDAPZBlkAfuj33gHzUKjmuf/bR21Q3i5fXE2uC4nHugew9skEG698H+Bh41Co5r/73VYsEG8fJ6oiUgzuseGMoDG2SQofyxj7FHjYLj2mc/rV11g3h5PbE2OC7nHujeAxtkkO59sL+BR42C49p/b7VYsEG8Tl+/fv38+fOnT58+fvz44cOH9+/fv3v37u3bt2/evHn16tXLly9fvHjx/PnzZ8+e3d3d/eIv94B7wD3gHnAPuAfcA5kH/PlES4HnvO6BoTywwV8kQ/ljH2OPGgXHtc9+WrvqBvHyemJtcFzOPdC9BzbIIN37YH8DjxoFx7X/3mqxYIN4eT3REhDndQ8M5YENMshQ/tjH2KNGwXHts5/WrrpBvC5bT+C3sWC7Frgtd4Xvs7IXG3mmxVH+fVYjR7pk+wYZpLS8zwUPVEQBMya2l/dcS0KoXL0CV6Wmvtgc1+p4rKwnYNuLF3yhFp4GbKNZhS/iAjXq9ziqB0AlxmViR9pnfduX5EuYFIkm5mjKFTuyDqBuF47SAzCDlHquaLKr3tQDR82Mmzrx7MVoFJQk0lXmbAFLcSU5iVDJpIFZ8vWTe3VcCeGoPRVXHgY1YPoFEmOGN/hMePTkW/nHyu/v79nvlc8uBWNQFfktCUEW/gfTVJs5n7gRp0mVyOWCg7h+hTTJNN2kTcxokxKHZFuaTDQQDPaG0HA6Kp1baRB1u+UoyoPqpB6kezu6B9QMMjqo4ezXoiDOIQ6x1TFeOXPqi9rUHBeYL3K7Qpo0NmWdJmbb4rqZHFedXO9cOS5tQ4WAkUtdQaWJTWwrn0/gGmL74xBbZKNtuOi+8DqEzse+eiOqxCgyX8XaJQwm5fSmbdrETG0ifWI/sQi6sS4jdPjR30gnWuauNAgkcSOQhZgg5cEJqQfp3o7ugTyDjI5oRPu1KIhziENsNZjhSF8vc2pLlmkSFxif59jpz6Oc3pR1mpjLVi/PSlzLEmNwZLiMS6K0Cadfor95auzDM+sJcd+hIdgKNwN3vPDCXZlGgnUyO582PJCkTQbVpqZt2sScLCI9agPtT0duKgW4SzkXUQVdmCy88iNsePV8YMIwH3bigSyDdGLXwzJDiwI/5vY7xZOntsic7TGRuLrOvQ3wJK4G0a5Zc1ywr+Q1EW4V/LNU4Fnch+fVE2FpsIfcbGAJDIlFwQpaSiQr7amoOzFjbfSDkfgAxKSHgEOnh0X0K5nYP6/QxMytmkbsvIG2tEYcxQ5ZNLFxrbIOoLJsrSQGLKSmmyaknsTuvbE9kGeQsfGMab0ShXAO+8qc7b6VuABUr7m3BZ3E1SLbM6+Ka7oR6B2ohNC+pqfHAvFOCXoev1788IT6+YnZlHTdAQFG2J7hXLgPb29vJDbjmqQLBau4nEKiEiv65g+22rqkU2A8m0m6EqCUovplHUB5pZ5JLix0QwsZoEs9dA3vj+wBNYOMDGhI2/MowDmMORgw4dHF9gyc6zNn66IGrg5zbxuyHFebfK/cRVwrbjQF5+n+/vXj0+lUUVJkn8ec9j69uPA0YKssWEdCBRlIulpBFcjTF9/iIIgVF+VS+lOt1MRsmIWQ6HQ0M9knAQJLmqXCUxKSNmNxJ/UEyZko57ye4H49zqiYQY4Ds3MkWRSmXECPIWYHbFcjQgVrM2fLwhmuIAwW0FeevZrSaRNzi/U2r47L5h9lpogr2zCrUIX3O749eVRRUIh6ArZN2Cq4g60qu31DEI1w7+MVCQDpGVwGLISXBa7HQTGFVaL/YJQGEmAmV2mi1MN9x2e9nqh06nBsxQwyHJpRDRZRiIednG3sYhug7pg5q1wtcHGZjnIvN2x5VMS1LN4tB8HVtLUamNfWE/FMgPNgvXDp42nA1vBseatFbbM0G/OL0NAfyeWFiH5aT+efUIn6tMcaeflN2GM384gEggzYoqQcI32plfrBi9RU6lWvJ5a8Oeo8ySCjQjiA3SwKcKDjQYynEI85tgbqckKL2mZpNpYJwVihhcxwScGyqcTCq+deadniuIhrUbpfhsvhMoMb6gl4x2P5DQ/yfCLb9TMB6dgarjWtSe8jcsl0FlKPc+ijwkKTABjKnn8EMpzDeOST5ibmJAa93CESSOTgE5HM9ZGRwcHV8NEsHYleTxB/Hqp7uQxyKLdsDIZEITutMwHp2BoWFhKaLhnPeOOTXWN9Tia4+ASMCqZOzGDwFrk3N22JUsS1JNzxfIYr7Y5Gq83gzp+fWPt9VsIM3NPYimkcmtYgg92WPABlQMWLvH1i2qlZ2MTMEWiirGgBBjxb0MdqpgR3XkLTzVdfHHk9seiiQRmyDDIojrHNrogCnmJsDcBaXjJYJbkilUiRpTHB1W/uXQKhzBNcyuy4pAzX6j1h7kO4f2uKCfXfd2SexdOAbcYwEUxrDH5CXu0BooN0wVC8xyM5EPFGj9T544+kGglTFjORMz/1QQ8h05smGJnpxMGCr5Gt1Ho9UfLOyHNZBhkZzLC2V0QBTzG2BtZ+MicYWIHLwAHkkDllfgvEi+beggXW1Hm4LK370zNcq29Tcx+e9/0T0kV4GrCV8/PYtMbgJ+TVHiA6RDdd3vhwQ9nPKBP2O/KFtsCMQldtc4uSefK0GoZ4PWE4ZnhylkGGRzQigIooYMbE1oDZV+aswGXgQHKfufd8XIivrzbDlbs/3h3la83ch5etJ/pyn1vjHnjgHsgyyAP3xz7wjxoFx7XPflq76gbx8npibXBczj3QvQc2yCDd+2B/A48aBce1/95qsWCDeHk90RIQ53UPDOWBDTLIUP7Yx9ijRsFx7bOf1q66Qby8nlgbHJdzD3TvgQ0ySPc+2N/Ao0bBce2/t1os2CBep69fv37+/PnTp08fP3788OHD+/fv37179/bt2zdv3rx69erly5cvXrx4/vz5s2fP7u7ufvGXe8A94B5wD7gH3APugcwD/nyipcBzXvfAUB7Y4C+Sofyxj7FHjYLj2mc/rV11g3h5PbE2OC7nHujeAxtkkO59sL+BR42C49p/b7VYsEG8vJ5oCYjzugeG8sAGGWQof+xj7FGj4Lj22U9rV90gXpetJ/DbWLBdC9yWu8L3WdmLjTzT4ij/PquRI12yfYMMUlre54IHKqKAGRPby3uuJSFUrl6Bq1JTX2yOa3U8VtYTsO3FC75QC08DttGswhdxgRr1exzVA6AS4zKxI+2zvu1L8iVMikQTczTlih1ZB1C3C0fpAZhBSj1XNNlVb+qBo2bGTZ149mI0CkoS6SpztoCluJKcRKhk0sAs+frJvTquhHDUnoorD4MaMP0CiTHDG3wmLP+66P09+X3R6FAwBlWRn9EU5Mg+dcA01WbOJ27EKLskGhzEmRTSpK7pJm1iRixKHIJtFh3kgrlTZIhzUWNqpUHU7ar3SIiSlrAe9xed9P7AHlAzyMB4xjRdiwI9q+RYCrLAe+XMKVZbHOa4QubiuUQhTYpl9iou18Rc1FQxmeOqEBqAJcelbagQsOK9A78da9zg8/OJ10+efLtfeF2onggX3Rdeh6ixUG9ElUjFwRt8Q0+zOr1pmzYxU5tI37Kf0CFYczgXQisNAnbcCEQhWX6qVZAHJ6QepHs7ugfyDDI6ohHt16JAz2plPRGO9PUyZ7tnJS49x045J8/JTVmnibkdCZeQuPjsuKMMl3FJiL0pAZf24cr3O3AJcvcBCQ3BFtnmFrjjhReKnDQSrD/Dj3Lm04YHkrTJoNrUtE2bmJNFpKfaQPzGuyBoSQSlMFl45UfY8Or5wAhG73bkgSyDdGTbwzFFi0J/mbM9HhJX17m3AZ7E1SDaNWuOC3ahvCbCrSL/5JxxLd7g59UTYWmwh9xsYAkMiUXBClpKJK/bU1F3Yp6uQ4mfzYelNQ5Ql9OJ3fJiJvbPKzQxc6umkXXeKJ32QUqOqV5ZB4CBaLYhN2FAplmZ1EPX8P7IHsgzyMhoRrVdiUI4h31lznbvSlwAKs+xhecTMufiWOSn+e8qnBVtztyOhEtIXHx23JGKa7oRqE+VENrX9PRYIF7uk55Hy+92aJ+fmE1JAQUCjLA9w/VwH97e3khsxjVJFwpWcTmFRCVW9M0fbLV1WU7hdD4yntLMi8g6gMrqjgKOm5tUdUyKpB4bg8+M5QE1g4wF4QDW5lGAcxhzMCDEo4vtGajXZ87WRQ1cHebeNmQ5rjb5XrmLuFbcaApOeD7x7cmj02n5E5nZ5yemvU8vLjwN2CoL1pFQQQaSrlZQBfL0xbc4CGLFRbmU/lQrNTEbZiEkOS3pwXQs0aaFcaSJSpuRV3XUTJRzXk9Izx5lXMwgRwHZPY4sCtOZp8cQswC2qzGhgrWZs2XhDFcQBgvoq4Pc2wLq58+fOq5GJR2yF3FlG2YVgOn9DqgoFgsKUU/AtglbBXewVWW3X8ZEI9z7eEUCQHoGlwEL4WWB63FQTHQVjZ48dvtl7V2vOIqQSHcKW37oqZHeH9QDxQwyKKbxzBZRgCPfe+ascrLAxWU6yr3csOVREdeyeLccBFe6Ymjpl/Wnq7eBOdUTi+95sHoinglwHqwXVsbLEVvDs+WtFrXN0mzML0JDfySXFyL6uSMLl2vu2gJztCM9zySk0F3wVPAtraekvDmWjgLDqanUq2trFnNxn+jEAySDdGLRQzSDRWGMzFkVJoZLSvSTe6Vli+MirkXpfhkuh8sMbqonWp5PZLfgTEA6toZrTWusezddjqln6GbkwkITHxjKnn8Esrx7Z51NzMyO+PYop1pwE9eCI4HRYOGO4qNZfyR6PZE8fqze5TLIsfyyLRoShey0zgSkY2sYWEhoumQ8441Pdo31OZng4hMwKpg6MYPBW+Te3LQlShHXknDH8xmutDsarTaDi5+fWHw6oX0eMzMC9zS2GcNEMK0x+Am55IH82QF/7DCPyJ/7pp2ahU3MxGT7ztdrgS9Pn/6IfmLPFLjSeWSapXKrRK8nVLccgJhlkANgGg9CRRTwFGNrgNTyksEqyaXMKXkrxwRXv7m3EgtlI7goefh+hmv1njD3YbhjK4qJ+wHqiRXxhuOb1ciBSN8bmBU3MTNjrLjp9HQ2SenD9NHBQgairFbf6wnLM6PTswwyOqAh7a+IAp5ibA2cZh43+AlZzzWEob1bgaugtCmdNjEXFq2aOg9X1RK7MGW4Vu8Jcx9O73csfDPmNM0+P6H7A08DtjrX8qMwQ67585i2HjKTrm98nKHUEsgf9jXyhbbAjEJXbXOLknk19Yh/HvOq4dlXeZZB9jXnga5eEQXMmNganjLzuMFPyKvvDqJDdCtwCQk57DP3no9L4uxjnOHK3R/vjvK1Zu7Dy9YTfbjNrXAPuAeCB7IM4n7ZwQNHjYLj2mEznbHkBvHyeuKM+Lioe6BvD2yQQfp2QBfWHTUKjquL7VVtxAbx8nqiOhrO6B4YzQMbZJDRXLKDvUeNguPaYTOdseQG8fJ64oz4uKh7oGMP/PN//qv/148HOt4pK03b4H5aadl5Yo5rtf9Of/jDH34fXh/D63fh9SG8fhte78NrOpa/+Ms94B4YxAP9XKVuyT//578OsmvcTPfAeg+cvte9poywumxxQfeAe2BjD/iZ3djh1nJHDYT/HW9FvE/6BvHyeqLP0LtV7oFzPXDUa+xcv2wuf9RAbHA/bR4rWNBxrXa71xOrXeeC7oGuPXDUa6xrp2vGHTUQfu9q0e6XtkG8LltP4LexYHt5117hW1kub+RYGltc6t+kOVBsj3qNDRSCydSKQGDGxPbyGFuOeeXqG9xPlZZcls1xrfbnynoCtr14wRdq4WnANppV+CIuUKN+j6N6AFRiXCZ2pH3Wt31JvoRJkWhijqZ00ZF1AA2QcKkeqtkdUk8X4NwI3QMV15gu6NTLeoAGQkkiXWXOFuT6vSsRKpk0LCL5+sm9Oq4Wz/TJq+LKw6AGTL8WYszwBj/907/9Kvz3v/7r/30vvOiRIM4CY1AV+d0rQSYC0AXTVJs5n7jnpkmVyOWCg7h+hTTJNN2PTcxokxIHbpvukGBxiBZxL+qU7bJTpOk0QJY05cEVpR6ke9uhB4wz26GlRzJJOU5aIMTpwiG2ukeunDn1RW1qfj+B+SK3K6RJY1MuaWK2La6byXHVyfXOlePSNlQIWPnW0cQm8OH5xG///Z/+4/98/V56aUeCFBCzJ/E0YDuTWRPO2xdehzAGHCgHM9Qi2XWMAqGFpTUOnd60TZuYmVFpoIACy/ghZLamnxtNWmJvkhXicTZ1pOkgh1tGMSkIUh7UJPUg3dsOPWCc2Q4tPYZJ5mHUAiFOFw6x1Txy5cypLVmmyfsJjO8495bBkFmJi0wN3c1wGam/tAnxN7SMG/z0/fuf/us/fvW/f/u9/NKOxPyXNd5LpLwwDAp/q0d2PsoDBfORGacND+B0oeBQbWq6H5uYk0Wkp9gQSLe35BwqTEQF7SLnolPCG1Hx2VTe0ZJAeIwk/X++C6j93r+qB4wze9U1H67ywmHUAiGyG0pjK/zIcyUfCdY8K08My0kiV7RAkfeTuYSKqimXNDEvmL04LXEtCgzCkOOCnSSTPwQrv3gniHzn8VHgOH2veDjx/ft37Uj8nK4psCfYMN1TcAWJ/RPW1T8mYU8FlRIrXHIZjUUTxDQOnR4Wye9XoMirdEZby8yMmge58bNVdAJI+dqaukij4pHIOvI40kUM6ck1whKphy3ig748oJ/Zvmw8njXKcVICEU5XX5mzPRTyfgJQvebeFnQSV4tsz7wqrinP02tNCaF9TYc/O9N9eap5OGHVE7Mp6c4BAoywPcO5cCxvb28kNuW0ykWCVVxOIUmpxrH5g622ntwpQAmGUlShD0+TphcHomun4jqHrAOoLbp0sO1GljZSj76aU7vwgHKNdWHXsY1QjlMeCDhd7G8WPJDYnuEjMGBd5mxdNL+fAi6eshRS6zqCf0XuFRoWhjmuBYFBpou4LuPV07/8278/+778yo8EVg30/OBpwHa1n1FBBpKuVtAeNvF8I0PDtzgIYsVFmLTuVCs1MRtmIaQ4TQgEFVBvbm6f/gh8AUeq16Is7xBxPhFHQY/Ah2pV6Zko57yeiC7tv6Od2f6tHt1CeWR+/vyZBWI6+pRzomBOPcMHqGht5mxZWr+fZK7pIPe2gHqo32eVbZhGp03sp3/671ffK17ZkQjPIMJWwR1sfX6i/TImGuHex4sPLKZncEJQ+r8QLrFee45igrUYEDIAPnoCoxx1I/WI1NUMhCyOsoREulOAqXHI722PHsjPbI9WHs0mfmACOhGIeMTj2U51BCE1/s0TVqLiIvkpdp3rer2emLWK5c9da0v5Iq4tDbnwWgQXvU3E35l0OF00DcynxU9ifg8vcSRSNQGQYb2wMm5nbA1/lLda1DZLs3HbqSgvRPRTH2pPMyKQ3LV196vwCAyV1+0X7ti5RFtaos0pEUvCzxYAiJRA/e/PJ6T3Oh7LM9uxqQcyTTmMLBBw9OPximcL8wO2hkPKCS1qm6XZWLHLWKSaTO6nXKZsKrGQ58HoGlUj501+zJnPoRRxnaN4Z9nL4TKDe6p5syP7/ES262cC0rE1/Gdak+p0LpnOQupxDn1UWGgSAEPZ849AhnOo7OsmZm7QskPieoJVDLnaeVTpFEMVl+YjuYDXE2oA+iSya6xPEw9olXKASCCyMzgTkI6t4ZhCQtMlkzWpZ+huJxfvp4Kp00pg8Ba598K42tV1I5HFa/WeMIO78vsxDRfhnsbWYDOtMfgJueQBKAMqXuTNAtNOzcImZmIyeR+IU9OIoYJ18JxBP1YaiV/0mLiYI0MTAOFZ6Ho9seCgnqbJNdaTWQe3RTmMFYHAs4mt4SQtLxmskqzYJVlax+R+6jf3toJ6SJ+fWL0nzH14pHpixc6B44t3dxQPROUWb2KO2qCzFDc5H1YKpZFiBtMcBlI85wgU0EqKKYOrSPZ6ouieviYrrrG+DD6ENcphrAgEnk1sDVeYedzgJ2TFLjK7qkvqiRXyIcnJfBSIStJrYl5hDBM5DxdT1dUgw7V6T5j78IHXExDuvLRW9jPui7Cv2UOQAjMKddLmticg8lwbJns9YTimR3LFNdaj2cezqSIQcDbhDGJrOMHM4wY/Ia++O4gO0c3uJzG/POwz956Paxn5HhwZrtz98UYoX2vmPrxsPbGHk3xN94B7QPNAxTWmiTnt0h44aiCy++nSjttJn+Na7XivJ1a7zgXdA1174KjXWNdOf0jG+b07VrQ3iJfXE2NtCbfWPVDrAa8naj11Nb4pBPH/V1tnH8Ub3E+7AHNcq93u9cRq17mge6BrD3g9sXt4YiVxyFj4vbv7BmsyYIN4nf7whz/8Prw+htfvwutDeP02vN6H13QefvGXe8A9MIgHxGXmw409EL9pO647yMZxM90DKz1wuq9+3d3dNVVDzuwecA/s6IF4jXlnFw/k9cSOm+EaS2/w9+41zF7U6bgWXWQxeD1hecbp7oHhPXDUzDhKYEQdM4rZlXYedXc5rsoNkLN5PZH7xCnugYN44KiZcazwHDUKjsv3ofDAZesJ/DYWbMViFxhe4VtZLmDV0CpaXOrfZzVWqI+a8Q8XBcyY2F4eYMsxr1z9qLvLcVVugJxtZT0B21684Au18DRgG9crfBEXqFG/nVE9ACoxLhM70j7r274kX8KkSDQxR1O66Mg6gAZIuFQP1ewOqacLcG6E6YGjZkYTcJcTNApKEukqc7Y4kOJKchKhkkkDs+TrJ/fquBLCUXsqrjwMasD0ayHGDG/wQHj05FvFpzK1z2OCMaiK/O6VIAv/g2mqzZxP3HPTpErkcsFBXL9CmmSa7scmZrRJiQO3bf7Gb0EMFofgEPeiTtkuO0WaTgNkSVMeXFHqQbq3fXpAzSB9mjq8VfSk80OrRUGcLhxiq3vjyplTX9Sm5rjAfJHbFdKksSmXNDHbFtfN5Ljq5HrnynFpGyoEjG9gCUwTm3hO9/ffnjw6nR6/XqwoLlRPhOvr1qs5ZwAAIABJREFUC69DpL1hrN5zKpGKgzfE3RymdXrTNm1ipjaRvmJ/iB+zmdn65enTH0QB706yJ3mGOdNU6DGngBxuGcWkIE95UOElXIC6vL2+B/IMcv01H+YKP57e4IEKj2npcdOiIE4XDrHVnBgO6vUyp7ZkmSZxgfEUN0rr9KZc0sSM665tJa61enqTy3AZqb+0CfHXLY19GN7vgIpiuaDQ6gkoVOIxSr9mYxgE3Imdj3LfC90Tg+GBJG0yqDY1bdMm5mQR6Sk2BNLtLTmHChNRQbvIaWKOzMBZeGlJIPxOGolt0HW+C6JJ3tnAA1kG2WBNX0L+oLAWBZHd8ChjK5zIcyUfCdb5eac8uYu/cZyrWaRIXGYeUlE15ZIm5kXDFxgkrgX2YaZzXLCTZPIPd0W2fSaQfOfxUeA4r54IS4M9oTNdWGCJ2D9hXVpKpAjYU1F3YsbayP57fVpaegg0gLqcTuyW123u0SZmZvU8yM/bbBWdAFK+tqYu0qh4JLKOPI50EUN6QisskXrYIj7ozgN5BunOxEMaxM+UEoVwuvrKnO2BkLgAVJ5j+8i9LegkrhbZnnlVXFOep7efEkL7mo4/zz3dFPP7HTWfoMifT8ympDsHCDDC9gznwom8vb2R2PhBVfUHq7icQlJF64nmD7baKnKnACUYSlGFPjxNml4ciK6diuscsg6gtujSwbYbWdpIPfpqTu3FA2oG6cW449oB6TdlxZ95FOB0sT+w8EBie4Zv4Dyvy5ytixq4eMoKUDmpdR3BvyL3Cg0LwxzXgsAg00Vcl/Eq7OqaYuL+/j6rJ6a9T68jPA3YrvYzKshA0tUK2kGevvL9jBUX5VL6U1ZoYjbMQkhxmhAIKqDe3NzOn5kIOEhmisKsQ8QZPQ2CHgEP1arSM1HOeT2RfDpCr5hBRgAwoI35mc2iACy3X+jhmigX+EsMFa3NnC0Oz3AF4YCf5JoOcm8LqJ8/lfqvUUGn7Hq8ZmOzDbMKBLzfAR+fqKgpRD0B2yZsFdzB1r/vaL+MiUZ4nIIXHwCkZ3AZsBBeFrgeB8WUASGooltnU6IcdSP1SLNTJEayOE4REukqn+tEAW/79EAxg/Rp8thWhVMqjqe8n+IRj2c71RGEFJIduZfNLlmOiovkxw/yRbxc3F1i+YssuJGSIq6NbLjGMgQXvU3MjYUP2RqYp++fqPpAJqsn4pkA3LBe2NS4nbE1nFLealHbLM3GbaeivBDRz12aV9QRSO7aAnOUSvliJoGDlNftl+xzHszRRCHttjmFSkJfSgNECor6359PSO/1PSYZpG9Dj2BdONTkco+YWBTYgY5nC6ggim2U5Z1yQovaZiE2lsecK141YrikhrKpxEKeB2nmESoBDn8VmIVs07CIq0lTX8yXw2UGd109ke36mYB0bA13mtZY5ymdhdQzdDNyYaGJDwxlzz8CGTauslWbmJkdFWkirid8J4Zc7TyqdIqhikvzkVzA6wk1AN0SL5dBuoXYi2Hs8uZGkShkZ3AmIB1briCOCglNl0zHOfWitnM7BFeuqmDqxAwGb5F7c9OWKEVcS8Idz2e4Vu8JM7j4fsfKfy8qnId7GlsxjUPTGmSw25IH8vqVV7PziPwFYdqpWdjEzBGYojMbQwXMeM6gHysNrpOMmDihi+6SFYJdG3o9oXmlX1qWQfo1dWzLige1Igp4NrE1vKHlJYNVkiuThBQrjQmufnNvCYAxR3AZHGOSM1yr94S5D6c7dvnLJ7TPY+ZOxdOAbc4RKKY1Bj8hr/YA0UG6YCje3ZEciMot3sQctUFnyWo5H1YKoVHMYJrDQIrnHIECWkkxZXAVyV5PFN3T3WSWQbqz8CAGpRMb/4ZJR7ciCng2sTXc0k/mBAMrcBk4gBxcJvNRICbPRfEm5ii1snMerpWLbiCW4aq8OHLTzH04vd+x+N2YwMA+P5EvARQ8DdjqXHC9yn1kcGbk1R7INEVCXlor+xm5w76OKQM6BWYU6qTNbU9AKuPh9UQnsaw0I8sglXLOdkkPVEQBMya2xvJ9Zc4KXAYOJPeZe8/Hhfj6ajNcufvjjVC+1sx9eNl6oi/3uTXugQfugSyDPHB/7AP/qFFwXPvsp7WrbhAvryfWBsfl3APde2CDDNK9D/Y38KhRcFz7760WCzaIl9cTLQFxXvfAUB7YIIMM5Y99jD1qFBzXPvtp7aobxMvribXBcTn3QPce2CCDdO+D/Q08ahQc1/57q8WCDeJ1+vr16+fPnz99+vTx48cPHz68f//+3bt3b9++ffPmzatXr16+fPnixYvnz58/e/bs7u7uF3+5B9wD7gH3gHvAPeAeyDzgzydaCjzndQ8M5YEN/iIZyh/7GHvUKDiuffbT2lU3iJfXE2uD43Luge49sEEG6d4H+xt41Cg4rv33VosFG8TL64mWgDive2AoD2yQQYbyxz7GHjUKjmuf/bR21Q3iddl6Ar+NBdu1wG25K3yflb3YyDMtjvJvqRo50iXbN8ggpeV9LnigIgqYMbG9vOdaEkLl6hW4KjX1xea4VsdjZT0B21684Au18DRgG80qfBEXqFG/nVE9ACoxLhM70j7r274kX8KkSDQxR1Ou2JF1AHW7cJQegBmk1HNFk131ph44ambc1IlnL0ajoCSRrjJnC1iKK8lJhEomDcySr5/cq+NKCEftqbjyMKgB0y+QGDO8wQOh6uc71O/bBmNQVfX3bYNpqs08TuJGnCZVIpcLDuL6FdIk03STNjGjTUocuG3z771nxAIddUuDaDQsR1EeSw/SvR3dA2oGGR3UcPZrURDnEIfY6hivnDn1RW1qjgvMF7ldIU0aZfay15luFi1DFmVWT+a4VqvqSjDHpW2oEDByqSsQNLGJ7XR//+3Jo1PFz4teqp4IF90XXocoJhs/omVdk1EDeEPbeTp98z2t2B/ip9hs0SNUeBzEoIIEbgRloSBIeVCT1IN0b0f3QJ5BRkc0ov1aFMQ5xCG2GswrZ05tyTJN4gLjWUKaxXV6U9ZpYi5bvTwrcS1LjMGR4TIuidImxF+3NG7w8H4HVBTLzyi03wODQgVvsOXnE8Cd2Pkoj4jQPTEYHkjSJoPqpKZt2sScLCI9xYZAur3NzqFFJ9qmX+iLj5yyjna04bfYUghmZecDo1Z5vx8PZBmkH9MekCVaFMQ5xMyArfAOz5V8JFjn55okK08MZmLM5WspEpe5hIqqKes0Mdfab/FJXBbfaPQcF+wkeU1AsLIrYobKdx4fBZbp8xOvH58ePfm28CujSj0RlgZ7Qme60GAji/0T1qWlRAqEPRV1J2asjX4wEh+AmPQQcOj0sEh2EQdCdiApSCmSM3OrplF+3marsgmLzrXKQwZSaEmmchKdACPTrE7q4av4aFwP5BlkXCzjWq5EIZzDvjJnu38lrjlrZYp0+pSKZCa9Vu7NjCoQJK4C61BTKq48DMr1aV/T4Q9UCNp0p8R6YvkBRV5PzKak2wkIMML2DG/DfXh7y5/n19QT0+KipAiGKm5ab5/5g622ytwpQAlWicvfokvdsg6gKwiVs2jQfJOqjoks9ch1fDyqB9QMMiqYYe3OowDnMOZgwIVHF9szsK7PnK2LGrh4og1QOal1HcG/IvcKDQvDHNeCwCDTRVyX8SrUE68fw95efMMjqyemvU8vLjwN2K72MyrIQNLVCtpBnr7y/YwVF+VS+lOt1MRsmIWQ4jQhMFQWPQrGjkQJ9mNxx1SixEyUc15PoIOO1hYzyNHAdosni8J0xOkxxEOP7WosqGBt5mxZOMMVhMEC+uog97aA+vnzp46rUUmH7EVc2YZZBQAC//j1tyePmt/vgG0TtgruYKvKbr+MiUZ4nIJXJACkZ3AZsBBeFrgeB8WUASGoSLcVLTOe6ZlmCIl0p7Dlh55p88GYHihmkDEhDWi1iMIImbPKywIXl+ko93LDlkdFXMvi3XIQXE2XcgNzfL9j8fEE//cd8UyA82C9cOnjpYmt4dnyVovaZmk25hehoT+SywsR/bSezj+hEvVNUKuZiZzwCAyV1+1Tg/6FqKrrSkeBF2nRQL3qzyfqfDoeF8kg4xl/GItZFODox4MYTyHmB2wN7OWEFrXN0mwsE4KxQguZ4ZKCZVOJhTwPRtdIfetzb65pgVLEtSDb8/TlcJnBhXqi7p930Hoi2/UzAenYGs41rUnvI3LJdBZSj3Poo8JCkwAYyp5/BDKcQ2VfNzFzg5YdoqxX93zCUM0dxUezbZHo9QSP1nFGl8sgx/HJ9khIFLLTOhOQjq1hZCGh6ZLxjDc+2TXW52SCi0/AqGDqxAwGb5F7c9OWKEVcS8Idz2e40u5otNoM7il8emL5zY77e1pPWKvjnsbW4DOtMfgJueQBKAMqXuTtE9NOzcImZmIyeR+IU9PIQmXRk6RVgVGOxb7XE4suGpQhyyCD4hjb7IooYHLB1gCs5SWDVZJrcomUWRgTXP3m3gUM2jTBpU0PS8twrd4T5j6s+SDm/O9Is89j5n7F04BtzhEopjUGPyGv9gDRQbpgaFYjB6LyvKCJmSyy/JzBQmXRqfIFX1NWq+/1hOWZ0elZBhkd0JD2V0QBTzG2Bs5+MicYWIHLwAHkpnTaxFxYtGrqPFxVS+zClOGquV9US819OH1+YuGbJ6bpI9YT4Ky8tFZqCfRq2NfsIUiBGYWu2uYWJfPIo5iSDV5PlLwz8lyWQUYGM6ztFVGAUwynFVsDq5nHDX5CXn13EB2iW4FLSMhhn7n3fFwSZx/jDFfu/nh3lK81cx9etp7ow21uhXvAPRA8kGUQ98sOHjhqFBzXDpvpjCU3iJfXE2fEx0XdA317YIMM0rcDurDuqFFwXF1sr2ojNoiX1xPV0XBG98BoHtggg4zmkh3sPWoUHNcOm+mMJTeIl9cTZ8THRd0DfXtggwzStwO6sO6oUXBcXWyvaiM2iNfp69evnz9//vTp08ePHz98+PD+/ft37969ffv2zZs3r169evny5YsXL54/f/7s2bO7u7tf/OUecA+4B9wD7gH3gHsg84A/n6iu7pzRPTCaBzb4i2Q0l+xg71Gj4Lh22ExnLLlBvLyeOCM+Luoe6NsDG2SQvh3QhXVHjYLj6mJ7VRuxQby8nqiOhjO6B0bzwAYZZDSX7GDvUaPguHbYTGcsuUG8LltP4LexYHsGdkP0Ct/KYqz0YMgtLvVvvhprW2yQQcZyyC7WVkQBMya2l7ez5ZhXrl6Bq1JTX2wPHpf5dVVanBjzynoCtr14wRdq4WnANi5f+CIuUKN+j6N6AFRiXCZ2pH3Wt31JvoRJkWhijqZ00ZF1AA2QcKkeqtkdUk8X4NwI0wNHzYwm4C4naBSUJNJV5mxxIMWV5CRCJZMGZsnXT+7VcSWEo/YYLs39eA+zEiGgzW+FGFbGPNcT8BOj08v+aTDt+7bBKDSC/O6VIAv/g23RGjFHhuKem2ZUIhHC74Xn+oPvOGmSabofm5jRpjwQCTuZI05ECCEemtGomn9XONdAeKArTacBslxKeVCd1IN0b/v0AMsgfZr4AKzSoiBOFw6x1b1y5cypL2pTc1xgfspvQVIhTRqbckkTs21x3UyOq06udy6GS3qU7jxWIiioKC//IVmoJ6CYwDLi9ePT6fFr9fc8LlRPhOvrC69DFJONH9GyLr+oAaBql7BOl06NarROE7OmYCoA0LofT59+mblYnqCWwoRdKFga8rWl6XRDWC6lPKhR6kG6t316gGWQPk18AFZpURCnC4fYal65cubUlizTJC4wHrMbldTpTbmkiZmuvaYvca3R0aMMwyU9SnfeQj3BbwzGfLoPP1ieSggoLtKIFhZaPSHuO7QJW+FU4E7XIx8J1vlv7+wu5VByIaiWtC1t/NKOdKqiMJGamJMY6Rl+YcZxl5oSRGvolhlhtvBSPcYNmdY73wXSbh9f0wMsg1xzIddd8IAWBXG68PhiK7TxXMlHgnV15sz1LFEkrq5z7xIYMi9xkamhuwyXTOV057ESQUIWOzf9nibcIqfwdIIWEGZBodQT4ZoCNaEzXVhQAlDbyFP5rDpIP+6ZT0XdDI+5ZZELxLTrUaeHRfSL1rColhntoa1tfAouWESXlmOqj/aTBkrFvpylWg2rJtdQU5T3TVC/t316gGWQPk18AFYpUQinq6/M2R4IiQtA9Zp7W9BJXC2yPfMyXAtXwnTPyWiGbSvuBFZ8nODxBL7ZEZ5GNNQT05VDrj8gwGrYnuFcuOVub28kIOPyowsFq7icQqISK/rMiXXytlNgBg2WAG0puirVQOnYX9g8uDiyzx/huLnhtU0IrMJLxLzblQdYBunKsodkTB4FOK/0WW3MmHXHvei89ZmzqFaZNHDxDBGgcpKiqoW0Ive2qP/5M8fVJt8rN8O1cCWIogGfCiiBZOHQ6wlWYOB7HtnziWnv0wsQTwO2qx2LCpitoI2uVtAO8vSVuyE8M6Qsen9yaxOzYRZCItNRLQmeBAhiufWoRNOAc7SV/gCwuKhcMcjNRDknNyFdw/v9eYBlkP7MeyAWZVGYcgE9XJgdsF3tGVSwNnO2LJzhCsJgAX3l2StmLcqW9y+Xe1tA/Xw49UTmcnIlYBdcN0WUUqhD2U7T6wn6/geWE/einoBFwlbBHTwvDMsSUnpLI7OeE4i5VJxZW11PzHiFMPXC1n2KKVs7HLDJATTJAF+Uo4eQ+GrWRTRk2hcIckVetfFZrycWnNnZtJ7xOzPy8OaIKMCR7j1zVsVE4OIyHeVebtjyqIhrWbxbjmpc62O39vMT8UyA8+AyC1ccXn7YGp4tmxu1zdJszK83Q38klxci+nlpk1fUVCPnLTw8iEK0LKBE0o8ei515Uo6JDO9WM3KxvEQDf1MPUP97PSG91/e4OoP0DWNw61gU4JzG4xXPFp5ebA3E5YQWtc3SbNyWOY31OZnh4lMhreR/9ihM9ekU4PBX9KPUe964iOs81btK57iMfK5vM9ib+isFevr3HeT9DfPjE/T5RLbrZwLSsTW8p5sbmHXJdBZSz9DNyIWFJj5YLj74j6KwcZWt2sQclYWODovwJAaOMNEJs9pd5jQ4+IJ8NK8Uicb+Uw1y4v4eyDPI/jY9PAtIFLIzOBOQjq3hpEJC0yXjya19p9hYWCUTXPl8wdSJGQzeIvfmpi1RiriWhDuez3EZ+VyPXQ2z8v0TpLiI73VAR7zfofkN9zS2Gs/0PCNVNAaPQU7nI2fI61e1miJLm3ZqDm1i5tZpol9ukyEwH48WDLCaKcH9aWrgi8eRZkWcrOsYW6pO2Lk290CeQTY3wRes+Xwfnk1sDa9peclgleRiKpHMdWOyu/rNvXVQGBfBxeijD3JcTfncYGZ7cv5+TPgaq+mlfnQi1BXd1xMrwg3HN17kKB+IeKMjET+WkoqAacZiJnL5WwphMkjOXherpdMpl2NqCxoY3zwA9qI+TYjTjC3FmXzUjQfyDNKNaQ/IkIoo4NnE1vAOy90Gj0G+bj1hLFoih+wl81EgimwISpqYS6vWzFXEq0ZNdzw5rqZ8bjCzPTnXE+xBhDE4Yj0BIU+XN9ZUyn7GvRH2NfKFtsCMQp20ue0JiDzXhsnGljK4nby3B/IMsrdFD3H9iijA2YQziK3hJpa7DR6D3F09AXb2mXsr4mU4uW9yjqtwJeQ3gs2ceC9bT/TtTrfOPfDAPJBnkAfmgC7gHjUKjquL7VVtxAbx8nqiOhrO6B4YzQMbZJDRXLKDvUeNguPaYTOdseQG8fJ64oz4uKh7oG8PbJBB+nZAF9YdNQqOq4vtVW3EBvHyeqI6Gs7oHhjNAxtkkNFcsoO9R42C49phM52x5AbxOn39+vXz58+fPn36+PHjhw8f3r9//+7du7dv37558+bVq1cvX7588eLF8+fPnz17dnd394u/3APuAfeAe8A94B5wD2Qe8OcTZ9R7Luoe6NsDG/xF0rcDurDuqFFwXF1sr2ojNoiX1xPV0XBG98BoHtggg4zmkh3sPWoUHNcOm+mMJTeIl9cTZ8THRd0DfXtggwzStwO6sO6oUXBcXWyvaiM2iNdl6wn8NhZsq5FWM17hW1mq1z4oY4tL/fusxtoEG2SQsRyyi7UVUcCMie3l7Ww55pWrV+Cq1NQXm+NaHY+V9QRse/GC74nE04BtNCv/HjQmnb5fK0oYX1JdeSqkfdaXWEq+ZJUi0cRMgHTQlXUADZBwqR6q2R1STwfQ3ISCB46aGQuQO5yiUVCSSFeZs8V9FFeSkwiVTBqYJV8/uVfHlRCO2lNx5WFQA6ZfCzFmeIPTeuL145P1W2DW74GBMaiK/Cq3IAv/g2mqzZxP3HPTpErkcsFBXL9CmmSa7scmZrRJiQPaRqeIE9mX0FI6qiQtUVHklKbTAFkupTy4pNSDdG/79ICaQfo09cBWaVEQpwuH2OreuHLm1Be1qTkuMF/kdoU0aWzKJU3MtsV1MzmuOrneuXJc2oYKASveJuGGwluMg57qCfiR8vDaoJ4I19cXXodwm+aRes+pRCoO3tCg6vSmbdrETG0i/WT/j6c3MWjUOItOlGD3x9OnX+a+tjGQbSr0mFNgQVw9mUQESHFIqZdwAdXn/et6IM8g113PtWse0KJATyA5bILMtIWDer3MydaqGkhcNI1RBTq9KZc0MdO11/QlrjU6epTJcBmpv7QJpx9duXlq7EOoJ6CagJ8VXfF8Aq4xvJeWTwVwJ3Y+yv0vdE8MhgeStMmgOqlpmzYxJ4tIT7UhzFtmW3SidOraqmEeZgsvVmugas3/57sAtXu7hQeyDLLFor6G8IAWBXG68PhiKzTwXMlHgnX+lS2SlSeG6kyS67MoEpe5hIqqKZc0MVv21tIlrlq53vlyXLCTZPIPd0W2fSZsfOfxUeA47/2OsDTYEzrThQWWiP0T1qWlRHK8PRV1J2asjX4wEh+AmPQQcOj0sIh+0eYebWLmVk0j87wZHxapwYvrlA+cnAUoCNCwakKLTPMyUg+u7m2fHsgzSJ92HtsqJQrhdPWVOdtjIHEBqF5zbws6iatFtmdeFdeU5+kdqITQvqbju/PTTXFWPTGbku4cIMAI2zOcC7fc7e2NxGZcfnShYBWXU0hUYkV/xQ8Hl5wC8UpuTPZY9MQx9UA3h8w5ZB1AbdFdGjTepKojrlNahi/qo909oGaQ3a16aAbkUYDTxf7AwgOJ7RkuWp85Wxc1cPEMEaByUus6gn9F7hUaFoY5rgWBQaaLuC7j1XPqiWnv0+sITwO2q/2MCjKQdLWCdpCnr3w/Y8VFuZT+dMk3MRtmIaR8OhirVBMWnWiIhinihI0+P4ogUUR16UyUc7IuoWt4vz8PFDNIf+Ye1KIsClMuoIcLswO2qz2BCtZmzpaFM1xBGCygrw5ybwuonz9/6rgalXTIXsSVbZhVANbXE7BtwlbBHWx9fiLeeXST5X283ogaQCRg0jO4DFgILwtcj4N4iS0SvEOw42RGp27M+TN21LPcKi4lJNKdIpOnh+UlnGMnDxQzyE42PbxlRRRGyJxVQRK4uExHuZcbtjwq4loW75aD4KK3SX4XR8p00TQwr60n4pkA58F6YWW8NLE1PFvealHbLM3G/Hoz9EdyeSGiPzowdApXZu7aAnO0w3gHCNykvc1h0Ym+vLvg81wAKdKlAJGCov735xPotTFakkHGMPiQVrIowDmNxyueLTy92Bp+KCe0qG2WZmN5zI0VWsgMlxQsm0osvHrulZYtjou4FqX7ZbgcLjO46+qJbNfPBKRja7jWtMa4d6FgmY9g6hm6Gbmw0MQHhuY3OpzDeOSTwibmJAY9zSHstBN2i05YtK62BOczOLhL+WhWEIleT3CX9j66XAbpHWnP9pEoZGdwJiAdWwNOIaHpkvHkkhxq6G4nE1y5cMHUiRkM3iL35qYtUYq4loQ7ns9wpd3RaLUZ3HX1hLU67mlsDT7TGoOfkEsegIu44kXeLDDt1CxsYiYm6+UEaFNqFuPfoXB18+jLbYIC6vLDycVMAJytNPJ6ouSd/uayDNKfiQ/Aoooo4NnE1vCKlpcMVkkuZU7JWzkmuPrNvZVYKBvBRcnD9zNcq/eEuQ+PVE+siLd6DQeictc3MTNjlLgFZbz6CUtadKZvHlBexV4pAuypApGzVWOvJ6rc1A1TlkG6sewhGVIRBTyb2BruMfO4wU/ISg4is6u6FbgKekP2kvkoEJVc1sRcWLRq6jxcVUvswpThWr0nzH1I6wn4Uu3C6+7ubskLeBqwNfhNawx+Ql7tAaJDdPPSWtnPKBP2NSsDCswo1Emb256AyHNtmOz1hOGYTslZBunUzmObVREFzJjYGg7pK3NW4DJwILnP3Hs+LsTXV5vhyt0fb4TytWbuw8vWE325z61xDzxwD2QZ5IH7Yx/4R42C49pnP61ddYN4eT2xNjgu5x7o3gMbZJDufbC/gUeNguPaf2+1WLBBvLyeaAmI87oHhvLABhlkKH/sY+xRo+C49tlPa1fdIF5eT6wNjsu5B7r3wAYZpHsf7G/gUaPguPbfWy0WbBCv09evXz9//vzp06ePHz9++PDh/fv37969e/v27Zs3b169evXy5csXL148f/782bNnd3d3v/jLPeAecA+4B9wD7gH3QOYBfz7RUuA5r3tgKA9s8BfJUP7Yx9ijRsFx7bOf1q66Qby8nlgbHJdzD3TvgQ0ySPc+2N/Ao0bBce2/t1os2CBeXk+0BMR53QNDeWCDDDKUP/Yx9qhRcFz77Ke1q24Qr8vWE/htLNiuBW7LXeH7rOzFHsZMi0v9+6zG2hMbZJCxHLKLtRVRwIyJ7eXtbDnmlatX4KrU1Beb41odj5X1BGx78YIv1MLTgG00q/BFXKBG/XZG9QCoxLhM7Ej7rG/7knwJkyLRxBxN6aIj6wAaIOFSPVSzO6SeLsC5EaYHjpoZTcBdTtAoKEmkq8zZ4kCKK8lJhEomDcySr5/cq+NY2gnqAAAWJElEQVRKCEftqbjyMKgB06+FGDO8wUM98fpxpJ8ev7a+clv7vm0wBlWR370SZOF/ME21mfOJe26aVIlcLjiI61dIk0zT/djEjDYpcUDb6BRxIpFETiQZ7bJTpOk0QJY05cGFpR6ke9unB9QM0qepB7ZKi4I4XTjEVvfGlTOnvqhNzXGB+SK3K6RJY1MuaWK2La6byXHVyfXOlePSNlQImHIfEXSa2DR9ur//9uRRLCK+PXl0evTkm1pSXKieCNfXF16HEFNTV73nVGKSmX4ZXLuGwUs5vWmbNjFTm0g/2f/j6U0MmjAuRBRKvNxgogq6tZzSdJDD1ZNJXDnlwRmpB+ne9umBPIP0aeexrdKiIE4XDrHVHBIO6vUyp7ZkmSZxgfFaytLpTbmkibls9fKsxLUsMQZHhstI/aVN+PPn9Mv3xj7M3u94/dgqKLR6AgoVvJeWn08Ad2LnozwiQvfEYHggSZsMqpOatmkTc7KI9FQbwjwxG5kIiaig3TbO9Awq62lJALZNCta87PkuoPZ7/9oeyDLItRd0/YoHtCiI04VHGVuhhedKPhKsU8LPTu50C/zImc+gSFxmxlJRNeWSJuYzIAVRietcfb3I57hgJ8nkD8HKt8+Ege88Pgoc59UTYWmwJ3SmawrKC7F/wrq0lEgOtqei7sSMtVHpVICY9BBo0Olhkex6DQRSJs0WNDEzq+eBed7mmo/jKnAL5cuc8jgCFARoSE9okSm5QHOusMeHvXggzyC9WPaQ7FCiEE5XX5mzPSISF4DS0oNOnxKMmnxF1qEPYnP+nLkdCZeQuPjsuCMVVx4GJYT2NR3+7ISgTGGQ9QR8lCK++8Hf9sifT8ympIACAUbYnuF6uOVub28kNuPyowsFq7icQqISK/rmD7baukpOgXglN046KqDOiy1zttcTYO3NTao6pqWkHhutz/TgATWD9GDYg7Ihj0JISPTIY3LA9gz/rM+crYsauDrMvW3Iclxt8r1yF3GtuNEUnKyegE9PWNXE/X1WT0x7n15meBqwVRasI6GCDCRdraAK5OmLb3EQxIqLcin96ZJvYjbMQkj5dDBWVhPqI4tcNlCWnSL9AUhxRVV6Jso5ryeMEHRKLmaQTm0+nllZFKZcQA8XZgdsVzsBFazNnC0LZ7iCMFhAXx3k3hZQP3/+1HE1KumQvYgr2zCrAKR6IvwjD+PRRHhQIeoJ2DZhq+AOtj4/0X4ZE41w7+PFBwDpGVwGLISXBa7HQTHRVYJ3KMI4KaBSNwp+wRk11HUUaUIi3SnAeXqoW8a5dvBAMYPsYM/DXFJEYYTMWRUogYvLdJR7uWHLoyKuZfFuOQguepvQ4k/0p4umgXmqJ8oPJua3PVg9Ec8EOA/WCyvjpYmt4dnyVovaZmk25teboT+SywsR/dyNhSszd22BOdphvAMEbmLVEhFoKZ3anMIWUUo0gEhBUf/78wnpvb7HJIP0beihrWNRGCNzVsWD4ZIS/eReadniuIhrUbpfhsvhMoML9UThMxP0ExSknsjqhZmAdGwN15rWGPcueSrRdnUWFppMA0PzG13eqDOMJmYOXXMIvac59zSqh1rJqRmR1ROqrkj0ekKLVL+0y2WQfjH2bxmJQnYGZwLSsTVAFRKaLhlPLsmhhu52MsGVCxdMnZjB4C1yb27aEqWIa0m44/kMV9odjVabwT3B109Y/0KUVhPK5ydyG3BPY5tzBIppjcFPyCUPwAVd8SJvFph2ahY2MROTyftAhAra6FMAMjV3S1A5dyWnCYBrK428nih5p7+5LIP0Z+IDsKgiCng2sTW8ouUlg1WSK5OEFCuNCa5+c28JgDFHcBkcY5IzXKv3hLkPp3pC3ML6N1qR5xOWO/E0YGvwmdYY/IS82gNEB+mCoVmNHIjKXd/ETBZR37oIyrjfxZL1UCs5YUlSTDELKwdeT1Q6qhO2LIN0YtfDMqMiCng2sTUc1E/mBAMrcBk4gBwyoMxHgSgSYTNzYdGqqfNwVS2xC1OGq/LiyI0192H6PCZ/GKGMjlhPgKfy0lrZz+jSsN9ZGVBgRqFO2tz2BESea8NkrycMx3RKzjJIp3Ye26yKKMDZhDOIreEQM48b/IS8+u4gOkS3ApeQkMM+c+/5uCTOPsYZrtz98UYoX2vmPrxsPdGH29wK94B7IHggyyDulx08cNQoOK4dNtMZS24QL68nzoiPi7oH+vbABhmkbwd0Yd1Ro+C4uthe1UZsEC+vJ6qj4YzugdE8sEEGGc0lO9h71Cg4rh020xlLbhAvryfOiI+Lugf69sAGGaRvB3Rh3VGj4Li62F7VRmwQr9PXr18/f/786dOnjx8/fvjw4f379+/evXv79u2bN29evXr18uXLFy9ePH/+/NmzZ3d3d7/4yz3gHnAPuAfcA+4B90DmAX8+UV3dOaN7YDQPbPAXyWgu2cHeo0bBce2wmc5YcoN4eT1xRnxc1D3Qtwc2yCB9O6AL644aBcfVxfaqNmKDeHk9UR0NZ3QPjOaBDTLIaC7Zwd6jRsFx7bCZzlhyg3hdtp7Ab2PB9gzshugVvpXFWOnBkFtc6t9nNda22CCDjOWQXaytiAJmTGwvb2fLMa9cvQJXpaa+2BzX6nisrCdg24sXfKEWngZso1mFL+ICNeq3M6oHQCXGZWJH2md925fkS5gUiSbmaEoXHVkH0AAJl+qhmt0h9XQBzo0wPXDUzGgC7nKCRkFJIl1lzhYHUlxJTiJUMmlglnz95F4dV0I4am8DXFM9Ab8wOr8ev1a+ajuQtO/bpvcS+d0rQRb+hxvL2mSEVdxz04xKJEL4vfBcf9i6nDTJNN2PTcxok3I9oyF0ildU6aghL6pT22WnSNNpgCxpyoPLSj1I97ZPD2yQQfoE3pVVWhTE6cIhtrr9V86c+qI2NccF5ovcrpAmjU25pInZtrhuJsdVJ9c71wa4oJ749uQJFhFQWOi/Bqb/vqjY/jjEVnNwuL6+VPw0lXrPqUS6DCytXcI6vWmbNjFTm0g/2f/j6U0sIphxdAAJJHIRNdgF3vDSICPTVGMxDpBDvckkIkCKQ0q9hAuoPu9f1wMbZJDrAjiEdi0K9ASSwybIDH44qNfLnGytqoHEBcazNDNr0elNuaSJucr4ApPEVWAdamoDXPL9Dvj1cuMRhfZ8Qtx3eBqwFd4Of5DjNTb9DlccCdb5d7qyaevyi+Img2pT0zZtYo4G0Y5qQ2BIZnOX2hIkCSVhuhjtg5rCS0sCIT7S/+e7gFrl/Wt7YIMMcm0IB9CvRYEfc/ud4gn+Fpmz3dESl5mH1CzWlEuamNuRcAmJi8+OO9oAl1JPNDyfCNcUXEbkvoIrSOyfcBr0j0nYU1E3i5+5ZZELxLTrUaeHRfSLVl6l8w/s1jKjPbQtGB+nwCK6tBxTfdiPwkjIWnkcqVZDenINNUV5zpEt5ISuPLBBBukKb5/GKFEIp6uvzNnuO4kLQPWae1vQSVwtsj3zboCL1xPwdMIqJ+7z5xPTlUOuPyAo9cQaH8Mtd3t7I7encfnRFeJRTUSFlCZX9cwfbLW1oXM0jvTXigRYkkJNUgbpqW2vJ2Ddmxte24SSSkYkLeK97jywQQbpDnN/BuVRCAmJvpWJxxzbM0Csz5ytixq4eIYIUDmpdR3BvyL3Cg0LwxzXgsAg0xvgmuqJ+HlM460O/fOY096nlxmeBmxX+xkVZFuHrlbQDvL0le9nfDBCuZT+9Pd5E7NhFkLKp4Ox+CBAAoTJ3HquRMrwWRhJfwBSa8UgPauUmmVdkq/klJ48sEEG6Qlup7ZkUZhyAT1cEyV7stsOCBWtzZwtK2a4grDMNXn2akqnTcwt1tu8Oi6bf5SZDXDx5xP3obAwigrxfAK2TdgquIPJG/qE9HP6nIRyVQsSXm9EDcRJnAt6BpfDKISXBa7HwVxClgnHhWCXAKMcPVeEH1RJGaK+oqtIExLp+vsdFd7si2WDDNIX4C6tEVGAI9175qzyo8DFZTrKvdyw5VER17J4txwb4BL1BPxjD+sDmayeiGcCnAdXXbji8PLD1vBseatFbbM0G/PrzdAfyeWFiH5e2+QVNdXIeRcfHkyiqkeAGB8TzEtIRjmOlpBOm1OIYOhKafA39QD1vz+fkN7re7xBBunbAV1Yx6IABzoer3i28Jhja9hdTmhR2yzNxvKYGyu0kBkuKVg2lVjI82l0jdSn/WFaYM7F6ylFXPVquuPcANe6eiLb9TMB6dgaHi1sNV0ynYXUM3QzcmGhiQ+Wkzf6tHGVrdrEzOyQH1ANk+y0J3aOUPdH4kZNirmCyXyWyhfko1lHJHo9kXm1a8IGGaRr/H0YR6KQneeZgHRsDcMLCU2XjCf3zIeYqj0EVz5fMHViBoO3yL25aUuUIq4l4Y7nN8B1ur9//Ti9wQFPJ1r+vahwHu5pbMU0Dhe3GjLmbTof6hyvdfURebPAtFOzsImZW6eIAkkvAuhMCW5aoo5LLWqSkqqe1xNVbuqGaYMM0g3Wfg2piAJmCGwNMFpeMlgluTJJSLHSmOCCP44qXjvk3hIAY47gMjjGJG+AC55PhCJi3gzmv+7Qv89K+BVPA7ZiGof9nAowNKuRA1G565uYEWtolbMclPETmJZMp5McQKaRDRT1bH4ewJJV+jThieb1hO2bHmc2yCA9wu7Mpooo4NnE1kDQT+YEAytwGTiAHDKgzEeBmBJhFG9ijlIrO+fhWrnoBmIb4Mre77C+bfuY9QQEMV3eeL0r+xmjHfY18oW2wIxCnbS57QmIPNeGyV5PGI7plLxBBukUeU9mVUQBziacQWwN849UTwDEPnNvRbyM+PRN3gDXZeuJvt3p1rkHHpgHNsggD8yja+AeNQqOa81u2E9mg3h5PbFfeH1l98CVPbBBBrkygiOoP2oUHNdYu3ODeHk9MdaWcGvdAw0e2CCDNFjzUFmPGgXHNdaO3iBeXk+MtSXcWvdAgwc2yCAN1jxU1qNGwXGNtaM3iNfp69evnz9//vTp08ePHz98+PD+/ft37969ffv2zZs3r169evny5YsXL54/f/7s2bO7u7tf/OUecA+4B9wD7gH3gHsg84A/nxirxHRr3QMNHtjgL5IGax4q61Gj4LjG2tEbxMvribG2hFvrHmjwwAYZpMGah8p61Cg4rrF29Abx8npirC3h1roHGjywQQZpsOahsh41Co5rrB29QbwuW0/gt7Fge3l3V34V5OUXPq7GFpf691mNtQ82yCBjOWQXayuigBkT28vb2XLMK1evwFWpqS82x7U6HivrCdj24gXfE4mnAdtoVv49aExa/XZG9QCoxLhM7Ej7rC+xlHzJKkWiiTma0kVH1gE0QMKleqhmd0g9XYBzI0wPHDUzmoC7nKBRUJJIV5mzxYEUV5KTCJVMGpglXz+5V8eVEI7aU3HlYVADpl8LMWZ4g/N64vXj08n8BQ/2e+WzS8EYVDV/Jfvyt8aCaarNPE7inpsmVSKXCw7i+hXSJNN0PzYxo01KHNA2OkWciF9tH2KFvKhObZedIk2ncbOkKQ8uK/Ug3ds+PaBmkD5NPbBVWhTE6cIhtro3rpw59UVtao4LzBe5XSFNGptySROzbXHdTI6rTq53rhyXtqFCwPh9JIFpYhMPrSem3wW7dj0Rrq8vvA6R9oaxes+pRCoO3tAuYZ3etE2bmKlNpJ/s//H0JgaNGUcHELjIRdRgF3hr6g5pOsih3mQSap1ayoMzUg/Sve3TA3kG6dPOY1ulRUGcLhxiqzkkHNTrZU5tyTJN4gLjO869ZTBkVuIiU0N3M1xG6i9twulHV26eGvsw1RNQTTx+/Ljt+YS479AQbIX3gTteY9NvweClJjhhKHRPHIYHkrjJoNrUdD82MSeLSE+1IcwnszlsW4I8DkrCZC3WBTWFl5YEVP+f7wJmlg+u7IEsg1x5PVeveUCLAj/m9jvFk74tMqdmeZkmcZl5SM1iTbmkibls9fKsxLUsMQZHjgv2lUz+4a4w7uXFfYj1BFQTj558e91WT4SlwR5yX4ElYv8EK2gpkdxvT0XdiRlrox+MxAcgJj0EHDo9LKJftLlHm5i5VdPIPG+heJqshkXo0nLcqHdml8eRajWsmtBSUyYvas7VjHJaBx7IM0gHRj04E5QohNPVV+ZsD4vEBaC09KDTpwSjJl+Rddg7wJlAztyOhEtIXHx23JGKKw+DEkL7mo4/ETuFYaon5mri/r6tnphNSQEFAoywPcP1cMvd3t5IbMblRxcKVnE5hUQlVvRX/HBwySkQr8mNEmBJCu2WMkhPbXs9Aeve3PDaJgSWezYt4b0OPaBmkA7tPLZJeRRCQsIjD+DxmGN7hkPWZ87WRQ1cPEMEqJzUuo7gX5F7hYaFYY5rQWCQ6SKuy3gV6onwTsfre3g11RPT3qeXGZ4GbFf7GRVkIOlqBe0gT1/5fsaKi3Ip/XjJK3MZKRVWimkIKZ8KxqKsBAiTufVciZThszCS/gDTrRWD9KxSapZ1Sb6SU3ryQDGD9GTooW3JojDlAnq4JkqqK1b7AxWtzZwtC2e4grDMNXn22jz3toD6+fOnjqtRSYfsRVzZhlkF4MRLiIZ6ArZN2Cq4g60qu2n3BBBEIzxOwYsP5ugZXAYshJcFrsdBMdFVgncIQgkwylE3En7QJWWo/uW+Ik1IpDsFOE8Py0s4x04eKGaQnWx6eMuKKMCR7j1zVgVJ4OIyHeVebtjyqIhrWbxbDoKL3ibZ38WJMF00DcynJ4+SdOo9nh5XhGcW+D/270XjmQDnwXphZbz8sDU8W95qUdsszcb8ejP0R3J5IaI/IYde4crMXVtgjnYYf3eAm1i1REoylF1wZWBrcwpqxlZKA0QKivrfn0+g18ZoSQYZw+BDWsmiAAc6Hq94tvCYY2v4oZzQorZZmo3lMTdWaCEzXFKwbCqx8Oq5V1q2OC7iWpTul+FyuMzg4ucx56Kh8vlEtutnAtKxNVxrWmPcu+QP8LZTUVhoMg0MlTf6VB/FI58wNDEnMehpDmGnPbFzhJpg4p17XCSbRoKhi0vzkVzA6wl05hjt5TLIGHj7tJJEITuDMwHp2BpACglNl0zHOfUM3e1kgisXLpg6MYPBW+Te3LQlShHXknDH8xmu1XvCDO66esLyGe5pbA0+0xqDn5BLHoALuuJF3iww7dQsbGImJuvlBGhTapaZGWdKcNMSdVxqUZOUVPW8nqhyUzdMWQbpxrKHZEhFFDC5YGu4R8tLBqskVyYJKVYaE1z95t4SAGOO4DI4xiRnuFbvCXMfHqmeWBFkOL5ZjRyIeKMTpU3MRE79gENQxquftGQ6naT4YRrZoHJbwJJV+phyNvB6grmj+0GWQbq3+IgGVkQBzya2hhvMPG7wE3JlkiASi90KXAUdIQPKfBSIKRFG8SbmKLWycx6ulYtuIJbhWr0nzH0o6gn8rITWss9P6OjxNGCrc8HbF3IfGZwZebUHMk2RkC5vvN6V/YzcYV8jX2gLzCjUSZvbnoBUxsPriU5iWWlGlkEq5Zztkh6oiAJmTGyN5fvKnBW4DBxI7jP3no8L8fXVZrhy98cboXytmfvw/wOLFdaKZl7TdwAAAABJRU5ErkJggg==;" vertex="1" parent="1">
          <mxGeometry x="129" y="450" width="569" height="259.22" as="geometry" />
        </mxCell>
        <mxCell id="xIgc0pnBAUEfbklbajIn-3" value="" style="shape=flexArrow;endArrow=classic;html=1;rounded=0;" edge="1" parent="1">
          <mxGeometry width="50" height="50" relative="1" as="geometry">
            <mxPoint x="430" y="360" as="sourcePoint" />
            <mxPoint x="430" y="430" as="targetPoint" />
          </mxGeometry>
        </mxCell>
      </root>
    </mxGraphModel>
  </diagram>
</mxfile>
